<?xml version="1.0" encoding="UTF-8"?>
<svg width="146px" height="56px" viewBox="0 0 146 56" version="1.1" xmlns="http://www.w3.org/2000/svg" xmlns:xlink="http://www.w3.org/1999/xlink">
    <title>bt-制卡</title>
    <defs>
        <linearGradient x1="50%" y1="0%" x2="50%" y2="100%" id="linearGradient-1">
            <stop stop-color="#568BF7" offset="0%"></stop>
            <stop stop-color="#2B53EC" offset="100%"></stop>
        </linearGradient>
        <path d="M10,0 L110,0 C121.045695,-2.02906125e-15 130,8.954305 130,20 C130,31.045695 121.045695,40 110,40 L0,40 L0,40 L10,0 Z" id="path-2"></path>
        <filter x="-8.5%" y="-27.5%" width="120.0%" height="165.0%" filterUnits="objectBoundingBox" id="filter-4">
            <feOffset dx="2" dy="2" in="SourceAlpha" result="shadowOffsetOuter1"></feOffset>
            <feGaussianBlur stdDeviation="4" in="shadowOffsetOuter1" result="shadowBlurOuter1"></feGaussianBlur>
            <feColorMatrix values="0 0 0 0 0.168627451   0 0 0 0 0.325490196   0 0 0 0 0.925490196  0 0 0 0.4 0" type="matrix" in="shadowBlurOuter1"></feColorMatrix>
        </filter>
    </defs>
    <g id="页面-1" stroke="none" stroke-width="1" fill="none" fill-rule="evenodd">
        <g id="IC卡管理/制卡-关联计划" transform="translate(-712.000000, -712.000000)">
            <g id="按钮" transform="translate(592.000000, 718.000000)">
                <g id="bt-制卡" transform="translate(126.000000, 0.000000)">
                    <mask id="mask-3" fill="white">
                        <use xlink:href="#path-2"></use>
                    </mask>
                    <g id="蒙版">
                        <use fill="black" fill-opacity="1" filter="url(#filter-4)" xlink:href="#path-2"></use>
                        <use fill="url(#linearGradient-1)" fill-rule="evenodd" xlink:href="#path-2"></use>
                    </g>
                    <path d="M124.368421,29.5263158 C126.155143,29.5263158 127.868685,30.2360882 129.132088,31.4994912 C130.395491,32.7628941 131.105263,34.4764363 131.105263,36.2631579 C131.105263,39.983813 128.089076,43 124.368421,43 C120.647766,43 117.631579,39.9838131 117.631579,36.2631579 C117.631579,32.5425028 120.647766,29.5263158 124.368421,29.5263158 Z M109.210526,11 C109.675608,11 110.052632,11.3770234 110.052632,11.8421053 L110.052632,11.8421053 L110.052632,42.1578947 C110.052632,42.6229766 109.675608,43 109.210526,43 L109.210526,43 L106.684211,43 C105.754047,43 105,42.2459533 105,41.3157895 L105,41.3157895 L105,12.6842105 C105,11.7540467 105.754047,11 106.684211,11 L106.684211,11 Z M126.894737,11 C127.824901,11 128.578947,11.7540467 128.578947,12.6842105 L128.578947,12.6842105 L128.578947,27.64 C128.578947,27.9143662 128.44506,28.1714739 128.220448,28.3290375 C127.995836,28.4866012 127.708547,28.5248635 127.450526,28.4315789 C125.047015,27.4852426 122.342141,27.694355 120.112641,28.998867 C117.883142,30.3033789 116.375686,32.5589606 116.023158,35.1178947 C115.705301,37.4604868 116.386765,39.8288034 117.901053,41.6442105 C118.096564,41.8981809 118.130954,42.2411173 117.989767,42.5288528 C117.84858,42.8165883 117.556297,42.9992311 117.235789,43 L117.235789,43 L112.578947,43 C112.355607,43 112.141414,42.9112785 111.983489,42.7533531 C111.825564,42.5954277 111.736842,42.381235 111.736842,42.1578947 L111.736842,42.1578947 L111.736842,11.8421053 C111.736842,11.618765 111.825564,11.4045723 111.983489,11.2466469 C112.141414,11.0887215 112.355607,11 112.578947,11 L112.578947,11 Z M124.368421,32.0526316 C123.903339,32.0526316 123.526316,32.4296549 123.526316,32.8947368 L123.526316,32.8947368 L123.526316,35.4210526 L121,35.4210526 C120.534918,35.4210527 120.157895,35.798076 120.157895,36.2631579 C120.157895,36.7282398 120.534918,37.1052631 121,37.1052632 L121,37.1052632 L123.526316,37.1052632 L123.526316,39.6315789 C123.526316,40.0966608 123.903339,40.4736842 124.368421,40.4736842 C124.833503,40.4736842 125.210526,40.0966608 125.210526,39.6315789 L125.210526,39.6315789 L125.210526,37.1052632 L127.736842,37.1052632 C128.201924,37.1052631 128.578947,36.7282398 128.578947,36.2631579 C128.578947,35.798076 128.201924,35.4210527 127.736842,35.4210526 L127.736842,35.4210526 L125.210526,35.4210526 L125.210526,32.8947368 C125.210526,32.4296549 124.833503,32.0526316 124.368421,32.0526316 Z M125.210526,13.5263158 C124.745444,13.5263158 124.368421,13.9033392 124.368421,14.3684211 L124.368421,14.3684211 L124.368421,21.1052632 C124.368421,21.5703451 124.745444,21.9473684 125.210526,21.9473684 C125.675608,21.9473684 126.052632,21.5703451 126.052632,21.1052632 L126.052632,21.1052632 L126.052632,14.3684211 C126.052632,13.9033392 125.675608,13.5263158 125.210526,13.5263158 Z" id="形状结合" fill="#FFFFFF" fill-rule="nonzero" opacity="0.149999991" style="mix-blend-mode: overlay;" mask="url(#mask-3)" transform="translate(118.052632, 27.000000) rotate(-90.000000) translate(-118.052632, -27.000000) "></path>
                </g>
            </g>
        </g>
    </g>
</svg>