<?xml version="1.0" encoding="UTF-8"?>
<svg width="146px" height="56px" viewBox="0 0 146 56" version="1.1" xmlns="http://www.w3.org/2000/svg" xmlns:xlink="http://www.w3.org/1999/xlink">
    <title>bt-称重</title>
    <defs>
        <linearGradient x1="50%" y1="0%" x2="50%" y2="100%" id="linearGradient-1">
            <stop stop-color="#568BF7" offset="0%"></stop>
            <stop stop-color="#2B53EC" offset="100%"></stop>
        </linearGradient>
        <path d="M10,0 L110,0 C121.045695,-2.02906125e-15 130,8.954305 130,20 C130,31.045695 121.045695,40 110,40 L0,40 L0,40 L10,0 Z" id="path-2"></path>
        <filter x="-8.5%" y="-27.5%" width="120.0%" height="165.0%" filterUnits="objectBoundingBox" id="filter-4">
            <feOffset dx="2" dy="2" in="SourceAlpha" result="shadowOffsetOuter1"></feOffset>
            <feGaussianBlur stdDeviation="4" in="shadowOffsetOuter1" result="shadowBlurOuter1"></feGaussianBlur>
            <feColorMatrix values="0 0 0 0 0.168627451   0 0 0 0 0.325490196   0 0 0 0 0.925490196  0 0 0 0.4 0" type="matrix" in="shadowBlurOuter1"></feColorMatrix>
        </filter>
    </defs>
    <g id="页面-1" stroke="none" stroke-width="1" fill="none" fill-rule="evenodd">
        <g id="称重管理" transform="translate(-712.000000, -416.000000)">
            <g id="按钮" transform="translate(592.000000, 422.000000)">
                <g id="bt-称重" transform="translate(126.000000, 0.000000)">
                    <mask id="mask-3" fill="white">
                        <use xlink:href="#path-2"></use>
                    </mask>
                    <g id="蒙版">
                        <use fill="black" fill-opacity="1" filter="url(#filter-4)" xlink:href="#path-2"></use>
                        <use fill="url(#linearGradient-1)" fill-rule="evenodd" xlink:href="#path-2"></use>
                    </g>
                    <path d="M119,9 C110.2,9 103,16.2 103,25 C103,29.48 104.92,33.48 107.8,36.36 L107.8,39.4 C107.8,40.2 108.6,41 109.4,41 L128.6,41 C129.4,41 130.2,40.2 130.2,39.4 L130.2,36.36 C133.08,33.48 135,29.48 135,25 C135,16.2 127.8,9 119,9 Z M117.4,13 C117.4,12.2 118.2,11.4 119,11.4 C119.8,11.4 120.6,12.2 120.6,13 L120.6,14.6 C120.6,15.4 119.8,16.2 119,16.2 C118.2,16.2 117.4,15.4 117.4,14.6 L117.4,13 L117.4,13 Z M108.6,26.6 L107,26.6 C106.2,26.6 105.4,25.8 105.4,25 C105.4,24.2 106.2,23.4 107,23.4 L108.6,23.4 C109.4,23.4 110.2,24.2 110.2,25 C110.2,25.8 109.4,26.6 108.6,26.6 Z M111.64,17.64 C111,18.28 110.04,18.28 109.4,17.64 C108.76,17 108.76,16.04 109.4,15.4 C110.04,14.76 111,14.76 111.64,15.4 C112.28,16.04 112.28,17 111.64,17.64 Z M123.8,36.2 L114.2,36.2 C113.4,36.2 112.6,35.4 112.6,34.6 C112.6,33.8 113.4,33 114.2,33 L123.8,33 C124.6,33 125.4,33.8 125.4,34.6 C125.4,35.4 124.6,36.2 123.8,36.2 Z M122.52,23.24 C122.84,23.72 123,24.36 123,25 C123,27.24 121.24,29 119,29 C116.76,29 115,27.24 115,25 C115,22.76 116.76,21 119,21 C119.64,21 120.28,21.16 120.76,21.48 C122.68,19.88 125.08,18.28 125.4,18.6 C125.72,18.92 124.12,21.32 122.52,23.24 L122.52,23.24 Z M126.36,17.64 C125.72,17 125.72,16.04 126.36,15.4 C127,14.76 127.96,14.76 128.6,15.4 C129.24,16.04 129.24,17 128.6,17.64 C127.96,18.28 127,18.28 126.36,17.64 Z M131,26.6 L129.4,26.6 C128.6,26.6 127.8,25.8 127.8,25 C127.8,24.2 128.6,23.4 129.4,23.4 L131,23.4 C131.8,23.4 132.6,24.2 132.6,25 C132.6,25.8 131.8,26.6 131,26.6 Z" id="形状" fill="#FFFFFF" fill-rule="nonzero" opacity="0.149999991" style="mix-blend-mode: overlay;" mask="url(#mask-3)"></path>
                </g>
            </g>
        </g>
    </g>
</svg>