<?xml version="1.0" encoding="utf-8"?>
<!-- Generator: Adobe Illustrator 25.3.1, SVG Export Plug-In . SVG Version: 6.00 Build 0)  -->
<svg version="1.1" id="图层_1" xmlns="http://www.w3.org/2000/svg" xmlns:xlink="http://www.w3.org/1999/xlink" x="0px" y="0px"
	 viewBox="0 0 16 15" style="enable-background:new 0 0 16 15;" xml:space="preserve">
<style type="text/css">
	.st0{fill:#FFFFFF;}
</style>
<g id="页面-1">
	<g id="画板" transform="translate(-91.000000, -235.000000)">
		<path id="ic-IO" class="st0" d="M104.1,243.3c0.9,0,1.5,0.2,2,0.7c0.6,0.6,0.9,1.4,0.9,2.5c0,1.1-0.3,1.9-0.9,2.5
			c-0.5,0.5-1.1,0.7-2,0.7s-1.5-0.2-2-0.7c-0.6-0.6-0.9-1.4-0.9-2.5c0-1.1,0.3-2,0.9-2.5C102.5,243.5,103.2,243.3,104.1,243.3z
			 M100.1,243.5v6.1h-1.3v-6.1H100.1z M98.3,235c4,0,7.2,3.2,7.3,7.1l0,0.2h-1.2c0-3.4-2.7-6.1-6.1-6.1c-3.4,0-6.1,2.7-6.1,6.1
			c0,3.3,2.6,6,5.9,6.1l0.2,0v1.2c-4,0-7.3-3.3-7.3-7.3C91,238.3,94.3,235,98.3,235z M104.1,244.4c-0.5,0-0.9,0.2-1.2,0.6
			s-0.5,0.9-0.5,1.6c0,0.7,0.2,1.2,0.5,1.6s0.7,0.6,1.2,0.6s0.9-0.2,1.2-0.6c0.3-0.4,0.4-0.9,0.4-1.6c0-0.7-0.1-1.2-0.4-1.6
			C105,244.6,104.6,244.4,104.1,244.4z M98.3,237.1c2.8,0,5.1,2.2,5.2,5l0,0.2h-0.6c0-2.5-2-4.6-4.6-4.6c-2.5,0-4.6,2-4.6,4.6
			c0,2.5,2,4.5,4.4,4.6l0.1,0v0.6c-2.9,0-5.2-2.3-5.2-5.2S95.5,237.1,98.3,237.1z"/>
	</g>
</g>
</svg>
