<?xml version="1.0" encoding="utf-8"?>
<!-- Generator: Adobe Illustrator 25.3.1, SVG Export Plug-In . SVG Version: 6.00 Build 0)  -->
<svg version="1.1" id="图层_1" xmlns="http://www.w3.org/2000/svg" xmlns:xlink="http://www.w3.org/1999/xlink" x="0px" y="0px"
	 viewBox="0 0 16 16" style="enable-background:new 0 0 16 16;" xml:space="preserve">
<style type="text/css">
	.st0{fill:#FFFFFF;}
</style>
<g id="页面-1">
	<g id="画板" transform="translate(-64.000000, -235.000000)">
		<path id="ic-LED" class="st0" d="M77,249v1.3H66.9V249H77z M80,235v12.7H64V235H80z M78.9,236.2H65l0.1,10.4h13.8V236.2z
			 M67.7,239.1v3.6h1.8v0.9h-2.9v-4.5H67.7z M73.1,239.1v0.9h-1.7v0.9h1.5v0.9h-1.5v1h1.8v0.9h-2.9v-4.5H73.1z M75.4,239.1
			c0.7,0,1.3,0.2,1.7,0.6c0.4,0.3,0.6,0.9,0.6,1.7c0,0.8-0.2,1.3-0.6,1.7s-1,0.6-1.6,0.6l0,0h-1.3v-4.5H75.4z M75.3,239.9h-0.2v2.9
			h0.2c0.4,0,0.6-0.1,0.9-0.3c0.2-0.2,0.3-0.6,0.3-1.1c0-0.6-0.1-0.9-0.3-1.1C76,240,75.7,239.9,75.3,239.9L75.3,239.9z"/>
	</g>
</g>
</svg>
