<?xml version="1.0" encoding="UTF-8"?>
<svg width="16px" height="16px" viewBox="0 0 16 16" version="1.1" xmlns="http://www.w3.org/2000/svg" xmlns:xlink="http://www.w3.org/1999/xlink">
    <title>ic-回收</title>
    <g id="页面-1" stroke="none" stroke-width="1" fill="none" fill-rule="evenodd">
        <g id="画板" transform="translate(-200.000000, -236.000000)" fill="#FFFFFF" fill-rule="nonzero">
            <path d="M200,243.911293 L202.291883,246.244776 L201.046294,246.244776 L201.046294,249.397015 C201.046294,250.304478 201.818559,251.020896 202.740295,251.020896 L202.740295,251.020896 L213.234793,251.020896 C214.181441,251.020896 214.928794,250.280597 214.928794,249.397015 L214.928794,249.397015 L214.928794,246.2 L216,246.2 L216,249.373134 C216,250.829851 214.754411,252 213.259705,252 L213.259705,252 L202.740295,252 C201.220677,252 200,250.80597 200,249.373134 L200,249.373134 L200,243.911293 Z M212.40045,244.712278 L211.479367,246.817315 C211.475349,246.827484 211.39198,247.014599 211.296557,247.091885 C211.217038,247.157138 211.051722,247.192024 210.993012,247.203017 L210.972119,247.206798 L210.084183,247.367472 L210.103268,248 L208.680964,246.689182 L209.626153,244.907528 L209.76979,245.58175 C209.839097,245.570564 211.156938,245.353959 211.790747,245.155658 C212.238733,245.016339 212.377347,244.765158 212.40045,244.712278 Z M208.112444,245.588868 L208.33945,247.466114 L205.98401,247.605433 C205.546069,247.421369 205.41549,247.040022 205.380334,246.81223 C205.347187,246.604354 205.595099,245.839343 205.649026,245.677253 L205.658567,245.648867 L208.112444,245.588868 Z M205.455668,243.159432 L206.600743,244.856682 L205.902649,244.603467 C205.876534,244.663466 205.383348,245.805474 205.231675,246.404443 C205.137034,246.779576 205.25112,247.013293 205.303742,247.094167 L205.320067,247.117308 L203.865621,245.265486 C203.858589,245.255317 203.731024,245.091592 203.708926,244.975662 C203.691348,244.879054 203.745616,244.732306 203.766519,244.680189 L203.774215,244.661432 L204.092627,243.884501 L203.5,243.55705 L205.455668,243.159432 Z M211.090644,242.1842 L212.489846,243.942465 C212.557144,244.378727 212.274893,244.68177 212.086056,244.828208 C211.910818,244.963381 211.061158,245.175672 210.891187,245.21713 L210.863638,245.223792 L209.484525,243.346547 L211.090644,242.1842 Z M213.255717,236 C214.777547,236 216,237.120448 216,238.464986 L216,238.464986 L216,244.356968 L213.779626,241.893557 L214.977131,241.893557 L214.977131,238.464986 C214.977131,237.613445 214.203742,236.941176 213.280665,236.941176 L213.280665,236.941176 L202.744283,236.941176 C201.796258,236.941176 201.047817,237.635854 201.047817,238.464986 L201.047817,238.464986 L201.047817,241.952381 L200,241.952381 L200,238.464986 C200,237.098039 201.247401,236 202.744283,236 L202.744283,236 Z M206.800629,240.372038 C207.01056,240.455935 207.595235,241.05424 207.717528,241.182357 L207.738788,241.204901 L206.533445,243.162483 L204.6732,242.347925 L205.754995,240.427969 C205.911689,240.330344 206.073406,240.286616 206.225078,240.27543 C206.454093,240.260176 206.66302,240.318141 206.800629,240.372038 Z M209.367004,240.032385 C209.465776,240.069672 209.574312,240.190291 209.611816,240.234169 L209.625149,240.250007 L210.18262,240.909992 L210.791317,240.617117 L210.156504,242.360128 L207.990905,242.361145 L208.584536,241.94929 C208.542349,241.897427 207.73477,240.907958 207.255646,240.472714 C206.950092,240.196313 206.670573,240.166202 206.572326,240.164427 L206.546503,240.164585 L209.016451,240.001877 C209.028504,240.001877 209.248479,239.988657 209.367004,240.032385 Z" id="ic-回收"></path>
        </g>
    </g>
</svg>