<?xml version="1.0" encoding="UTF-8"?>
<svg width="16px" height="16px" viewBox="0 0 16 16" version="1.1" xmlns="http://www.w3.org/2000/svg" xmlns:xlink="http://www.w3.org/1999/xlink">
    <title>ic-制卡</title>
    <g id="页面-1" stroke="none" stroke-width="1" fill="none" fill-rule="evenodd">
        <g id="画板" transform="translate(-236.000000, -236.000000)" fill="#FFFFFF" fill-rule="nonzero">
            <path d="M251.857268,236 C239.340722,236.118762 236.995412,245.90878 236.013204,251.056158 C235.944431,251.412443 236.150748,251.74685 236.482266,251.904678 C236.60923,251.965622 236.755591,252 236.912533,252 C237.120613,252 237.314586,251.937494 237.469764,251.832796 C237.624943,251.726536 237.74309,251.576521 237.795991,251.398379 C237.959987,250.853013 238.166304,250.365465 238.416705,249.935736 C239.217284,248.56529 240.462238,247.787089 242.155093,247.59957 C245.574307,247.221408 248.185889,244.689911 249.219236,242.383436 C249.317986,242.163102 249.231579,241.911515 249.009392,241.780252 L248.596759,241.536478 C248.300509,241.361461 248.258188,240.98955 248.510353,240.76609 L248.926513,240.397304 C249.645976,239.759742 250.367203,238.86903 251.314144,237.318879 C251.525751,236.973533 251.747938,236.595371 251.984232,236.179705 C251.989522,236.170329 251.993049,236.160953 251.996576,236.151577 C252.015973,236.078133 251.950728,236 251.857268,236 L251.857268,236 Z M249.76765,237.71423 C249.624816,237.928313 249.487271,238.125208 249.353253,238.308038 C248.926513,238.889345 248.538567,239.330013 248.12946,239.692548 L247.7133,240.061334 C247.353568,240.380115 247.175466,240.820783 247.224841,241.269265 C247.274216,241.717746 247.547541,242.119348 247.970755,242.369372 L247.991916,242.381873 C247.783836,242.777224 247.529908,243.167887 247.233658,243.549175 C246.822788,244.075789 246.348436,244.55396 245.826472,244.972751 C245.271004,245.416545 244.676742,245.780643 244.056028,246.054107 C243.394757,246.34476 242.708798,246.530716 242.017549,246.607286 C241.231076,246.694794 240.344091,246.915128 239.504717,247.3933 C239.384806,247.462057 239.264896,247.535502 239.146749,247.615197 C239.092084,247.6527 239.016258,247.605821 239.035655,247.548003 C239.702217,245.558746 240.772595,243.691376 242.179781,242.028714 L242.204468,241.999023 C242.204468,241.999023 240.610363,243.066315 238.624785,246.132239 C238.582464,246.197871 238.469607,246.152554 238.496058,246.080672 C238.711191,245.510304 238.945722,244.968063 239.196124,244.458639 C239.59994,243.633558 240.058422,242.869421 240.559225,242.184979 C241.109402,241.433343 241.728353,240.755152 242.398441,240.169157 C243.124958,239.533158 243.934354,238.987792 244.803706,238.543998 C245.110536,238.387733 245.426183,238.243969 245.75241,238.111144 C246.431315,237.834554 247.152542,237.60797 247.907273,237.436078 C248.62321,237.271999 249.383231,237.153238 250.176757,237.081356 C250.033922,237.30794 249.898141,237.517336 249.76765,237.71423 L249.76765,237.71423 Z" id="ic-制卡"></path>
        </g>
    </g>
</svg>