<?xml version="1.0" encoding="UTF-8"?>
<svg width="16px" height="15px" viewBox="0 0 16 15" version="1.1" xmlns="http://www.w3.org/2000/svg" xmlns:xlink="http://www.w3.org/1999/xlink">
    <title>ic-摄像头</title>
    <g id="页面-1" stroke="none" stroke-width="1" fill="none" fill-rule="evenodd">
        <g id="画板" transform="translate(-36.000000, -235.000000)" fill="#FFFFFF" fill-rule="nonzero">
            <path d="M47.5862069,237.658177 C47.1448276,237.658177 46.7586207,238.056193 46.7586207,238.511068 C46.7586207,238.965944 47.1448276,239.363959 47.5862069,239.363959 C48.0275862,239.363959 48.4137931,238.965944 48.4137931,238.511068 C48.4137931,238.056193 48.0275862,237.658177 47.5862069,237.658177 Z M36,242.434367 L38.8689655,246.187088 L39.9724138,245.789072 L37.1034483,242.036352 L36,242.434367 Z M51.9448276,241.865773 L49.9586207,235.383801 C49.9034483,235.270082 49.7931034,235.099504 49.6827586,235.042645 C49.5724138,234.985785 49.4068965,234.985785 49.2413793,235.042645 L36.8275862,239.705116 C36.662069,239.761975 36.5517241,239.932553 36.4965517,240.103132 C36.4413793,240.27371 36.4965517,240.444288 36.6068966,240.614866 L40.9655172,246.243948 C41.0758621,246.357666 41.2413793,246.471385 41.4068966,246.471385 C41.462069,246.471385 41.5172414,246.471385 41.5724138,246.414526 L51.6689655,242.604946 C51.9448276,242.491227 52.0551724,242.15007 51.9448276,241.865773 Z M41.5724138,245.163619 L37.9310345,240.444288 L49.1310345,236.236692 L50.7310345,241.695195 L41.5724138,245.163619 Z M50.8965517,245.334197 L50.8965517,247.039979 L48.4689655,247.039979 L47.862069,245.845932 L51.0068966,244.651884 L50.6206897,243.571555 L42.6206897,246.585104 L43.337931,247.551714 L46.8137931,246.243948 L47.6413793,247.89287 C47.7517241,248.063449 47.9172414,248.234027 48.137931,248.234027 L50.8965517,248.234027 L50.8965517,249.769231 L52,249.769231 L52,245.334197 L50.8965517,245.334197 Z" id="ic-摄像头" transform="translate(44.000000, 242.384615) scale(-1, 1) translate(-44.000000, -242.384615) "></path>
        </g>
    </g>
</svg>