<?xml version="1.0" encoding="UTF-8"?>
<svg width="16px" height="16px" viewBox="0 0 16 16" version="1.1" xmlns="http://www.w3.org/2000/svg" xmlns:xlink="http://www.w3.org/1999/xlink">
    <title>ic-清空</title>
    <g id="页面-1" stroke="none" stroke-width="1" fill="none" fill-rule="evenodd">
        <g id="画板" transform="translate(-122.000000, -234.000000)" fill="#FFFFFF">
            <g id="1.Icon/通用/清除" transform="translate(122.000000, 234.000000)">
                <path d="M10.3031743,-1.46549439e-14 L10.3031743,2.97907001 L16,2.97907001 L16,7.38102493 L0,7.38102493 L0,2.97907001 L5.51097832,2.97907001 L5.51097832,-1.46549439e-14 L10.3031743,-1.46549439e-14 Z M8.903,1.4 L6.91,1.4 L6.91097832,4.37907001 L1.4,4.37898786 L1.4,5.98098786 L14.6,5.98098786 L14.6,4.37898786 L8.90317427,4.37907001 L8.903,1.4 Z M2.71470815,7.38102493 L2.71470815,8.8290162 C2.71470815,10.5860893 2.46501495,12.8474717 1.97456023,14.5311457 L1.95279414,14.6 L4.099,14.6 L4.1,12 L5.5,12 L5.499,14.6 L7.3,14.6 L7.3,10 L8.7,10 L8.7,14.6 L10.5,14.6 L10.5,12 L11.9,12 L11.9,14.6 L14.0354465,14.6 L14.0152347,14.5341519 C13.5659631,13.0175538 13.3150618,10.9334197 13.2693743,9.35096947 L13.261755,8.82304618 L13.261755,7.38102493 L14.6629903,7.38102493 L14.6629903,8.82304618 C14.6629903,10.6120547 14.9471521,12.903696 15.5039365,14.601855 L16,16 L11.9,15.999 L11.9,16 L10.5,16 L10.5,15.999 L8.7,15.999 L8.7,16 L7.3,16 L7.3,15.999 L5.499,15.999 L5.5,16 L4.1,16 L4.099,15.999 L0,16 L0.330424819,15.0665894 C0.926816117,13.3818552 1.25585673,11.1003347 1.30655523,9.31603611 L1.31347279,7.38102493 L2.71470815,7.38102493 Z" id="形状结合"></path>
            </g>
        </g>
    </g>
</svg>