<?xml version="1.0" encoding="UTF-8"?>
<svg width="16px" height="16px" viewBox="0 0 16 16" version="1.1" xmlns="http://www.w3.org/2000/svg" xmlns:xlink="http://www.w3.org/1999/xlink">
    <title>ic-称重</title>
    <g id="页面-1" stroke="none" stroke-width="1" fill="none" fill-rule="evenodd">
        <g id="画板" transform="translate(-161.000000, -234.000000)" fill="#FFFFFF" fill-rule="nonzero">
            <path d="M176.994134,248.681732 L176.994134,250 L163.270211,250 L163.273144,248.681732 L176.994134,248.681732 Z M164.991934,234 L166.078651,234.999516 L164.606463,236.575386 L164.606463,246.496846 L176.994134,246.496846 L177,247.853779 L163.859762,247.853779 C163.537122,247.853779 163.273144,247.59676 163.273144,247.282627 L163.273144,247.282627 L163.273144,237.752541 L162.066262,238.948444 L161,237.889546 L164.991934,234 Z M176.074538,242.1263 C176.397178,242.1263 176.661156,242.383318 176.661156,242.697452 L176.661156,242.697452 L176.661156,244.653648 C176.661156,244.967781 176.397178,245.2248 176.074538,245.2248 L176.074538,245.2248 L166.433475,245.2248 C166.110835,245.2248 165.846857,244.967781 165.846857,244.653648 L165.846857,244.653648 L165.846857,242.697452 C165.846857,242.383318 166.110835,242.1263 166.433475,242.1263 L166.433475,242.1263 Z M175.48792,243.268604 L167.020092,243.268604 L167.020092,244.082496 L175.48792,244.082496 L175.48792,243.268604 Z" id="ic-称重"></path>
        </g>
    </g>
</svg>