<?xml version="1.0" encoding="utf-8"?>
<!-- Generator: Adobe Illustrator 25.3.1, SVG Export Plug-In . SVG Version: 6.00 Build 0)  -->
<svg version="1.1" id="图层_1" xmlns="http://www.w3.org/2000/svg" xmlns:xlink="http://www.w3.org/1999/xlink" x="0px" y="0px"
	 viewBox="0 0 26 28" style="enable-background:new 0 0 26 28;" xml:space="preserve">
<style type="text/css">
	.st0{fill-rule:evenodd;clip-rule:evenodd;fill:#FFFFFF;}
	.st1{filter:url(#Adobe_OpacityMaskFilter);}
	.st2{mask:url(#mask-2_1_);fill-rule:evenodd;clip-rule:evenodd;fill:#BAC6E5;}
</style>
<g id="控件">
	<g id="全局_x2F_left_x2F_组合" transform="translate(-65.000000, -66.000000)">
		<g id="title" transform="translate(23.000000, 56.000000)">
			<g id="logo" transform="translate(31.000000, 0.000000)">
				<g transform="translate(11.000000, 10.000000)">
					<g id="蒙版">
						<path id="path-1_1_" class="st0" d="M9.4,2.5v2.2H6.1L4.6,8h4.5v2.2H1l0-1.6H0l1.8-3.9H0V2.5H9.4z M1,19h8.2v2.2H1V19z
							 M5.8,13.5h3.4v2.2H5.8V13.5z M5.8,16.2h3.4v2.2H5.8V16.2z M1,10.8h3.4V13H1V10.8z M1,13.5h3.4v2.2H1V13.5z M1,16.2h3.4v2.2H1
							V16.2z M5.8,10.8h3.4V13H5.8V10.8z M19.7,0l-1.4,2.5l5.5,0v2.2h-14V2.5l4.1,0L15.4,0H19.7z M15.2,5.2l1.3,2.2h7.4V11h-3.4V9.8
							h-7.2V11H9.9V7.5h2.3l-1.3-2.2H15.2z M22.6,4.8l-1,2h-4.3l1-2H22.6z M23.8,28l-4.3-2.5v-7h-3.9v5.8l-4.3-2.5v-7h4.3v1.5h8.2
							V28z M24.1,12.5h0.5v2.2h-0.5V12.5z M24.8,12.5h0.5v2.2h-0.5V12.5z M25.5,12.5H26v2.2h-0.5V12.5z M19.3,11.2l0,1.2h4.6v2.2
							h-14v-2.2h4.6l0-1.2H19.3z"/>
					</g>
					<defs>
						<filter id="Adobe_OpacityMaskFilter" filterUnits="userSpaceOnUse" x="8.3" y="-2" width="15.9" height="32">
							<feColorMatrix  type="matrix" values="1 0 0 0 0  0 1 0 0 0  0 0 1 0 0  0 0 0 1 0"/>
						</filter>
					</defs>
					<mask maskUnits="userSpaceOnUse" x="8.3" y="-2" width="15.9" height="32" id="mask-2_1_">
						<g class="st1">
							<path id="path-1_2_" class="st0" d="M9.4,2.5v2.2H6.1L4.6,8h4.5v2.2H1l0-1.6H0l1.8-3.9H0V2.5H9.4z M1,19h8.2v2.2H1V19z
								 M5.8,13.5h3.4v2.2H5.8V13.5z M5.8,16.2h3.4v2.2H5.8V16.2z M1,10.8h3.4V13H1V10.8z M1,13.5h3.4v2.2H1V13.5z M1,16.2h3.4v2.2
								H1V16.2z M5.8,10.8h3.4V13H5.8V10.8z M19.7,0l-1.4,2.5l5.5,0v2.2h-14V2.5l4.1,0L15.4,0H19.7z M15.2,5.2l1.3,2.2h7.4V11h-3.4
								V9.8h-7.2V11H9.9V7.5h2.3l-1.3-2.2H15.2z M22.6,4.8l-1,2h-4.3l1-2H22.6z M23.8,28l-4.3-2.5v-7h-3.9v5.8l-4.3-2.5v-7h4.3v1.5
								h8.2V28z M24.1,12.5h0.5v2.2h-0.5V12.5z M24.8,12.5h0.5v2.2h-0.5V12.5z M25.5,12.5H26v2.2h-0.5V12.5z M19.3,11.2l0,1.2h4.6
								v2.2h-14v-2.2h4.6l0-1.2H19.3z"/>
						</g>
					</mask>
					<path id="形状结合" class="st2" d="M8.3,0.8h2v21.8h-2V0.8z M22.2,7.5h2V30h-2V7.5z M24.2,2.5v2.2h-0.7l-1,2H21l1-2h0V2.5
						H24.2z M21.3-2l-2.2,4.5h-2L19.3-2H21.3z"/>
				</g>
			</g>
		</g>
	</g>
</g>
</svg>
