<?xml version="1.0" encoding="UTF-8"?>
<svg width="32px" height="24px" viewBox="0 0 32 24" version="1.1" xmlns="http://www.w3.org/2000/svg" xmlns:xlink="http://www.w3.org/1999/xlink">
    <title>形状结合</title>
    <g id="页面-1" stroke="none" stroke-width="1" fill="none" fill-rule="evenodd">
        <g id="手动开闸" transform="translate(-25.000000, -8.000000)" fill="#FFFFFF">
            <path d="M56.7854231,15.7068492 C58.2195248,21.894424 52.3147383,28.8321662 43.5967668,31.203445 C42.8985794,31.3932457 42.2038744,31.5474464 41.5152832,31.6680927 L41.0000273,31.752318 C33.2992884,32.923206 26.5051412,29.8610726 25.2146312,24.2930542 C23.7805295,18.1057867 29.685316,11.1677372 38.4035898,8.79676574 C39.1017772,8.6069651 39.7964822,8.45276436 40.4849187,8.33196068 L40.9990273,8.247 L41.360318,8.19580779 C48.9117487,7.17329864 55.5153749,10.2258312 56.7854231,15.7068492 Z M41.3613496,10.7039401 L41.0000273,10.7479385 C40.2080064,10.8505833 39.4060099,10.993487 38.5991766,11.1803373 C30.5377963,13.0469972 25.0779925,18.5086829 26.4038714,23.3797001 C27.5771155,27.6887077 33.667909,30.0913342 40.6387048,29.2959634 L40.9990273,29.251 L41.5958376,29.1675048 C42.1933673,29.0752945 42.7958283,28.9597039 43.40118,28.8195661 C51.462258,26.9532136 56.9223641,21.4912206 55.5964852,16.6205106 C54.4229439,12.3112009 48.3321454,9.90856931 41.3613496,10.7039401 Z M49.3315255,17.4710921 L46.9414486,27.6 L36.6976706,27.6 L37.6879863,23.3786779 L43.6633377,23.3786779 L45.0634174,17.4710921 L49.3315255,17.4710921 Z M36.0829929,26.7373314 L35.9122048,27.5738566 L35.2293713,26.7373314 L36.0829929,26.7373314 Z M36.4927568,25.0513823 L36.2881935,25.8879075 L34.5806316,25.8879075 L33.9318919,25.0513823 L36.4927568,25.0513823 Z M36.8684267,23.3654332 L36.6976387,24.2019584 L33.2831522,24.2019584 L32.6,23.3654332 L36.8684267,23.3654332 Z M44.2438578,17.4578473 L43.0830725,22.5160093 L37.9269303,22.5160093 L38.1318122,21.6486531 L39.122128,17.4578473 L44.2438578,17.4578473 Z M35.0244893,12.9879901 L36.971027,15.468937 L38.1318122,16.9485076 L38.3366942,17.2096268 L38.1318122,18.0700617 L37.0733087,22.5160093 L32.8052006,22.5160093 L35.0244893,12.9879901 Z M46.121889,12.4 L49.4,16.6216367 L38.9172461,16.6216367 L38.1318122,15.6205749 L36.971027,14.1406898 L35.6050413,12.4 L46.121889,12.4 Z" id="形状结合"></path>
        </g>
    </g>
</svg>