<?xml version="1.0" encoding="utf-8"?>
<!-- Generator: Adobe Illustrator 25.3.1, SVG Export Plug-In . SVG Version: 6.00 Build 0)  -->
<svg version="1.1" id="图层_1" xmlns="http://www.w3.org/2000/svg" xmlns:xlink="http://www.w3.org/1999/xlink" x="0px" y="0px"
	 viewBox="0 0 110 15" style="enable-background:new 0 0 110 15;" xml:space="preserve">
<style type="text/css">
	.st0{fill:#FFFFFF;}
</style>
<g id="页面-1">
	<g id="画板" transform="translate(-208.000000, -32.000000)">
		<path id="title" class="st0" d="M215.4,32.5l-0.3,2.2h-2l-0.9,2.6h2.6l-1.3,9.3h-5.3l0.7-5.3H208l2.3-6.7h-1.1l0.3-2.2H215.4z
			 M221.2,45.7l0.2-1.9h-3.2L217,47h-2.8l2.3-5.5h-1.9l0.3-2h3.7l0.2-1.1h2.8l-0.2,1.1h3.6l-0.3,2h-5.4l-0.3,0.7h5.3l-0.5,3.9
			c0,0.3-0.2,0.5-0.4,0.7c-0.2,0.2-0.4,0.3-0.7,0.3H220L221.2,45.7z M219.7,36.4h1.7l0.4-1.2h2.5l-0.4,1.2h1.5l-0.4,2.7h-2.7
			l0.2-1.2h-4.8l-0.2,1.2h-2.7l0.4-2.7h1.9l0-1.2h2.4L219.7,36.4z M219.5,33.2l0.1-0.4L219,32h3.5l-0.2,1.1h3l-0.2,1.7h-8.9l0.2-1.7
			H219.5z M211.5,44.7l0.7-5.3h-0.7l-0.7,5.3H211.5z M231.6,37.6l-1.9,9.3h-3.5l2.9-13.2l-0.6-0.8h6.6l0.1-0.3l-0.5-0.6h4.5L239,33
			h5.2l-0.6,4.7H231.6z M238.9,46l0.3-2.6h-3.8l-1.5,3.5h-3.6l2.7-6.1h-1.5l0.2-1.8h4.1l0.1-1h3.6l-0.1,1h4.1l-0.2,1.8h-6.8
			l-0.3,0.6h6.6l-0.6,4.6c0,0.3-0.2,0.5-0.5,0.7c-0.3,0.2-0.7,0.3-1.1,0.3h-2.8L238.9,46z M232.2,34.8l-0.2,0.9h8.3l0.1-0.9H232.2z
			 M259.7,39.5l-0.4,3.2h-9.6l-0.1,0.6h9.9L259,47h-13.7l1-7.5h-1.5l0.4-3.2h6.2l-0.1-0.6h4.4l0.1,0.6h6.2l-0.4,3.2H259.7z
			 M258.3,32.8h4.1l-0.2,1.6h-1.9l0.6,1.2h-3.1l-0.6-1l-0.6,1h-3.4l1.7-3l-0.4-0.5h4.2L258.3,32.8z M250.3,32.8h3.8l-0.2,1.6h-1.6
			l0.6,1.2h-3.1l-0.6-1l-0.6,1h-3.4l1.7-3l-0.4-0.5h4.2L250.3,32.8z M248.7,38.9h9.2l0.1-0.6h-9.2L248.7,38.9z M249.4,44.9l-0.1,0.6
			h6.1l0.1-0.6H249.4z M250,40.5l-0.1,0.6h5.7l0.1-0.6H250z M273.2,41.5l0.2-1.2H270l1.1-7.9h10.1l-1.1,7.9h-3.7l-0.2,1.2h3.7
			l-0.3,2H276l-0.2,1.2h4.1l-0.3,2h-10.9l0.3-2h3.8l0.2-1.2h-3.4l0.3-2H273.2z M265.3,37.8l0.5-3.5h-1l0.2-1.9h5.3l-0.2,1.9H269
			l-0.5,3.5h1.2l-0.3,2.1h-1.2l-0.5,3.9l1.2-0.2l-0.3,2l-5.5,1l0.3-2l1.1-0.2l0.6-4.6h-1l0.3-2.1H265.3z M272.9,35.4h1.1l0.1-1.1
			H273L272.9,35.4z M277.8,38.4l0.1-1.1h-1.1l-0.2,1.1H277.8z M277.2,34.3l-0.1,1.1h1.1l0.2-1.1H277.2z M273.6,38.4l0.2-1.1h-1.1
			l-0.1,1.1H273.6z M299.5,34l-9,0.4l-1.5,1.1h9.6l-0.3,2.2h-7.9l-2.6,1.7h6.7l-0.1-0.8h3.8l0.3,3.2h-3.8l0-0.4h-2.2l-0.6,4.3
			c-0.1,0.4-0.2,0.7-0.5,1s-0.6,0.4-1,0.4h-4l1.8-1.9l0.5-3.7h-5.3l0.3-2l2.8-1.7h-2.6l0.3-2.2l1.5-0.9l-2.2,0.1l0.3-2.2l16.1-0.4
			L299.5,34z M298.2,46.3h-3.4l-1.4-4h3.4L298.2,46.3z M284.8,46.3h-3.4l2.4-4h3.4L284.8,46.3z M316.8,36.8l0.7,3.6h-2.7l-0.1-0.4
			l-7.5,0.4l0.3-2l1.9-3.2h-1.9l0.3-2h3.2l0.1-0.4l-0.6-0.8h4.6l-0.2,1.2h3.3l-0.3,2h-4.6l-1.8,3l3-0.1l-0.2-1.2H316.8z M301.4,37.2
			l2.6-4.2l-0.4-0.5h4.2l-2.9,4.7h2.3l-2.9,4.7h2.3l-0.3,2h-5.7l0.3-2l1.7-2.8h-1.3L301.4,37.2z M315.1,40.7l-0.5,3.6h1.5l0.9-0.8
			l-0.4,3.2h-5.3l0.8-5.9H315.1z M311.3,40.7l-1.9,5.9h-3.1l1.9-5.9H311.3z M305.9,46.6l-5.8,0.4l0.3-1.9l5.8-0.4L305.9,46.6z"/>
	</g>
</g>
</svg>
