<?xml version="1.0" encoding="UTF-8"?>
<svg width="16px" height="16px" viewBox="0 0 16 16" version="1.1" xmlns="http://www.w3.org/2000/svg" xmlns:xlink="http://www.w3.org/1999/xlink">
    <title>1.Icon/扩展/二维码扫码器</title>
    <g id="二期" stroke="none" stroke-width="1" fill="none" fill-rule="evenodd">
        <g id="切图" transform="translate(-435.000000, -124.000000)" fill="#FFFFFF">
            <g id="1.Icon/扩展/二维码扫码器" transform="translate(435.000000, 124.000000)">
                <path d="M6.79903148,8.54634146 C7.11998063,8.54634146 7.38014528,8.80840976 7.38014528,9.13170732 L7.38014528,15.4146341 C7.38014528,15.7379317 7.11998063,16 6.79903148,16 L0.581113801,16 C0.260164649,16 0,15.7379317 0,15.4146341 L0,9.13170732 C0,8.80840976 0.260164649,8.54634146 0.581113801,8.54634146 L6.79903148,8.54634146 Z M9.80145278,14.2243902 C10.188862,14.2243902 10.3825666,14.4195122 10.3825666,14.8097561 L10.3825666,15.4146341 C10.3825666,15.804878 10.188862,16 9.80145278,16 L9.20096852,16 C8.81355932,16 8.61985472,15.804878 8.61985472,15.4146341 L8.61985472,14.8097561 C8.61985472,14.4195122 8.81355932,14.2243902 9.20096852,14.2243902 L9.80145278,14.2243902 Z M12.7263923,16 C12.4054431,16 12.1452785,15.7379317 12.1452785,15.4146341 L12.1452785,14.8097561 C12.1452785,14.4864585 12.4054431,14.2243902 12.7263923,14.2243902 L14.237,14.224 L14.2372881,12.702439 C14.2372881,12.3121951 14.4309927,12.1170732 14.8184019,12.1170732 L15.4188862,12.1170732 C15.8062954,12.1170732 16,12.3121951 16,12.702439 L15.9998759,14.7975345 C15.9999585,14.8015983 16,14.8056723 16,14.8097561 L16,15.4146341 L15.998,15.44 L15.9941889,15.5258537 C15.9631961,15.8068293 15.8082324,15.9629268 15.5292978,15.9941463 L15.4188862,16 L12.7263923,16 Z M5.42969492,9.92930732 L1.95045036,9.92930732 C1.62950121,9.92930732 1.36933656,10.1913951 1.36933656,10.5146732 L1.36933656,14.0316683 C1.36933656,14.3549463 1.62950121,14.6170341 1.95045036,14.6170341 L5.42969492,14.6170341 C5.75064407,14.6170341 6.01080872,14.3549463 6.01080872,14.0316683 L6.01080872,10.5146732 C6.01080872,10.1913951 5.75064407,9.92930732 5.42969492,9.92930732 Z M11.5641646,10.3414634 C11.9515738,10.3414634 12.1452785,10.5365854 12.1452785,10.9268293 L12.1452785,13.6390244 C12.1452785,14.0292683 11.9515738,14.2243902 11.5641646,14.2243902 L10.9636804,14.2243902 C10.5762712,14.2243902 10.3825666,14.0292683 10.3825666,13.6390244 L10.3825666,10.9268293 C10.3825666,10.5365854 10.5762712,10.3414634 10.9636804,10.3414634 L11.5641646,10.3414634 Z M4.32712833,11.0428683 C4.64805811,11.0428683 4.90824213,11.3049366 4.90824213,11.6282341 L4.90824213,12.9181073 C4.90824213,13.2414049 4.64805811,13.5034732 4.32712833,13.5034732 L3.05301695,13.5034732 C2.73208717,13.5034732 2.47190315,13.2414049 2.47190315,12.9181073 L2.47190315,11.6282341 C2.47190315,11.3049366 2.73208717,11.0428683 3.05301695,11.0428683 L4.32712833,11.0428683 Z M9.80145278,8.56585366 C10.188862,8.56585366 10.3825666,8.76097561 10.3825666,9.15121951 L10.3825666,9.75609756 C10.3825666,10.1463415 10.188862,10.3414634 9.80145278,10.3414634 L9.20096852,10.3414634 C8.81355932,10.3414634 8.61985472,10.1463415 8.61985472,9.75609756 L8.61985472,9.15121951 C8.61985472,8.76097561 8.81355932,8.56585366 9.20096852,8.56585366 L9.80145278,8.56585366 Z M15.4188862,8.56585366 C15.8062954,8.56585366 16,8.76097561 16,9.15121951 L16,9.75609756 C16,10.1463415 15.8062954,10.3414634 15.4188862,10.3414634 L14.8184019,10.3414634 C14.4309927,10.3414634 14.2372881,10.1463415 14.2372881,9.75609756 L14.2372881,9.15121951 C14.2372881,8.76097561 14.4309927,8.56585366 14.8184019,8.56585366 L15.4188862,8.56585366 Z M6.79903148,0 C7.11998063,0 7.38014528,0.262068293 7.38014528,0.585365854 L7.38014528,6.86829268 C7.38014528,7.19159024 7.11998063,7.45365854 6.79903148,7.45365854 L0.581113801,7.45365854 C0.260164649,7.45365854 0,7.19159024 0,6.86829268 L0,0.585365854 C0,0.262068293 0.260164649,0 0.581113801,0 L6.79903148,0 Z M15.4188862,0 C15.7398354,0 16,0.262068293 16,0.585365854 L16,6.86829268 C16,7.19159024 15.7398354,7.45365854 15.4188862,7.45365854 L9.20096852,7.45365854 C8.88001937,7.45365854 8.61985472,7.19159024 8.61985472,6.86829268 L8.61985472,0.585365854 C8.61985472,0.262068293 8.88001937,0 9.20096852,0 L15.4188862,0 Z M5.42969492,1.38296585 L1.95045036,1.38296585 C1.62950121,1.38296585 1.36933656,1.64505366 1.36933656,1.96833171 L1.36933656,5.48532683 C1.36933656,5.80860488 1.62950121,6.07069268 1.95045036,6.07069268 L5.42969492,6.07069268 C5.75064407,6.07069268 6.01080872,5.80860488 6.01080872,5.48532683 L6.01080872,1.96833171 C6.01080872,1.64505366 5.75064407,1.38296585 5.42969492,1.38296585 Z M14.0495496,1.38296585 L10.5703051,1.38296585 C10.2493559,1.38296585 9.98919128,1.64505366 9.98919128,1.96833171 L9.98919128,5.48532683 C9.98919128,5.80860488 10.2493559,6.07069268 10.5703051,6.07069268 L14.0495496,6.07069268 C14.3704988,6.07069268 14.6306634,5.80860488 14.6306634,5.48532683 L14.6306634,1.96833171 C14.6306634,1.64505366 14.3704988,1.38296585 14.0495496,1.38296585 Z M4.32712833,2.49652683 C4.64805811,2.49652683 4.90824213,2.75859512 4.90824213,3.08189268 L4.90824213,4.37176585 C4.90824213,4.69506341 4.64805811,4.95713171 4.32712833,4.95713171 L3.05301695,4.95713171 C2.73208717,4.95713171 2.47190315,4.69506341 2.47190315,4.37176585 L2.47190315,3.08189268 C2.47190315,2.75859512 2.73208717,2.49652683 3.05301695,2.49652683 L4.32712833,2.49652683 Z M12.9469831,2.49652683 C13.2679128,2.49652683 13.5280969,2.75859512 13.5280969,3.08189268 L13.5280969,4.37176585 C13.5280969,4.69506341 13.2679128,4.95713171 12.9469831,4.95713171 L11.6728717,4.95713171 C11.3519419,4.95713171 11.0917579,4.69506341 11.0917579,4.37176585 L11.0917579,3.08189268 C11.0917579,2.75859512 11.3519419,2.49652683 11.6728717,2.49652683 L12.9469831,2.49652683 Z" id="形状结合"></path>
            </g>
        </g>
    </g>
</svg>