<?xml version="1.0" encoding="UTF-8"?>
<svg width="29px" height="32px" viewBox="0 0 29 32" version="1.1" xmlns="http://www.w3.org/2000/svg" xmlns:xlink="http://www.w3.org/1999/xlink">
    <title>jinru备份</title>
    <g id="页面-1" stroke="none" stroke-width="1" fill="none" fill-rule="evenodd">
        <g id="手动开闸" transform="translate(-1067.000000, -114.000000)" fill="#FFFFFF">
            <path d="M1074.40022,123.394503 L1067.83602,129.251135 C1067.42392,129.618816 1067.3879,130.250956 1067.75559,130.663059 C1067.78077,130.691283 1067.80753,130.718055 1067.83574,130.743247 L1074.29728,136.512552 C1074.70922,136.880363 1075.34134,136.844587 1075.70915,136.432644 C1075.87277,136.249395 1075.9632,136.012327 1075.9632,135.766663 L1075.9632,134.533327 C1075.9632,133.981042 1076.41092,133.533327 1076.9632,133.533327 L1082.71868,133.533327 C1083.27096,133.533327 1083.71868,133.085612 1083.71868,132.533327 L1083.71868,127.189295 C1083.71868,126.63701 1083.27096,126.189295 1082.71868,126.189295 L1076.9632,126.189295 C1076.41092,126.189295 1075.9632,125.74158 1075.9632,125.189295 L1075.9632,124.094648 C1075.9632,123.576435 1075.54311,123.156341 1075.02489,123.156341 C1074.79449,123.156341 1074.57214,123.241113 1074.40022,123.394503 Z M1092.31072,146 L1075.1107,146 C1073.36789,145.996339 1071.84638,144.699957 1071.83571,142.935674 L1071.83571,138.717827 L1073.69642,138.717827 L1073.69642,142.935674 C1073.69642,143.532102 1074.26423,144.132145 1075.11436,144.135628 L1092.31421,144.135628 C1093.16416,144.132145 1093.72849,143.524914 1093.73215,142.935674 L1093.73215,117.064326 C1093.73215,116.467898 1093.16416,115.867855 1092.31421,115.864372 L1075.1107,115.864372 C1074.26075,115.871515 1073.69294,116.475041 1073.69294,117.064326 L1073.69294,120.685655 L1071.83205,120.685655 L1071.83205,117.064326 C1071.84638,115.300043 1073.36423,114.003482 1075.10722,114 L1092.30706,114 C1094.05005,114.003482 1095.56791,115.300043 1095.58201,117.064326 L1095.58201,142.939156 C1095.57139,144.699957 1094.05353,145.996339 1092.31072,146 Z" id="jinru备份"></path>
        </g>
    </g>
</svg>