<?xml version="1.0" encoding="UTF-8"?>
<svg width="16px" height="17px" viewBox="0 0 16 17" version="1.1" xmlns="http://www.w3.org/2000/svg" xmlns:xlink="http://www.w3.org/1999/xlink">
    <title>删除-红</title>
    <g id="页面-1" stroke="none" stroke-width="1" fill="none" fill-rule="evenodd">
        <g id="画板" transform="translate(-438.000000, -265.000000)" fill="#F54E4E">
            <g id="删除-红" transform="translate(438.000000, 265.000000)">
                <path d="M15.9989295,2.48064229 L15.9989295,3.78064229 L14.749,3.78 L13.8215433,13.9618198 C13.8215433,15.1168703 12.9243341,16.0642991 11.7895211,16.1445007 L11.6333631,16.15 L4.36842106,16.15 C3.21337056,16.15 2.26594179,15.2527908 2.18628216,14.1298948 L2.18086022,13.9754368 L1.251,3.78 L3.96127575e-13,3.78064229 L3.96127575e-13,2.48064229 L15.9989295,2.48064229 Z M13.424,3.78 L2.577,3.78 L3.50504015,13.9618198 C3.50504015,14.4018116 3.83455575,14.7651727 4.26015468,14.8184709 L4.36842106,14.8252007 L11.6333631,14.8252007 C12.0733548,14.8252007 12.4367159,14.4956851 12.4905013,14.0593761 L12.4973633,13.9482029 L13.424,3.78 Z M6.81195362,6.14023194 L6.81195362,12.3404103 L5.78715434,12.3404103 L5.78715434,6.14023194 L6.81195362,6.14023194 Z M10.2146298,6.14023194 L10.2146298,12.3404103 L9.18983051,12.3404103 L9.18983051,6.14023194 L10.2146298,6.14023194 Z M3.66619091,3.37896378e-12 L12.3384478,3.37896378e-12 L12.3384478,1.3 L3.66619091,1.3 L3.66619091,3.37896378e-12 Z" id="形状结合"></path>
            </g>
        </g>
    </g>
</svg>