<?xml version="1.0" encoding="utf-8"?>
<!-- Generator: Adobe Illustrator 25.3.1, SVG Export Plug-In . SVG Version: 6.00 Build 0)  -->
<svg version="1.1" id="图层_1" xmlns="http://www.w3.org/2000/svg" xmlns:xlink="http://www.w3.org/1999/xlink" x="0px" y="0px"
	 viewBox="0 0 16 16" style="enable-background:new 0 0 16 16;" xml:space="preserve">
<style type="text/css">
	.st0{fill-rule:evenodd;clip-rule:evenodd;fill:#192131;}
</style>
<g id="_x31_.Icon_x2F_通用_x2F_删除">
	<path id="形状结合" class="st0" d="M16,2.5v1.3l-1.2,0L13.8,14c0,1.2-0.9,2.1-2,2.2l-0.2,0H4.4c-1.2,0-2.1-0.9-2.2-2l0-0.2
		L1.3,3.8L0,3.8V2.5H16z M13.4,3.8H2.6L3.5,14c0,0.4,0.3,0.8,0.8,0.9l0.1,0h7.3c0.4,0,0.8-0.3,0.9-0.8l0-0.1L13.4,3.8z M6.8,6.1v6.2
		h-1V6.1H6.8z M10.2,6.1v6.2h-1V6.1H10.2z M3.7,0h8.7v1.3H3.7V0z"/>
</g>
</svg>
