<?xml version="1.0" encoding="UTF-8"?>
<svg width="58px" height="52px" viewBox="0 0 58 52" version="1.1" xmlns="http://www.w3.org/2000/svg" xmlns:xlink="http://www.w3.org/1999/xlink">
    <title>jiankong</title>
    <defs>
        <polygon id="path-1" points="0 0 56.7906899 0 56.7906899 52 0 52"></polygon>
    </defs>
    <g id="页面-1" stroke="none" stroke-width="1" fill="none" fill-rule="evenodd">
        <g id="门禁设备" transform="translate(-207.000000, -152.000000)">
            <g id="jiankong" transform="translate(207.000000, 152.000000)">
                <g id="编组">
                    <mask id="mask-2" fill="white">
                        <use xlink:href="#path-1"></use>
                    </mask>
                    <g id="Clip-2"></g>
                    <polygon id="Fill-1" fill="#515E8B" mask="url(#mask-2)" points="6.27200782 46.1703315 1.10640705 50.8891233 1.10640705 27.1613932 6.27200782 28.4768379"></polygon>
                    <path d="M1.10640705,52 C0.953001023,52 0.806139894,51.9682333 0.659278765,51.9043008 C0.257086792,51.725673 -0.00478894987,51.3297067 -0.00478894987,50.8891233 L-0.00478894987,27.1613932 C-0.00478894987,26.8165888 0.154842712,26.4973255 0.422944089,26.2865319 C0.691125281,26.0758181 1.04247457,26.0056599 1.37450843,26.0885886 L6.5401092,27.4104984 C7.03177472,27.5380441 7.37657911,27.9785477 7.37657911,28.4830635 L7.37657911,46.1765571 C7.37657911,46.4895948 7.24879396,46.7833171 7.01900419,46.9941107 L1.85340341,51.7129025 C1.64891525,51.8977559 1.38073406,52 1.10640705,52 Z M2.21728379,28.5853076 L2.21728379,48.3734081 L5.16735672,45.678666 L5.16735672,29.332304 L2.21728379,28.5853076 Z" id="Fill-3" fill="#25315C" mask="url(#mask-2)"></path>
                    <path d="M43.2170799,37.6525457 L9.08799016,18.5412834 C7.76600055,17.8005127 7.32549698,16.0638798 8.10465912,14.6718119 L14.8471813,2.62927915 C15.6263434,1.23090579 17.3376746,0.700928676 18.659345,1.4416994 L55.6748944,22.455372 L43.2170799,37.6525457 Z" id="Fill-4" fill="#F3F6FF" mask="url(#mask-2)"></path>
                    <path d="M43.2170799,38.7571169 C43.0318274,38.7571169 42.8466546,38.7122604 42.6742524,38.6165613 L8.54516269,19.505299 C7.63853467,18.9946373 6.99346312,18.151862 6.73150756,17.1235946 C6.47617672,16.1150418 6.61681221,15.0549279 7.14032425,14.1289845 L13.8831657,2.08645169 C14.4003722,1.16042842 15.2303771,0.483909431 16.2264786,0.177097376 C17.2416562,-0.13562105 18.3016903,-0.0333769705 19.2083981,0.477364533 L56.2301732,21.497582 C56.5110451,21.6572137 56.7156131,21.9381654 56.7729208,22.2574287 C56.8303084,22.576692 56.7473798,22.9087259 56.5431311,23.1640567 L44.072546,38.3546057 C43.8556065,38.6165613 43.5428881,38.7571169 43.2170799,38.7571169 Z M17.3760661,2.21431665 C17.2098895,2.21431665 17.0440322,2.23985771 16.8844005,2.2907004 C16.4372723,2.43125608 16.0606213,2.7439745 15.8177418,3.16556172 L9.07521963,15.2080147 C8.83888495,15.6361468 8.76872683,16.1212674 8.88342218,16.5746213 C8.99197171,17.0088993 9.26007309,17.3599293 9.63049836,17.5707229 L42.9488987,36.2286312 L53.9824796,22.7684097 L18.1165175,2.40571501 C17.8867277,2.28439495 17.6376225,2.21431665 17.3760661,2.21431665 Z" id="Fill-5" fill="#25315C" mask="url(#mask-2)"></path>
                </g>
                <path d="M39.6795625,39.7149069 L10.2627994,23.2407597 C9.6815805,22.9152708 9.4774116,22.181045 9.80290056,21.6061315 L10.9586338,19.5436904 L43.2170799,37.6076093 L42.4762294,38.9295989 C41.9209506,39.9191556 40.6695182,40.2701856 39.6795625,39.7149069 Z" id="Fill-6" fill="#AABCFF"></path>
                <path d="M40.094525,40.5449117 C39.3029115,40.5449117 38.5238292,40.340663 37.8151445,39.9446967 L10.4925892,24.645678 C9.74551298,24.2306357 9.20923041,23.5472525 8.97920118,22.7235532 C8.7494114,21.899774 8.85165548,21.0380024 9.26661799,20.2972317 L9.98807329,19.0074079 C10.2883404,18.4711253 10.9651787,18.2859526 11.4949164,18.5796748 L43.7532827,36.6435937 C44.0089328,36.78391 44.2004109,37.0267895 44.277114,37.3076614 C44.3600426,37.5886132 44.3216512,37.895106 44.1748699,38.1504368 C43.5618843,39.2423174 42.5657029,40.0276253 41.3653526,40.3662839 C40.9503901,40.4809793 40.5226571,40.5449117 40.094525,40.5449117 Z M11.380221,21.0508528 L11.1949685,21.3763417 C11.0671833,21.6061315 11.0353368,21.8680073 11.1054949,22.1233381 C11.175653,22.3724433 11.3418296,22.5832369 11.5716194,22.7107028 L38.8941747,38.0098013 C39.7307244,38.476245 40.726826,38.4057676 41.4739021,37.9013316 L11.380221,21.0508528 Z" id="Fill-7" fill="#25315C"></path>
                <polygon id="Fill-8" fill="#515E8B" points="22.2157788 30.1114661 18.7871301 28.1254088 14.323749 35.858206 6.64235328 35.858206 6.64235328 39.8169115 16.6096744 39.8169115"></polygon>
                <path d="M16.6096744,40.9281075 L6.64235328,40.9281075 C6.02944751,40.9281075 5.53115728,40.4298173 5.53115728,39.8169115 L5.53115728,35.858206 C5.53115728,35.2452204 6.02944751,34.74701 6.64235328,34.74701 L13.6852224,34.74701 L17.8293402,27.5701301 C18.135833,27.0401529 18.812751,26.861126 19.3424089,27.1613932 L22.7713768,29.1409056 C23.3014337,29.4473984 23.4800616,30.1242366 23.1801137,30.6542936 L17.5930055,40.3278925 C17.4012879,40.6855472 17.0374873,40.9281075 16.6096744,40.9281075 Z M7.75323002,38.7122604 L15.9711478,38.7122604 L20.7027101,30.5136581 L19.1893221,29.6387968 L15.281539,36.4072591 C15.0835159,36.7520634 14.7196356,36.9628571 14.323749,36.9628571 L7.75323002,36.9628571 L7.75323002,38.7122604 Z" id="Fill-9" fill="#25315C"></path>
                <g id="编组" transform="translate(17.356751, 7.303135)">
                    <path d="M0,1.39214773 C0,2.16101363 0.623202009,2.78389637 1.39206791,2.78389637 C2.16093381,2.78389637 2.78381656,2.16101363 2.78381656,1.39214773 C2.78381656,0.623281825 2.16093381,0 1.39206791,0 C0.623202009,0 0,0.623281825 0,1.39214773 Z" id="Fill-10" fill="#EA3934"></path>
                    <path d="M28.7530146,32.8139643 C28.5039094,32.8139643 28.2484988,32.7310356 28.0440106,32.5586334 C27.5716605,32.1688927 27.5139537,31.4668327 27.9036944,31.0007082 L37.813628,19.1430289 C38.2030494,18.6706788 38.9055085,18.6130518 39.371633,19.0027127 C39.8439831,19.3921341 39.9016101,20.0945933 39.5119492,20.5607177 L29.6019358,32.4117723 C29.3849964,32.6799535 29.065733,32.8139643 28.7530146,32.8139643 Z" id="Fill-12" fill="#25315C"></path>
                </g>
            </g>
        </g>
    </g>
</svg>