<?xml version="1.0" encoding="UTF-8"?>
<svg width="20px" height="20px" viewBox="0 0 20 20" version="1.1" xmlns="http://www.w3.org/2000/svg" xmlns:xlink="http://www.w3.org/1999/xlink">
    <title>编组 5</title>
    <g id="页面-1" stroke="none" stroke-width="1" fill="none" fill-rule="evenodd">
        <g id="手动开闸" transform="translate(-1115.000000, -10.000000)" fill="#FFFFFF">
            <g id="编组-5" transform="translate(1115.000000, 10.000000)">
                <path d="M7.14285714,7.14285714 C7.14285714,8.72081357 8.42204357,10 10,10 C11.5779564,10 12.8571429,8.72081357 12.8571429,7.14285714 C12.8571429,5.56490071 11.5779564,4.28571429 10,4.28571429 C8.42204357,4.28571429 7.14285714,5.56490071 7.14285714,7.14285714 Z M16.4285714,16.2936994 C16.4285714,15.9630258 16.2653879,15.6516414 15.9905525,15.4642597 C15.0458059,14.8166904 13.0103063,13.728223 9.99856857,13.728223 C7.21872316,13.728223 5.77011165,14.4970392 4.60492413,15.1142967 C4.498998,15.169409 4.3987976,15.2245213 4.29859719,15.276878 C3.84912683,15.5111051 3.57142857,15.9602702 3.57142857,16.453525 L3.57142857,17.8368432 C5.30346407,19.1898495 7.51073576,20 9.91268251,20 C12.3976524,20 14.6707701,19.1319817 16.4285714,17.6963069 L16.4285714,16.2936994 L16.4285714,16.2936994 Z" id="形状结合" opacity="0.746903326"></path>
                <path d="M3.9394066,14.0767528 C4.03597461,14.0261313 4.13538285,13.9698852 4.23763133,13.9164515 C5.43053022,13.2668095 7.06650586,12.3753094 10.0885164,12.3753094 C13.3661481,12.3753094 15.6099342,13.5817874 16.6324189,14.3382969 C17.3367973,14.858573 17.4844896,15.6403932 17.5072115,16.0903617 C17.5128919,16.2112908 17.6634244,16.2590999 17.7401108,16.1662939 C19.214193,14.3832938 20.0719441,12.0856422 19.9952577,9.5855048 C19.8305241,4.33212273 15.4622419,0.079920529 10.1538418,0.00117604393 C4.56141817,-0.0831930473 0,4.38274418 0,9.90048274 C0,12.3696848 0.914555822,14.6279642 2.42556109,16.3603428 C2.52780957,16.4784596 2.72094558,16.436275 2.76354912,16.2872229 C2.93964371,15.6628917 3.35715833,14.3889184 3.9394066,14.0767528 Z M10,2.85714286 C12.3659711,2.85714286 14.2857143,4.77688604 14.2857143,7.14285714 C14.2857143,9.50882825 12.3659711,11.4285714 10,11.4285714 C7.63402889,11.4285714 5.71428571,9.50882825 5.71428571,7.14285714 C5.71428571,4.77688604 7.63081862,2.85714286 10,2.85714286 Z" id="形状" opacity="0.200000003"></path>
            </g>
        </g>
    </g>
</svg>