<?xml version="1.0" encoding="UTF-8"?>
<svg width="16px" height="17px" viewBox="0 0 16 17" version="1.1" xmlns="http://www.w3.org/2000/svg" xmlns:xlink="http://www.w3.org/1999/xlink">
    <title>完成line-白</title>
    <g id="页面-1" stroke="none" stroke-width="1" fill="none" fill-rule="evenodd">
        <g id="画板" transform="translate(-272.000000, -235.000000)" fill="#FFFFFF">
            <g id="1.Icon/通用/状态正确line" transform="translate(272.000000, 235.769231)">
                <path d="M11.0686195,0.612127269 C14.0576383,1.85358017 16.0041191,4.77376385 15.9999869,8.01033982 C15.9887147,12.4222177 12.4119924,15.9943667 8.00010437,15.9999869 C4.76352621,15.9999869 1.84583605,14.049768 0.608209055,11.0591627 C-0.629417935,8.06855739 0.056894583,4.62686643 2.34696471,2.33972445 C4.63703485,0.0525824662 8.07960069,-0.629325636 11.0686195,0.612127269 Z M7.99999673,1.14285668 C4.21290285,1.14285668 1.14285668,4.21290285 1.14285668,7.99999673 C1.14285668,11.7870906 4.21290285,14.8571368 7.99999673,14.8571368 C11.7870906,14.8571368 14.8571368,11.7870906 14.8571368,7.99999673 C14.8516236,4.21518884 11.7848046,1.14836988 7.99999673,1.14285668 Z M12.445193,4 L13,4.47931801 L6.21910253,12 L6.21908686,11.9996318 L3,8.48633948 L3.56859489,7.561417 L6.21910253,9.68449426 L12.445193,4 Z" id="形状结合"></path>
            </g>
        </g>
    </g>
</svg>