<?xml version="1.0" encoding="UTF-8"?>
<svg width="14px" height="16px" viewBox="0 0 14 16" version="1.1" xmlns="http://www.w3.org/2000/svg" xmlns:xlink="http://www.w3.org/1999/xlink">
    <title>形状</title>
    <g id="页面-1" stroke="none" stroke-width="1" fill="none" fill-rule="evenodd">
        <g id="登录" transform="translate(-94.000000, -249.000000)" fill="#D8D8D8">
            <path d="M106.030234,255.300813 L106.030234,253.674797 C106.030234,251.092978 103.778122,249 101,249 C98.2218784,249 95.9697659,251.092978 95.9697659,253.674797 L95.9697659,255.300813 C95.1442918,255.413049 94.4519612,255.937772 94.1676299,256.666667 C94.1676299,256.666667 94.1676299,257.016051 94.1676299,257.714819 L95.3923826,257.714819 C95.3923826,257.308734 95.3923826,257.105691 95.3923826,257.105691 C95.5126487,256.748816 95.8648828,256.503307 96.2672059,256.495935 L105.759039,256.495935 C106.312153,256.547402 106.722093,256.996663 106.686352,257.512195 L106.686352,262.764228 C106.722093,263.27976 106.312153,263.729021 105.759039,263.780488 L96.2409612,263.780488 C95.687847,263.729021 95.277907,263.27976 95.3136485,262.764228 L95.3136485,260.747967 L102.207256,260.747967 C102.382688,260.746598 102.550009,260.679118 102.670913,260.560976 C102.699494,260.538858 102.725847,260.514367 102.749647,260.487805 C102.784046,260.45062 102.813425,260.409666 102.837129,260.365854 C102.84437,260.314583 102.84437,260.262653 102.837129,260.211382 C102.838842,260.187018 102.838842,260.162576 102.837129,260.138211 C102.847474,260.076251 102.847474,260.013179 102.837129,259.95122 L102.837129,259.845528 C102.809824,259.792345 102.774473,259.743066 102.73215,259.699187 C100.949132,258.192857 100.057622,257.439692 100.057622,257.439692 C100.057622,257.439692 99.258545,258.358855 99.258545,258.358855 C99.258545,258.358855 99.7194708,258.746012 100.641322,259.520325 L94.657531,259.520325 C94.2951673,259.520325 94.0014135,259.793322 94.0014135,260.130081 L94.0014135,262.764228 C93.9571277,263.955795 94.9589098,264.955888 96.2409612,265 L105.759039,265 C107.04109,264.955888 108.042872,263.955795 107.998587,262.764228 L107.998587,257.512195 C108.031266,256.42088 107.189833,255.475557 106.030234,255.300813 Z M101,250.203252 C103.053394,250.203252 104.717999,251.750236 104.717999,253.658537 L104.717999,255.284553 L97.2820009,255.284553 L97.2820009,253.658537 C97.2820009,251.750236 98.9466058,250.203252 101,250.203252 Z" id="形状"></path>
        </g>
    </g>
</svg>