<?xml version="1.0" encoding="utf-8"?>
<!-- Generator: Adobe Illustrator 25.3.1, SVG Export Plug-In . SVG Version: 6.00 Build 0)  -->
<svg version="1.1" id="图层_1" xmlns="http://www.w3.org/2000/svg" xmlns:xlink="http://www.w3.org/1999/xlink" x="0px" y="0px"
	 viewBox="0 0 16 16" style="enable-background:new 0 0 16 16;" xml:space="preserve">
<style type="text/css">
	.st0{fill-rule:evenodd;clip-rule:evenodd;}
</style>
<g id="控件">
	<g id="全局_x2F_left_x2F_组合" transform="translate(-28.000000, -313.000000)">
		<g id="车辆白名单" transform="translate(8.000000, 301.000000)">
			<g id="_x31_.Icon_x2F_多色_x2F_卡片-默认" transform="translate(20.000000, 12.000000)">
				<path id="形状" class="st0" d="M8,8.5c1.5,0,2.7-1.2,2.7-2.7S9.5,3.2,8,3.2S5.3,4.4,5.3,5.9S6.5,8.5,8,8.5z M8,4.3
					c0.9,0,1.6,0.7,1.6,1.6c0,0.9-0.7,1.6-1.6,1.6c-0.9,0-1.6-0.7-1.6-1.6S7.1,4.3,8,4.3z M13.6,12.5c-0.1-0.1-0.3-0.2-0.4-0.2h-1.7
					v1.1h1.5l1.4,1.5H1.8l1.4-1.5h1.5v-1.1H2.9c-0.2,0-0.3,0.1-0.4,0.2L0,14.9V16h16v-1.1L13.6,12.5z M7.6,13.8
					c0.1,0.1,0.2,0.2,0.4,0.2c0.1,0,0.3-0.1,0.4-0.2l3.8-3.8l0,0c2.3-2.3,2.3-6,0-8.3c-2.3-2.3-6-2.3-8.3,0c-2.3,2.3-2.3,6,0,8.3
					c0,0,0,0,0,0L7.6,13.8z M4.6,2.5c1.9-1.9,4.9-1.9,6.8,0c1.9,1.9,1.9,4.9,0,6.8L8,12.7L4.6,9.3C2.7,7.4,2.7,4.4,4.6,2.5z"/>
			</g>
		</g>
	</g>
</g>
</svg>
