<?xml version="1.0" encoding="utf-8"?>
<!-- Generator: Adobe Illustrator 25.3.1, SVG Export Plug-In . SVG Version: 6.00 Build 0)  -->
<svg version="1.1" id="图层_1" xmlns="http://www.w3.org/2000/svg" xmlns:xlink="http://www.w3.org/1999/xlink" x="0px" y="0px"
	 viewBox="0 0 16 16" style="enable-background:new 0 0 16 16;" xml:space="preserve">
<style type="text/css">
	.st0{fill-rule:evenodd;clip-rule:evenodd;}
</style>
<g id="控件">
	<g id="全局_x2F_left_x2F_组合" transform="translate(-28.000000, -271.000000)">
		<g id="磅单管理" transform="translate(8.000000, 259.000000)">
			<g id="_x31_.Icon_x2F_多色_x2F_卡片-默认" transform="translate(20.000000, 12.000000)">
				<path id="形状结合" class="st0" d="M1.7,3.5l0.5,1.3l-1,0v9.8h12.1l0-6.8h1.3V16H0V3.5H1.7z M12.3,11.2v1.3H2.2v-1.3H12.3z
					 M12.3,8.7v1.3H5.8V8.7H12.3z"/>
				<path id="形状结合_1_" class="st0" d="M10.9,2.1l1,0.7L9.6,6.3c0,0.1,0.1,0.2,0.1,0.3c0,0.6-0.4,1-1,1c-0.6,0-1-0.4-1-1
					s0.4-1,1-1l-0.1,0L10.9,2.1z M8.6,0c2.5,0,4.9,0.6,7.4,1.7l-2.5,5.6c-1.1-0.5-2.1-0.8-3.3-0.9l0.3-1.2c0.7,0.1,1.4,0.3,2.1,0.5
					l0.2,0.1l1.5-3.4l-0.3-0.1c-1.7-0.7-3.5-1-5.2-1l-0.3,0c-1.8,0-3.6,0.3-5.3,1L2.9,2.3l1.5,3.4l0.1,0C5.2,5.4,6,5.3,6.8,5.2
					l0.3,1.2c-1.2,0.1-2.3,0.5-3.3,1L1.3,1.7C3.7,0.6,6.1,0,8.6,0z"/>
			</g>
		</g>
	</g>
</g>
</svg>
