<?xml version="1.0" encoding="UTF-8"?>
<svg width="16px" height="16px" viewBox="0 0 16 16" version="1.1" xmlns="http://www.w3.org/2000/svg" xmlns:xlink="http://www.w3.org/1999/xlink">
    <title>导航-地磅点</title>
    <g id="页面-1" stroke="none" stroke-width="1" fill="none" fill-rule="evenodd">
        <g id="画板" transform="translate(-159.000000, -174.000000)" fill="#FFFFFF">
            <g id="1.Icon/多色/卡片-默认" transform="translate(159.000000, 174.000000)">
                <path d="M7.99999389,8.53750483 C9.47693815,8.53750483 10.6783934,7.34155755 10.6783934,5.87172038 C10.6783934,4.40188322 9.47693815,3.20611361 7.99999389,3.20611361 C6.52304963,3.20611361 5.32141666,4.40188322 5.32141666,5.87180922 C5.32141666,7.34173522 6.52304963,8.53750483 7.99999389,8.53750483 Z M7.99999389,4.27244516 C8.88722651,4.27342239 9.60619854,4.9889297 9.60717576,5.87180922 C9.60717576,6.75513294 8.88749303,7.47126212 7.99999389,7.47126212 C7.11231708,7.47126212 6.39290086,6.75513294 6.39290086,5.87180922 C6.39290086,4.98848551 7.11231708,4.27244516 7.99999389,4.27244516 Z M13.5891481,12.4696857 C13.4804159,12.3430512 13.3163172,12.2694464 13.1429141,12.2695225 L11.4092699,12.2695225 L11.4092699,13.3356859 L12.8681992,13.3356859 L14.2396889,14.8081773 L1.76020324,14.8081773 L3.13178772,13.3356859 L4.59071792,13.3356859 L4.59071792,12.2695225 L2.85707283,12.2695225 C2.68369354,12.2694346 2.51961865,12.3430444 2.41093356,12.4696857 L-9.09494702e-13,14.9352276 L-9.09494702e-13,16 L16,16 L16,14.9352276 L13.5891481,12.4696857 Z M7.62127429,13.788497 C7.72191358,13.8886151 7.85812538,13.9446756 8.00008273,13.9446756 C8.14204008,13.9446756 8.27825188,13.8886151 8.37889117,13.788497 L12.1670644,10.0186245 L12.1712398,10.0143603 C14.4726077,7.72178741 14.4706533,4.00672845 12.1670644,1.71646541 C9.86329789,-0.573797629 6.13038234,-0.571932015 3.82901446,1.72072967 C1.52764657,4.01330252 1.52960103,7.72845031 3.83327872,10.0186245 C3.83452246,10.0201348 3.83612156,10.0217339 3.83772066,10.023333 L7.62127429,13.788497 Z M4.59071792,2.47905726 C6.47356645,0.605181456 9.5263325,0.605181456 11.4092699,2.47905726 C13.2920295,4.35284423 13.2920295,7.39086305 11.4092699,9.26473886 L7.99999389,12.6575797 L4.59071792,9.26473886 C2.7078694,7.39086305 2.7078694,4.35284423 4.59071792,2.47905726 Z" id="形状"></path>
            </g>
        </g>
    </g>
</svg>