<?xml version="1.0" encoding="UTF-8"?>
<svg width="16px" height="16px" viewBox="0 0 16 16" version="1.1" xmlns="http://www.w3.org/2000/svg" xmlns:xlink="http://www.w3.org/1999/xlink">
    <title>导航-过磅</title>
    <g id="页面-1" stroke="none" stroke-width="1" fill="none" fill-rule="evenodd">
        <g id="画板" transform="translate(-41.000000, -174.000000)" fill="#FFFFFF">
            <g id="1.Icon/多色/过磅-默认" transform="translate(41.000000, 174.000000)">
                <path d="M0,14.56 L16,14.56 L16,16 L0,16 L0,14.56 Z M2.74022114,6.87623438 L2.17579926,6.87623438 L2.17579926,2.98151563 L2.74022114,2.98151563 L2.74022114,6.87623438 Z M2.76162739,4.94225 L4.23017426,2.98151563 L4.90961176,2.98151563 L3.39825239,4.9155 L4.87215864,6.87623438 L4.16329926,6.87623438 L2.76162739,4.94225 L2.76162739,4.94225 Z M6.55089301,4.91014063 L8.96750239,4.91014063 C8.94067426,5.51828125 8.74306489,6.01089063 8.37472114,6.3880625 C8.00637739,6.76523438 7.53967426,6.9538125 6.97465864,6.9538125 C6.68137739,6.9538125 6.41092426,6.897625 6.16326801,6.78529688 C5.91562739,6.67295313 5.69348676,6.50621875 5.49679926,6.2850625 C5.33048676,6.10142188 5.20443989,5.8923125 5.11858051,5.65778125 C5.03273676,5.4233125 4.98984614,5.17228125 4.98984614,4.90479688 C4.98984614,4.63195313 5.04167426,4.37339063 5.14542426,4.1290625 C5.24915864,3.88476563 5.40117426,3.66454688 5.60148676,3.46835938 C5.79103364,3.27934375 6.00293989,3.13798438 6.23725239,3.044375 C6.47151801,2.95075 6.73173676,2.9039375 7.01792426,2.9039375 C7.41314301,2.9039375 7.75964301,2.99621875 8.05737739,3.18079688 C8.35514301,3.365375 8.58003364,3.62796875 8.73209614,3.96857813 L8.03661176,3.96857813 C7.90762739,3.80273438 7.75361176,3.67792188 7.57451801,3.59407813 C7.39537739,3.51028125 7.19567426,3.46835938 6.97536176,3.46835938 C6.79086176,3.46835938 6.61537739,3.503125 6.44881489,3.57267188 C6.28222114,3.64221875 6.13447114,3.74298438 6.00548676,3.87495313 C5.87114301,4.01229688 5.76640864,4.171875 5.69118989,4.35378125 C5.61595551,4.53567188 5.57833051,4.72117188 5.57833051,4.91015625 C5.57833051,5.11346875 5.61231489,5.30564063 5.68034614,5.486625 C5.74839301,5.66764063 5.84595551,5.824125 5.97308051,5.95607813 C6.10733051,6.09517188 6.26218989,6.20309375 6.43764301,6.27975 C6.61309614,6.3564375 6.79212739,6.39476563 6.97472114,6.39476563 C7.27189301,6.39476563 7.53417426,6.31584375 7.76153364,6.15803125 C7.98889301,6.00021875 8.17597114,5.76707813 8.32281489,5.45853125 L6.55089301,5.45853125 L6.55089301,4.91014063 Z" id="形状结合"></path>
                <path d="M2.9090909,0 L2.9090909,1.09724527 L1.09090909,1.09724527 L1.09090909,9.14371054 L6.54545455,9.14371054 L6.54545455,10.2409558 L4.93963637,10.2409558 C5.27152775,11.0073208 5.04453077,11.902487 4.3882513,12.4153516 C3.73197183,12.9282161 2.81348272,12.9282161 2.15720325,12.4153516 C1.50092378,11.902487 1.2739268,11.0073208 1.60581818,10.2409558 L0,10.2409558 L0,0 L2.9090909,0 Z M10.9090909,0 L10.9090909,2.92598736 L13.8181818,2.92598736 L16,5.85197474 L16,10.2409558 L14.3941818,10.2409558 C14.7260732,11.0073208 14.4990762,11.902487 13.8427967,12.4153516 C13.1865173,12.9282161 12.2680282,12.9282161 11.6117487,12.4153516 C10.9554692,11.902487 10.7284722,11.0073208 11.0603636,10.2409558 L7.63636364,10.2409558 L7.63636364,9.14371054 L9.81818183,9.14371054 L9.81818183,1.09724527 L3.99999999,1.09724527 L3.99999999,0 L10.9090909,0 Z M3.27272728,10.2409558 C3.01287124,10.2409158 2.77273733,10.3803296 2.64279783,10.6066719 C2.51285833,10.8330142 2.51285833,11.1118911 2.64279783,11.3382334 C2.77273733,11.5645757 3.01287124,11.7039895 3.27272728,11.7039495 C3.67434543,11.7038876 3.99988867,11.3764035 3.99988867,10.9724526 C3.99988867,10.5685018 3.67434543,10.2410176 3.27272728,10.2409558 L3.27272728,10.2409558 Z M12.7272727,10.2409558 C12.4674167,10.2409158 12.2272828,10.3803296 12.0973433,10.6066719 C11.9674038,10.8330142 11.9674038,11.1118911 12.0973433,11.3382334 C12.2272828,11.5645757 12.4674167,11.7039895 12.7272727,11.7039495 C13.1288909,11.7038876 13.4544341,11.3764035 13.4544341,10.9724526 C13.4544341,10.5685018 13.1288909,10.2410176 12.7272727,10.2409558 L12.7272727,10.2409558 Z M13.2727273,4.02323263 L10.9090909,4.02323263 L10.9090909,9.14371054 L14.9090909,9.14371054 L14.9090909,6.21772316 L13.2727273,4.02323263 Z" id="形状"></path>
            </g>
        </g>
    </g>
</svg>