<?xml version="1.0" encoding="UTF-8"?>
<svg width="16px" height="16px" viewBox="0 0 16 16" version="1.1" xmlns="http://www.w3.org/2000/svg" xmlns:xlink="http://www.w3.org/1999/xlink">
    <title>导航-卡片</title>
    <g id="页面-1" stroke="none" stroke-width="1" fill="none" fill-rule="evenodd">
        <g id="画板" transform="translate(-80.000000, -174.000000)" fill="#FFFFFF">
            <g id="编组" transform="translate(80.000000, 174.000000)">
                <g id="ic写卡备份" transform="translate(-0.000000, 0.000000)">
                    <path d="M16,4.48 L14.9763598,4.48 L14.976,1.095 L11.52,1.09591075 L11.52,0 L16,0 L16,4.48 Z M16,11.52 L14.9763598,11.52 L14.976,14.985 L11.52,14.9840406 L11.52,16 L16,16 L16,11.52 Z M1.04635059,16 L0,16 L0,0 L5.76,0 L5.76,2.56 L4.48,2.56 L4.48,1.095 L1.046,1.095 L1.046,14.984 L4.48,14.984 L4.48,13.44 L5.76,13.44 L5.76,16 L4.48,16 L4.48,15.999 L1.046,15.999 L1.04635059,16 Z" id="形状结合"></path>
                    <path d="M2.2,2.56 L3.2,2.56 L3.2,13.76 L2.2,13.76 L2.2,2.56 Z M14.5,4.0428749 L14.5,12.0771264 L4,12.0771264 L4,11.0771264 L13.5,11.0771264 L13.5,5.0428749 L4,5.0428749 L4,4.0428749 L14.5,4.0428749 Z M7.69998719,6.00001972 L7.69998719,10 L7.43332388,10 L7.43332388,6.00001972 L7.69998719,6.00001972 Z M8.23334126,6.00001972 L8.23334126,10 L7.9666505,10 L7.9666505,6.00001972 L8.23334126,6.00001972 Z M6.89999726,6.00001972 L6.89999726,10 L6.09997988,10 L6.09997988,6.00001972 L6.89999726,6.00001972 Z M5.56665325,6 L5.56665325,10 L4.5,10 L4.5,6 L5.56665325,6 Z M9.29999954,6.00001972 L9.29999954,10 L8.49999954,10 L8.49999954,6.00001972 L9.29999954,6.00001972 Z M12.5,6.00001972 L12.5,10 L11.4333193,10 L11.4333193,6.00001972 L12.5,6.00001972 Z M11.1666651,6.00001972 L11.1666651,10 L10.6333385,10 L10.6333385,6.00001972 L11.1666651,6.00001972 Z M10.0999844,6.00001972 L10.0999844,10 L9.56665782,10 L9.56665782,6.00001972 L10.0999844,6.00001972 Z" id="形状结合"></path>
                </g>
            </g>
        </g>
    </g>
</svg>