<?xml version="1.0" encoding="UTF-8"?>
<svg width="16px" height="16px" viewBox="0 0 16 16" version="1.1" xmlns="http://www.w3.org/2000/svg" xmlns:xlink="http://www.w3.org/1999/xlink">
    <title>导航-磅单</title>
    <g id="页面-1" stroke="none" stroke-width="1" fill="none" fill-rule="evenodd">
        <g id="画板" transform="translate(-125.000000, -174.000000)" fill="#FFFFFF">
            <g id="1.Icon/多色/卡片-默认" transform="translate(125.000000, 174.000000)">
                <path d="M1.70759084,3.51519737 L2.23188406,4.86446505 L1.27531449,4.86423721 L1.27531449,14.6505045 L13.3912565,14.6505045 L13.3913043,7.90031733 L14.6666667,7.90031733 L14.6666667,16 L0,16 L0,3.51519737 L1.70759084,3.51519737 Z M12.2986227,11.198196 L12.2986227,12.5474637 L2.23188406,12.5474637 L2.23188406,11.198196 L12.2986227,11.198196 Z M12.2986227,8.70837022 L12.2986227,10.0576379 L5.77194075,10.0576379 L5.77194075,8.70837022 L12.2986227,8.70837022 Z" id="形状结合"></path>
                <path d="M10.9295514,2.13090231 L11.9312821,2.79161073 L9.60650428,6.31562071 C9.64543098,6.42229109 9.66666667,6.53745439 9.66666667,6.65757078 C9.66666667,7.20910201 9.21895142,7.6562064 8.66666667,7.6562064 C8.11438192,7.6562064 7.66666667,7.20910201 7.66666667,6.65757078 C7.66666667,6.10603956 8.11438192,5.65893517 8.66666667,5.65893517 L8.60033333,5.662 L10.9295514,2.13090231 Z M8.58154248,0 C11.0543617,0 13.5271808,0.581216497 16,1.74364949 L13.5411765,7.32332786 C12.4842362,6.87315416 11.3968762,6.56826221 10.2790964,6.40865201 L10.5760021,5.24108754 C11.28056,5.34824839 11.9742186,5.50843833 12.6564764,5.72155996 L12.9006667,5.80074142 L14.416,2.36277187 L14.10084,2.24019697 C12.3681971,1.58771931 10.6444025,1.24296265 8.92530135,1.20241681 L8.58154248,1.19836274 C6.77710116,1.19836274 5.00428738,1.53345022 3.25688945,2.20710968 L2.90933333,2.34546219 L4.40466667,5.73816026 L4.5138643,5.69781609 C5.21597286,5.44929022 5.96516884,5.27609405 6.76017337,5.17732929 L7.07171104,6.34744602 C5.8443923,6.48138138 4.75120757,6.80667533 3.79215686,7.32332786 L1.33333333,1.74364949 C3.69265359,0.581216497 6.10872331,0 8.58154248,0 Z" id="形状结合"></path>
            </g>
        </g>
    </g>
</svg>