<?xml version="1.0" encoding="utf-8"?>
<!-- Generator: Adobe Illustrator 25.3.1, SVG Export Plug-In . SVG Version: 6.00 Build 0)  -->
<svg version="1.1" id="图层_1" xmlns="http://www.w3.org/2000/svg" xmlns:xlink="http://www.w3.org/1999/xlink" x="0px" y="0px"
	 viewBox="0 0 16 16" style="enable-background:new 0 0 16 16;" xml:space="preserve">
<style type="text/css">
	.st0{fill-rule:evenodd;clip-rule:evenodd;}
</style>
<g id="控件">
	<g id="全局_x2F_left_x2F_组合" transform="translate(-28.000000, -355.000000)">
		<g id="系统管理" transform="translate(8.000000, 343.000000)">
			<g id="_x31_.Icon_x2F_多色_x2F_卡片-默认" transform="translate(20.000000, 12.000000)">
				<path id="形状" class="st0" d="M15.2,3.2c-0.8-0.5-1.1-1.5-0.6-2.3L13.1,0c-0.1,0.3-0.4,0.5-0.6,0.6c-0.8,0.5-1.9,0.2-2.3-0.6
					L8.6,0.9c0.1,0.2,0.2,0.5,0.2,0.9c0,0.9-0.8,1.7-1.7,1.7l0,1.8c0.3,0,0.6,0.1,0.9,0.2C8.7,5.9,9,7,8.5,7.8L10,8.6
					c0.1-0.3,0.4-0.5,0.6-0.6c0.8-0.5,1.9-0.2,2.3,0.6l1.5-0.9c-0.1-0.2-0.2-0.5-0.2-0.8c0-0.9,0.8-1.7,1.7-1.7l0-1.8
					C15.7,3.4,15.4,3.3,15.2,3.2z M12.4,5.9c-0.9,0.5-2,0.2-2.5-0.7c-0.5-0.9-0.2-2,0.7-2.5c0.9-0.5,2-0.2,2.5,0.7
					C13.6,4.3,13.3,5.4,12.4,5.9z"/>
				<path id="形状结合" class="st0" d="M14.1,13.4V9.6h-1.3v2.5H1.3v-8h4.3V2.9H0v10.6H14.1z M10.9,14.7V16H3.5v-1.3H10.9z"/>
			</g>
		</g>
	</g>
</g>
</svg>
