<?xml version="1.0" encoding="utf-8"?>
<!-- Generator: Adobe Illustrator 25.3.1, SVG Export Plug-In . SVG Version: 6.00 Build 0)  -->
<svg version="1.1" id="图层_1" xmlns="http://www.w3.org/2000/svg" xmlns:xlink="http://www.w3.org/1999/xlink" x="0px" y="0px"
	 viewBox="0 0 16 16" style="enable-background:new 0 0 16 16;" xml:space="preserve">
<style type="text/css">
	.st0{fill-rule:evenodd;clip-rule:evenodd;}
</style>
<g id="控件">
	<g id="全局_x2F_left_x2F_组合" transform="translate(-28.000000, -229.000000)">
		<g id="IC卡管理" transform="translate(8.000000, 217.000000)">
			<g id="Stacked-Group-5" transform="translate(20.000000, 12.000000)">
				<g id="ic写卡备份" transform="translate(-0.000000, 0.000000)">
					<path id="形状结合" class="st0" d="M16,4.5h-1l0-3.4l-3.5,0V0H16V4.5z M16,11.5h-1l0,3.5l-3.5,0v1H16V11.5z M1,16H0V0h5.8
						v2.6H4.5V1.1H1V15h3.4v-1.5h1.3V16H4.5v0L1,16L1,16z"/>
					<path id="形状结合_1_" class="st0" d="M2.2,2.6h1v11.2h-1V2.6z M14.5,4v8H4v-1h9.5V5H4V4H14.5z M7.7,6v4H7.4V6H7.7z M8.2,6
						v4H8V6H8.2z M6.9,6v4H6.1V6H6.9z M5.6,6v4H4.5V6H5.6z M9.3,6v4H8.5V6H9.3z M12.5,6v4h-1.1V6H12.5z M11.2,6v4h-0.5V6H11.2z
						 M10.1,6v4H9.6V6H10.1z"/>
				</g>
			</g>
		</g>
	</g>
</g>
</svg>
