<?xml version="1.0" encoding="utf-8"?>
<!-- Generator: Adobe Illustrator 25.3.1, SVG Export Plug-In . SVG Version: 6.00 Build 0)  -->
<svg version="1.1" id="图层_1" xmlns="http://www.w3.org/2000/svg" xmlns:xlink="http://www.w3.org/1999/xlink" x="0px" y="0px"
	 viewBox="0 0 16 16" style="enable-background:new 0 0 16 16;" xml:space="preserve">
<style type="text/css">
	.st0{fill-rule:evenodd;clip-rule:evenodd;}
</style>
<g id="控件">
	<g id="全局_x2F_left_x2F_组合" transform="translate(-28.000000, -187.000000)">
		<g id="称重管理" transform="translate(8.000000, 175.000000)">
			<g id="_x31_.Icon_x2F_多色_x2F_过磅-默认" transform="translate(20.000000, 12.000000)">
				<path id="形状结合" class="st0" d="M0,14.6h16V16H0V14.6z M2.7,6.9H2.2V3h0.6V6.9z M2.8,4.9l1.5-2h0.7L3.4,4.9l1.5,2H4.2
					L2.8,4.9L2.8,4.9z M6.6,4.9H9c0,0.6-0.2,1.1-0.6,1.5C8,6.8,7.5,7,7,7C6.7,7,6.4,6.9,6.2,6.8C5.9,6.7,5.7,6.5,5.5,6.3
					C5.3,6.1,5.2,5.9,5.1,5.7C5,5.4,5,5.2,5,4.9C5,4.6,5,4.4,5.1,4.1c0.1-0.2,0.3-0.5,0.5-0.7C5.8,3.3,6,3.1,6.2,3
					C6.5,3,6.7,2.9,7,2.9c0.4,0,0.7,0.1,1,0.3C8.4,3.4,8.6,3.6,8.7,4H8C7.9,3.8,7.8,3.7,7.6,3.6C7.4,3.5,7.2,3.5,7,3.5
					c-0.2,0-0.4,0-0.5,0.1C6.3,3.6,6.1,3.7,6,3.9C5.9,4,5.8,4.2,5.7,4.4C5.6,4.5,5.6,4.7,5.6,4.9c0,0.2,0,0.4,0.1,0.6
					C5.7,5.7,5.8,5.8,6,6c0.1,0.1,0.3,0.2,0.5,0.3C6.6,6.4,6.8,6.4,7,6.4c0.3,0,0.6-0.1,0.8-0.2C8,6,8.2,5.8,8.3,5.5H6.6V4.9z"/>
				<path id="形状" class="st0" d="M2.9,0v1.1H1.1v8h5.5v1.1H4.9C5.3,11,5,11.9,4.4,12.4c-0.7,0.5-1.6,0.5-2.2,0
					c-0.7-0.5-0.9-1.4-0.6-2.2H0V0H2.9z M10.9,0v2.9h2.9L16,5.9v4.4h-1.6c0.3,0.8,0.1,1.7-0.6,2.2c-0.7,0.5-1.6,0.5-2.2,0
					c-0.7-0.5-0.9-1.4-0.6-2.2H7.6V9.1h2.2v-8H4V0H10.9z M3.3,10.2c-0.3,0-0.5,0.1-0.6,0.4c-0.1,0.2-0.1,0.5,0,0.7
					c0.1,0.2,0.4,0.4,0.6,0.4C3.7,11.7,4,11.4,4,11C4,10.6,3.7,10.2,3.3,10.2L3.3,10.2z M12.7,10.2c-0.3,0-0.5,0.1-0.6,0.4
					c-0.1,0.2-0.1,0.5,0,0.7c0.1,0.2,0.4,0.4,0.6,0.4c0.4,0,0.7-0.3,0.7-0.7C13.5,10.6,13.1,10.2,12.7,10.2L12.7,10.2z M13.3,4h-2.4
					v5.1h4V6.2L13.3,4z"/>
			</g>
		</g>
	</g>
</g>
</svg>
