<?xml version="1.0" encoding="UTF-8"?>
<svg width="16px" height="16px" viewBox="0 0 16 16" version="1.1" xmlns="http://www.w3.org/2000/svg" xmlns:xlink="http://www.w3.org/1999/xlink">
    <title>导航-系统</title>
    <g id="页面-1" stroke="none" stroke-width="1" fill="none" fill-rule="evenodd">
        <g id="画板" transform="translate(-187.000000, -174.000000)" fill="#FFFFFF">
            <g id="1.Icon/多色/卡片-默认" transform="translate(187.000000, 174.000000)">
                <path d="M15.1533438,3.16520526 C14.3486518,2.71120505 14.0887127,1.67564202 14.5717858,0.852550024 L13.0646179,0 C12.9172131,0.254369861 12.7032919,0.476260356 12.4315144,0.635635848 C11.6118977,1.11633934 10.5745365,0.850595042 10.1150481,0.0419432574 L8.58139344,0.941679446 C8.72534342,1.18991777 8.80567903,1.48041037 8.8004738,1.79169688 C8.78637822,2.7269782 8.01047627,3.49728567 7.06703957,3.51314769 L7.04,5.26565606 C7.33080201,5.25925793 7.62413753,5.32732686 7.89130871,5.47839368 C8.69457267,5.93270492 8.95511064,6.96546877 8.47484741,7.78771656 L9.98229168,8.64 C10.1296965,8.3872741 10.3427425,8.16733859 10.6133684,8.00849627 C11.4304055,7.52921458 12.4634367,7.79189312 12.9249519,8.5944578 L14.4588829,7.69472161 C14.3177889,7.44786066 14.2394801,7.16047825 14.2438102,6.85221309 C14.2585046,5.91857573 15.0315505,5.14880143 15.9729604,5.13076228 L16,3.37847606 C15.7112709,3.38398556 15.4190869,3.31596106 15.1533438,3.16520526 Z M12.4487884,5.87592157 C11.5594308,6.37217606 10.4228477,6.07808451 9.90978695,5.21886978 C9.39672617,4.35969947 9.70222259,3.2608661 10.5912577,2.76434502 C11.4805692,2.26782394 12.6171983,2.56160447 13.130213,3.4208192 C13.6432738,4.28003394 13.3378235,5.3791339 12.4487884,5.87592157 Z" id="形状"></path>
                <path d="M14.08,13.44 L14.08,9.62362584 L12.8,9.62362584 L12.8,12.16 L1.28,12.16 L1.28,4.16 L5.57642543,4.16 L5.57642543,2.88 L0,2.88 L0,13.44 L14.08,13.44 Z M10.88,14.72 L10.88,16 L3.52,16 L3.52,14.72 L10.88,14.72 Z" id="形状结合"></path>
            </g>
        </g>
    </g>
</svg>