<?xml version="1.0" encoding="UTF-8"?>
<svg width="12px" height="12px" viewBox="0 0 12 12" version="1.1" xmlns="http://www.w3.org/2000/svg" xmlns:xlink="http://www.w3.org/1999/xlink">
    <title>开闸</title>
    <g id="页面-1" stroke="none" stroke-width="1" fill="none" fill-rule="evenodd">
        <g id="画板" transform="translate(-167.000000, -35.000000)" fill-rule="nonzero">
            <g id="开闸" transform="translate(167.000000, 35.000000)">
                <path d="M3.26187806,5.47368362 C3.08034296,5.29755734 3.08034296,5.02659383 3.26187806,4.85046754 L7.2416859,0.132094708 C7.42322099,-0.0440315695 7.70250575,-0.0440315695 7.88404085,0.132094708 L11.8638487,4.85046754 C12.0453838,5.02659382 12.0453838,5.29755733 11.8638487,5.47368362 M1.58806301e-12,9.33512706 C1.58806301e-12,9.33512706 0.807459396,12.5352273 5.95598719,11.9218904 C7.89189567,11.3081523 9.62928453,9.8979476 9.47596398,5.47368362 C7.12931278,5.47368362 5.95598719,5.47368362 5.95598719,5.47368362 C5.95598719,5.47368362 6.18538093,8.19336068 5.40282862,9.33512706 C4.41929844,10.9597338 1.5489676,11.2577948 1.58806301e-12,9.33512706 Z" fill="#39A05D"></path>
                <path d="M3.26187806,5.47368362 C3.08034296,5.29755734 3.08034296,5.02659383 3.26187806,4.85046754 L7.2416859,0.132094708 C7.42322099,-0.0440315695 7.79356923,-0.0854487389 8.04223129,0.318149222 L4.03239574,4.99698294 L7.02063437,4.99698294 L7.02063437,5.47368362 C7.03169384,7.35205068 7.10081258,9.94796047 4.57904524,10.8717219 C1.91640458,11.8470873 1.61648472e-13,9.33512706 1.61648472e-13,9.33512706 C1.5489676,11.2577948 4.41929844,10.9597338 5.40282862,9.33512706 C6.12948434,8.27491542 5.98359473,5.85415835 5.95904593,5.51374515 L5.95598719,5.47368362 L5.95598719,5.47368362 L3.26187806,5.47368362 Z" id="形状结合" fill="#2C7C4A"></path>
            </g>
        </g>
    </g>
</svg>