<?xml version="1.0" encoding="UTF-8"?>
<svg width="16px" height="15px" viewBox="0 0 16 15" version="1.1" xmlns="http://www.w3.org/2000/svg" xmlns:xlink="http://www.w3.org/1999/xlink">
    <title>形状</title>
    <g id="页面-1" stroke="none" stroke-width="1" fill="none" fill-rule="evenodd">
        <g id="画板" transform="translate(-36.000000, -269.000000)" fill="#2B53EC" fill-rule="nonzero">
            <path d="M47.5862069,271.658177 C47.1448276,271.658177 46.7586207,272.056193 46.7586207,272.511068 C46.7586207,272.965944 47.1448276,273.363959 47.5862069,273.363959 C48.0275862,273.363959 48.4137931,272.965944 48.4137931,272.511068 C48.4137931,272.056193 48.0275862,271.658177 47.5862069,271.658177 Z M36,276.434367 L38.8689655,280.187088 L39.9724138,279.789072 L37.1034483,276.036352 L36,276.434367 Z M51.9448276,275.865773 L49.9586207,269.383801 C49.9034483,269.270082 49.7931034,269.099504 49.6827586,269.042645 C49.5724138,268.985785 49.4068965,268.985785 49.2413793,269.042645 L36.8275862,273.705116 C36.662069,273.761975 36.5517241,273.932553 36.4965517,274.103132 C36.4413793,274.27371 36.4965517,274.444288 36.6068966,274.614866 L40.9655172,280.243948 C41.0758621,280.357666 41.2413793,280.471385 41.4068966,280.471385 C41.462069,280.471385 41.5172414,280.471385 41.5724138,280.414526 L51.6689655,276.604946 C51.9448276,276.491227 52.0551724,276.15007 51.9448276,275.865773 Z M41.5724138,279.163619 L37.9310345,274.444288 L49.1310345,270.236692 L50.7310345,275.695195 L41.5724138,279.163619 Z M50.8965517,279.334197 L50.8965517,281.039979 L48.4689655,281.039979 L47.862069,279.845932 L51.0068966,278.651884 L50.6206897,277.571555 L42.6206897,280.585104 L43.337931,281.551714 L46.8137931,280.243948 L47.6413793,281.89287 C47.7517241,282.063449 47.9172414,282.234027 48.137931,282.234027 L50.8965517,282.234027 L50.8965517,283.769231 L52,283.769231 L52,279.334197 L50.8965517,279.334197 Z" id="形状" transform="translate(44.000000, 276.384615) scale(-1, 1) translate(-44.000000, -276.384615) "></path>
        </g>
    </g>
</svg>