<?xml version="1.0" encoding="UTF-8"?>
<svg width="56px" height="56px" viewBox="0 0 56 56" version="1.1" xmlns="http://www.w3.org/2000/svg" xmlns:xlink="http://www.w3.org/1999/xlink">
    <title>chenggong</title>
    <defs>
        <polygon id="path-1" points="0 0 55.9958984 0 55.9958984 56 0 56"></polygon>
    </defs>
    <g id="页面-1" stroke="none" stroke-width="1" fill="none" fill-rule="evenodd">
        <g id="门房管理系统安装用户协议-安装成功" transform="translate(-222.000000, -78.000000)">
            <g id="chenggong" transform="translate(222.000000, 78.000000)">
                <mask id="mask-2" fill="white">
                    <use xlink:href="#path-1"></use>
                </mask>
                <g id="Clip-2"></g>
                <path d="M27.9960693,56 C12.531861,56 -0.00410156751,43.4640374 -0.00410156751,28.0001709 C-0.00410156751,12.5359626 12.531861,0 27.9960693,0 C43.4599359,0 55.9958984,12.5359626 55.9958984,28.0001709 C55.9958984,43.4640374 43.4599359,56 27.9960693,56 Z M25.2838395,35.3719865 L17.2758707,27.2679727 L11.9959228,32.3121488 C15.8358103,34.3800224 21.2159048,38.152029 25.8240159,43.9999756 C29.0799085,37.8799583 39.1159657,25.3599919 43.995874,24.2401272 C43.2078945,21.0841078 42.7638315,15.1600771 43.995874,12.0000244 C33.9879126,18.599925 25.2838395,35.3719865 25.2838395,35.3719865 Z" id="Fill-1" fill="#0DAB53" mask="url(#mask-2)"></path>
            </g>
        </g>
    </g>
</svg>