<?xml version="1.0" encoding="UTF-8"?>
<svg width="22px" height="26px" viewBox="0 0 22 26" version="1.1" xmlns="http://www.w3.org/2000/svg" xmlns:xlink="http://www.w3.org/1999/xlink">
    <title>形状结合</title>
    <defs>
        <linearGradient x1="50%" y1="0%" x2="50%" y2="100%" id="linearGradient-1">
            <stop stop-color="#FFFFFF" offset="0%"></stop>
            <stop stop-color="#A6B8FF" offset="99.9149776%"></stop>
        </linearGradient>
        <path d="M40.285595,58.0916147 C41.6336101,58.0916147 42.726482,59.1858514 42.726482,60.5355803 L42.726,62.428 L42.725,62.4285714 L42.725,66.1428571 L43.1892857,66.1428571 L43.1890208,62.561296 C43.4051668,62.4999082 43.629575,62.4685867 43.8559164,62.4688789 L43.928692,62.4688789 C45.0182444,62.4688789 45.9409871,63.1837134 46.2549312,64.1705463 L46.2535714,66.1428571 L46.7178571,66.1428571 L46.7170545,64.0561565 C46.9678638,63.9712322 47.2319145,63.9275816 47.4988547,63.9279776 L47.5717573,63.9279776 C48.6020098,63.9279776 49.483093,64.5670572 49.84129,65.470865 L49.847,65.467 L49.8471429,66.1428571 L50.3114286,66.1428571 L50.3111062,65.2405968 C50.576212,65.1445025 50.8573129,65.0948681 51.14192,65.095339 L51.2148225,65.095339 C52.5629646,65.095339 53.6556778,66.1896709 53.6556778,67.5395586 L53.6556778,74.7987752 C53.6556778,78.2235453 50.8829365,81 47.4624193,81 L42.4103382,81 C40.4300354,80.9996191 38.5693854,80.0519493 37.4046265,78.4504097 L32.4610265,71.6563477 C31.7952867,70.741019 31.8561605,69.4856159 32.6073394,68.6389686 L32.8371872,68.3799852 C33.6964663,67.4120981 35.176766,67.3249451 36.1432884,68.185335 C36.1667111,68.206187 36.1895309,68.2272611 36.2119698,68.2489383 L37.1548154,69.1579511 C37.2243537,69.2251408 37.3177274,69.2618301 37.4144336,69.2599893 C37.5110128,69.2582437 37.60299,69.2180632 37.6700528,69.1483979 C37.7354017,69.0803513 37.7718371,68.9895801 37.7718371,68.8952226 L37.7718371,60.5355803 C37.7718371,59.1857244 38.8647091,58.0916147 40.2127241,58.0916147 L40.285595,58.0916147 Z M40.1694333,55 C42.9268133,55 45.1620053,57.235192 45.1620053,59.992572 C45.1618784,60.3147779 44.9006733,60.575856 44.5784357,60.575856 C44.2562298,60.575856 43.9950247,60.3147779 43.9948978,59.992572 C43.9948978,57.8798576 42.2821477,56.1671075 40.1694333,56.1671075 C38.0568775,56.1671075 36.3441275,57.8798576 36.3441275,59.992572 C36.3441275,60.2009648 36.2329169,60.3937425 36.052295,60.4980023 C35.8717684,60.6022939 35.6492203,60.6022939 35.4687254,60.4980023 C35.2881987,60.3937425 35.1770199,60.2009648 35.1770199,59.992572 C35.1770199,57.235192 37.4121802,55 40.1694333,55 Z" id="path-2"></path>
        <filter x="-4.6%" y="-3.8%" width="109.2%" height="107.7%" filterUnits="objectBoundingBox" id="filter-3">
            <feGaussianBlur stdDeviation="0.5" in="SourceAlpha" result="shadowBlurInner1"></feGaussianBlur>
            <feOffset dx="0" dy="1" in="shadowBlurInner1" result="shadowOffsetInner1"></feOffset>
            <feComposite in="shadowOffsetInner1" in2="SourceAlpha" operator="arithmetic" k2="-1" k3="1" result="shadowInnerInner1"></feComposite>
            <feColorMatrix values="0 0 0 0 1   0 0 0 0 1   0 0 0 0 1  0 0 0 1 0" type="matrix" in="shadowInnerInner1"></feColorMatrix>
        </filter>
    </defs>
    <g id="页面-1" stroke="none" stroke-width="1" fill="none" fill-rule="evenodd">
        <g id="形状结合" transform="translate(-32.000000, -55.000000)">
            <use fill="url(#linearGradient-1)" fill-rule="evenodd" xlink:href="#path-2"></use>
            <use fill="black" fill-opacity="1" filter="url(#filter-3)" xlink:href="#path-2"></use>
        </g>
    </g>
</svg>