<?xml version="1.0" encoding="utf-8"?>
<!-- Generator: Adobe Illustrator 25.3.1, SVG Export Plug-In . SVG Version: 6.00 Build 0)  -->
<svg version="1.1" id="图层_1" xmlns="http://www.w3.org/2000/svg" xmlns:xlink="http://www.w3.org/1999/xlink" x="0px" y="0px"
	 viewBox="0 0 16 16" style="enable-background:new 0 0 16 16;" xml:space="preserve">
<style type="text/css">
	.st0{fill-rule:evenodd;clip-rule:evenodd;fill:#4A6CEE;}
	.st1{opacity:0.4;}
</style>
<g id="页面-1">
	<g id="磅单管理" transform="translate(-1144.000000, -392.000000)">
		<g id="Stacked-Group_1_" transform="translate(180.000000, 76.000000)">
			<g id="更多操作" transform="translate(0.000000, 44.000000)">
				<g transform="translate(943.000000, 254.000000)">
					<g id="Stacked-Group" transform="translate(21.000000, 18.000000)">
						<g id="编组-10" transform="translate(0.000000, 0.500000)">
							<path id="形状" class="st0" d="M12.9,13.2V2.1c0-0.3-0.1-0.7-0.3-0.9c-0.2-0.2-0.5-0.3-0.8-0.3c-0.7,0-1.1,0.6-1.1,1.7v2
								c0,0.3-0.2,0.5-0.5,0.5H1.6v7.6C1.6,14,2.4,15,3.7,15h0.2l9.6,0C13.1,14.6,12.9,14,12.9,13.2z M10.3,11.3h-6
								c-0.3,0-0.6-0.3-0.6-0.6s0.2-0.6,0.6-0.6h6c0.3,0,0.6,0.3,0.6,0.6S10.6,11.3,10.3,11.3L10.3,11.3z M10.3,8.4h-6
								c-0.3,0-0.6-0.3-0.6-0.6s0.2-0.6,0.6-0.6h6c0.3,0,0.6,0.3,0.6,0.6S10.6,8.4,10.3,8.4z M13.8,13.2c0,0.4,0.1,1.4,1.1,1.4
								c0.4,0,0.7-0.2,0.8-0.4c0.1-0.2,0.2-0.4,0.2-0.6v0c0,0,0-0.1,0-0.1c0-0.1,0-0.2,0-0.3v-2.8c0-0.2-0.1-0.3-0.3-0.3h-1.9V13.2
								L13.8,13.2z"/>
							<g id="路径-4" class="st1">
								<path id="路径" class="st0" d="M0.3,4.2h9.4V2.6c0-1.5,0.7-2.5,1.8-2.6c-0.1,0-0.2,0-0.3,0H1.7C0.8,0,0,0.7,0,1.6v2.4
									C0,4,0.1,4.2,0.3,4.2z"/>
							</g>
						</g>
					</g>
				</g>
			</g>
		</g>
	</g>
</g>
</svg>
