<?xml version="1.0" encoding="utf-8"?>
<!-- Generator: Adobe Illustrator 25.3.1, SVG Export Plug-In . SVG Version: 6.00 Build 0)  -->
<svg version="1.1" id="图层_1" xmlns="http://www.w3.org/2000/svg" xmlns:xlink="http://www.w3.org/1999/xlink" x="0px" y="0px"
	 viewBox="0 0 16 16" style="enable-background:new 0 0 16 16;" xml:space="preserve">
<style type="text/css">
	.st0{fill-rule:evenodd;clip-rule:evenodd;fill:#192131;}
</style>
<g id="_x31_.Icon_x2F_通用_x2F_更多line">
	<path id="形状结合" class="st0" d="M11.1,0.6C14.1,1.9,16,4.8,16,8c0,4.4-3.6,8-8,8c-3.2,0-6.2-2-7.4-4.9S0.1,4.6,2.3,2.3
		S8.1-0.6,11.1,0.6z M8,1.1C4.2,1.1,1.1,4.2,1.1,8s3.1,6.9,6.9,6.9s6.9-3.1,6.9-6.9C14.9,4.2,11.8,1.1,8,1.1z M4.1,7
		c0.6,0,1.1,0.5,1.1,1.1S4.7,9.2,4.1,9.2S3,8.7,3,8.1S3.5,7,4.1,7z M8,7c0.6,0,1.1,0.5,1.1,1.1S8.6,9.2,8,9.2S6.9,8.7,6.9,8.1
		S7.4,7,8,7z M11.9,7C12.5,7,13,7.5,13,8.1s-0.5,1.1-1.1,1.1s-1.1-0.5-1.1-1.1S11.3,7,11.9,7z"/>
</g>
</svg>
