<?xml version="1.0" encoding="utf-8"?>
<!-- Generator: Adobe Illustrator 25.3.1, SVG Export Plug-In . SVG Version: 6.00 Build 0)  -->
<svg version="1.1" id="图层_1" xmlns="http://www.w3.org/2000/svg" xmlns:xlink="http://www.w3.org/1999/xlink" x="0px" y="0px"
	 viewBox="0 0 16 16" style="enable-background:new 0 0 16 16;" xml:space="preserve">
<style type="text/css">
	.st0{fill-rule:evenodd;clip-rule:evenodd;fill:#4A6CEE;}
	.st1{opacity:0.4;}
</style>
<g id="页面-1">
	<g id="磅单管理" transform="translate(-1144.000000, -456.000000)">
		<g id="Stacked-Group" transform="translate(180.000000, 76.000000)">
			<g id="更多操作" transform="translate(0.000000, 44.000000)">
				<g transform="translate(943.000000, 254.000000)">
					<g id="Stacked-Group-2" transform="translate(21.000000, 82.000000)">
						<g id="编组-9" transform="translate(0.000000, 0.500000)">
							<path id="形状结合" class="st0" d="M12,0v6l0,0c-2.8,0-5,2.2-5,5c0,0.7,0.1,1.4,0.4,2L0,13V0H12z M6,7H2v1h4V7z M10,3H2
								v1h8V3z"/>
							<g id="编组" transform="translate(8.000000, 7.000000)" class="st1">
								<path id="形状结合_1_" class="st0" d="M4,0c2.2,0,4,1.8,4,4S6.2,8,4,8S0,6.2,0,4S1.8,0,4,0z M5.6,2c0,0-0.1,0-0.1,0l0,0
									L4,3.5L2.5,2c0,0-0.1,0-0.1,0l0,0L2,2.4c0,0,0,0.1,0,0.1l0,0L3.5,4L2,5.5c0,0,0,0.1,0,0.1l0,0L2.4,6c0,0,0.1,0,0.1,0l0,0
									L4,4.5L5.5,6c0,0,0.1,0,0.1,0l0,0L6,5.6c0,0,0-0.1,0-0.1l0,0L4.5,4L6,2.5c0,0,0-0.1,0-0.1l0,0L5.6,2z"/>
							</g>
						</g>
					</g>
				</g>
			</g>
		</g>
	</g>
</g>
</svg>
