<?xml version="1.0" encoding="utf-8"?>
<!-- Generator: Adobe Illustrator 25.3.1, SVG Export Plug-In . SVG Version: 6.00 Build 0)  -->
<svg version="1.1" id="图层_1" xmlns="http://www.w3.org/2000/svg" xmlns:xlink="http://www.w3.org/1999/xlink" x="0px" y="0px"
	 viewBox="0 0 16 16" style="enable-background:new 0 0 16 16;" xml:space="preserve">
<style type="text/css">
	.st0{opacity:0.4;}
	.st1{fill-rule:evenodd;clip-rule:evenodd;fill:#4A6CEE;}
</style>
<g id="页面-1">
	<g id="磅单管理" transform="translate(-1144.000000, -424.000000)">
		<g id="Stacked-Group" transform="translate(180.000000, 76.000000)">
			<g id="更多操作" transform="translate(0.000000, 44.000000)">
				<g transform="translate(943.000000, 254.000000)">
					<g id="Stacked-Group-3" transform="translate(21.000000, 50.000000)">
						<g id="编组-7" transform="translate(0.500000, 1.000000)">
							<g id="路径-2" transform="translate(3.068182, 0.000000)" class="st0">
								<path id="路径" class="st1" d="M0.7,0h5.8c0.6,0,1.2,0.3,1.7,0.7c0.4,0.5,0.7,1.1,0.7,1.7v1.7c0,0.4-0.3,0.7-0.7,0.7H0.7
									C0.3,4.9,0,4.6,0,4.2V0.7C0,0.3,0.3,0,0.7,0L0.7,0z"/>
							</g>
							<path id="形状结合" class="st1" d="M11.2,9.1c0.5,0,0.7,0.2,0.7,0.7v3.5c0,0.5-0.2,0.7-0.7,0.7H3.8
								c-0.5,0-0.7-0.2-0.7-0.7V9.8c0-0.5,0.2-0.7,0.7-0.7H11.2z M2.5,2.8v2.8h10V2.8h1.8c0.4,0,0.7,0.3,0.7,0.7v7
								c0,0.4-0.3,0.7-0.7,0.7h-1.8V8.4h-10v2.8H0.7c-0.4,0-0.7-0.3-0.7-0.7v-7c0-0.4,0.3-0.7,0.7-0.7H2.5z M0.8,3.4
								C0.6,3.5,0.5,3.7,0.5,4c0,0.3,0.1,0.5,0.3,0.6s0.5,0.1,0.7,0S1.8,4.2,1.8,4c0-0.3-0.1-0.5-0.3-0.6S1,3.3,0.8,3.4z"/>
						</g>
					</g>
				</g>
			</g>
		</g>
	</g>
</g>
</svg>
