<?xml version="1.0" encoding="UTF-8"?>
<svg width="15px" height="15px" viewBox="0 0 15 15" version="1.1" xmlns="http://www.w3.org/2000/svg" xmlns:xlink="http://www.w3.org/1999/xlink">
    <title>quanping (1)备份 5</title>
    <g id="页面-1" stroke="none" stroke-width="1" fill="none" fill-rule="evenodd">
        <g id="手动开闸-查看监控" transform="translate(-1244.000000, -506.000000)" fill="#FFFFFF">
            <g id="quanping-(1)备份-5" transform="translate(1244.261513, 506.804678)">
                <path d="M9.37579389,5.23508689 L13.1332903,1.49063553 L13.1203368,3.61260497 C13.1152332,3.78862139 13.2574699,3.94381154 13.4335092,3.93863929 L13.6586161,3.93863929 C13.8346326,3.93344417 13.982133,3.83002222 13.984742,3.65139678 L13.9950178,0.491683382 C13.9950178,0.489097261 14.0001901,0.323539749 14.0001901,0.323539749 C14.0027991,0.235565865 13.9820415,0.155281686 13.925101,0.0983412535 C13.8682521,0.041400821 13.7906456,0.00519512789 13.6999941,0.00778124883 L13.5395173,0.0103673698 C13.5369311,0.0103673698 13.5344366,0.0103673698 13.5318504,0.0129763767 L10.3979754,4.97393291e-14 C10.2220276,0.00519512789 10.0745272,0.150200988 10.071941,0.328711991 L10.071941,0.553818942 C10.0978709,0.76345494 10.2634284,0.885048396 10.4394448,0.879853268 L12.5044738,0.885048396 L8.75732193,4.61672936 C8.58659217,4.787482 8.58659217,5.06433425 8.75732193,5.23508689 C8.92816611,5.4085172 9.20504125,5.4085172 9.37588544,5.23508689 L9.37579389,5.23508689 Z M4.64017163,8.76491311 L0.880066223,12.4964796 L0.893042599,10.3848089 C0.898214841,10.2088611 0.755795102,10.053671 0.57987022,10.0587746 L0.341809778,10.0587746 C0.165862011,10.0639468 0.0183615732,10.1674832 0.0157754523,10.3460171 L0.0053851965,13.5082937 C0.0053851965,13.5109027 0.000212954636,13.6764603 0.000212954636,13.6764603 C-0.0023731663,13.7645257 0.0183615732,13.8447183 0.0752104617,13.9016587 C0.132150894,13.9585992 0.209848952,13.9948049 0.300408957,13.9922188 L0.460794227,13.9896326 C0.463380348,13.9896326 0.465966469,13.9896326 0.46866702,13.9870236 L3.61540404,14 C3.79132893,13.9948049 3.93892091,13.8498906 3.94143837,13.6712651 L3.94143837,13.4461582 C3.91560005,13.2365222 3.74995099,13.1149516 3.57391168,13.1201238 L1.50890556,13.1149516 L5.25335692,9.38336219 C5.42420111,9.212518 5.42420111,8.93566575 5.25335692,8.76482156 C5.08528195,8.59145992 4.81092427,8.59145992 4.64017163,8.76491311 Z M13.9951094,13.5082937 L13.9873281,10.3460171 C13.982133,10.1699778 13.8371271,10.0639468 13.6612023,10.0587746 L13.4360953,10.0587746 C13.2600789,10.053671 13.1203368,10.2088611 13.1229229,10.3848089 L13.1358993,12.506847 L9.37579389,8.76491311 C9.20494971,8.59406892 8.92807457,8.59406892 8.75732193,8.76491311 C8.58659217,8.93566575 8.58659217,9.21260955 8.75732193,9.38336219 L12.5018877,13.1149516 L10.4367672,13.1201238 C10.2608423,13.1149516 10.0977794,13.2391312 10.0692634,13.4461582 L10.0692634,13.6712651 C10.0744356,13.8473044 10.2194415,13.9948049 10.3953892,14 L13.5292414,13.9870236 C13.5317589,13.9870236 13.534345,13.9896326 13.5370227,13.9896326 L13.6974079,13.9922188 C13.7853818,13.9948049 13.8656431,13.9611853 13.9226064,13.9016587 C13.9794553,13.8447183 14.0001901,13.7645257 13.9976039,13.6765518 C13.9976039,13.6765518 13.9950178,13.5109027 13.9950178,13.5082937 L13.9951094,13.5082937 Z M1.51158322,0.885048396 L3.57658934,0.879853268 C3.75253711,0.885048396 3.9155085,0.760868819 3.94402449,0.553818942 L3.94402449,0.328620447 C3.93882936,0.152695565 3.79400659,0.00519512789 3.61799017,4.97393291e-14 L0.46866702,0.0129763767 C0.466058013,0.0129763767 0.463471892,0.0103673698 0.460885771,0.0103673698 L0.300500501,0.00778124883 C0.212435073,0.00519512789 0.132242438,0.038791814 0.0753020058,0.0983412535 C0.0183615732,0.155281686 -0.0023731663,0.235382777 0.000304498739,0.323448205 C0.000304498739,0.323448205 0.00547674061,0.489097261 0.00547674061,0.491683382 L0.0131664453,3.6539829 C0.0157754523,3.82993067 0.163367434,3.93603029 0.339200771,3.94113387 L0.577375643,3.94113387 C0.753300525,3.946329 0.893042599,3.79104731 0.890433592,3.61509955 L0.880066223,1.50342882 L4.63767705,5.23767301 C4.80833815,5.4085172 5.08528195,5.4085172 5.25603459,5.23767301 C5.42687877,5.06685172 5.42687877,4.78997657 5.25603459,4.61913239 L1.51158322,0.885048396 Z" id="Fill-1"></path>
            </g>
        </g>
    </g>
</svg>