<?xml version="1.0" encoding="UTF-8"?>
<svg width="16px" height="16px" viewBox="0 0 16 16" version="1.1" xmlns="http://www.w3.org/2000/svg" xmlns:xlink="http://www.w3.org/1999/xlink">
    <title>断连-白</title>
    <g id="页面-1" stroke="none" stroke-width="1" fill="none" fill-rule="evenodd">
        <g id="画板" transform="translate(-380.000000, -236.000000)" fill="#FFFFFF">
            <g id="1.Icon/通用/断连" transform="translate(380.000000, 236.000000)">
                <path d="M0.991132525,0 L1.006,0.015 L1,0.0226203938 L15.9810444,15 L15.999,14.982 L16,14.9835141 L14.9810444,16 L13.5772405,14.5970392 C12.9322809,15.421487 11.9353856,15.9516791 10.8181623,15.9516791 C8.87828906,15.9516791 7.3011874,14.3551583 7.3011874,12.3913989 L7.301,8.322 L3.066,4.087 L3.066,12.793 L3.92932114,12.7934284 C4.2519969,12.7934284 4.54412348,12.9905774 4.66822954,13.2940324 C4.7923356,13.5974873 4.72359994,13.9453974 4.49448105,14.1773375 L2.93074466,15.7622614 C2.78181738,15.9149553 2.57942904,16 2.36558474,16 C2.15364977,16 1.9493521,15.9149553 1.80042483,15.7622614 L0.234779109,14.1773375 C0.00566022311,13.9453974 -0.0630754425,13.5974873 0.0610306204,13.2940324 C0.185136683,12.9905774 0.477263262,12.7934284 0.799939026,12.7934284 L1.664,12.793 L1.66486282,3.59507127 C1.66486282,3.31463642 1.69702512,3.04169077 1.75781327,2.77981432 L0,1.02262039 L0.991132525,0 Z M8.7,9.72 L8.70072192,12.3913989 C8.70072192,13.5723605 9.6515653,14.5349118 10.8181623,14.5349118 C11.5461666,14.5349118 12.1901505,14.1600683 12.5714738,13.5912212 L8.7,9.72 Z M13.6363246,0 C13.8482596,0 14.0525572,0.0850446968 14.2014845,0.237738584 L15.7652209,1.82266248 C15.9943398,2.05460256 16.0630754,2.40251268 15.9389694,2.70596763 C15.8148633,3.00942257 15.5246461,3.20657164 15.200061,3.20657164 L14.337,3.206 L14.337,11.325 L12.935,9.925 L12.935,3.206 L12.0706789,3.20657164 C11.7480031,3.20657164 11.4558765,3.00942257 11.3317705,2.70596763 C11.2077027,2.40307573 11.2763,2.05434005 11.5055189,1.82266248 L13.0711647,0.237738584 C13.2220013,0.0850446968 13.4243896,0 13.6363246,0 Z M5.18183771,0.0347910123 C7.12171094,0.0347910123 8.70072192,1.63131191 8.70072192,3.59507127 L8.7,5.697 L7.301,4.301 L7.3011874,3.59507127 C7.3011874,2.41410969 6.35034403,1.45155835 5.18374703,1.45155835 C4.96197883,1.45155835 4.74800741,1.48634245 4.54688257,1.55079864 L3.47617431,0.481923071 C3.98159644,0.197120074 4.56327436,0.0347910123 5.18183771,0.0347910123 Z" id="形状结合"></path>
            </g>
        </g>
    </g>
</svg>