<?xml version="1.0" encoding="UTF-8"?>
<svg width="16px" height="17px" viewBox="0 0 16 17" version="1.1" xmlns="http://www.w3.org/2000/svg" xmlns:xlink="http://www.w3.org/1999/xlink">
    <title>更多line-白</title>
    <g id="页面-1" stroke="none" stroke-width="1" fill="none" fill-rule="evenodd">
        <g id="画板" transform="translate(-535.000000, -233.000000)" fill="#FFFFFF">
            <g id="1.Icon/通用/更多line" transform="translate(535.000000, 233.048264)">
                <path d="M11.0686195,0.612127269 C14.0576383,1.85358017 16.0041191,4.77376385 15.9999869,8.01033982 C15.9887147,12.4222177 12.4119924,15.9943667 8.00010437,15.9999869 C4.76352621,15.9999869 1.84583605,14.049768 0.608209055,11.0591627 C-0.629417935,8.06855739 0.056894583,4.62686643 2.34696471,2.33972445 C4.63703485,0.0525824662 8.07960069,-0.629325636 11.0686195,0.612127269 Z M7.99999673,1.14285668 C4.21290285,1.14285668 1.14285668,4.21290285 1.14285668,7.99999673 C1.14285668,11.7870906 4.21290285,14.8571368 7.99999673,14.8571368 C11.7870906,14.8571368 14.8571368,11.7870906 14.8571368,7.99999673 C14.8516236,4.21518884 11.7848046,1.14836988 7.99999673,1.14285668 Z M4.07816712,7 C4.67362534,7 5.15633423,7.48270889 5.15633423,8.07816712 C5.15633423,8.67362534 4.67362534,9.15633423 4.07816712,9.15633423 C3.48270889,9.15633423 3,8.67362534 3,8.07816712 C3,7.48270889 3.48270889,7 4.07816712,7 Z M8,7 C8.59545822,7 9.07816712,7.48270889 9.07816712,8.07816712 C9.07816712,8.67362534 8.59545822,9.15633423 8,9.15633423 C7.40454178,9.15633423 6.92183288,8.67362534 6.92183288,8.07816712 C6.92183288,7.48270889 7.40454178,7 8,7 Z M11.9218329,7 C12.5172911,7 13,7.48270889 13,8.07816712 C13,8.67362534 12.5172911,9.15633423 11.9218329,9.15633423 C11.3263747,9.15633423 10.8436658,8.67362534 10.8436658,8.07816712 C10.8436658,7.48270889 11.3263747,7 11.9218329,7 Z" id="形状结合"></path>
            </g>
        </g>
    </g>
</svg>