<?xml version="1.0" encoding="UTF-8"?>
<svg width="21px" height="20px" viewBox="0 0 21 20" version="1.1" xmlns="http://www.w3.org/2000/svg" xmlns:xlink="http://www.w3.org/1999/xlink">
    <title>jiankongshebei</title>
    <defs>
        <polygon id="path-1" points="0 0 20 0 20 20 0 20"></polygon>
    </defs>
    <g id="页面-1" stroke="none" stroke-width="1" fill="none" fill-rule="evenodd">
        <g id="手动开闸" transform="translate(-1238.000000, -407.000000)">
            <g id="jiankongshebei" transform="translate(1238.657314, 407.000000)">
                <mask id="mask-2" fill="white">
                    <use xlink:href="#path-1"></use>
                </mask>
                <g id="Clip-2"></g>
                <path d="M6.04172437,12.9783294 L4.8437435,14.1742081 L2.37924043,14.1742081 L2.37924043,11.5208206 C2.37924043,11.2343278 2.14667746,11.0017648 1.86018459,11.0017648 C1.57369172,11.0017648 1.34112875,11.2343278 1.34112875,11.5208206 L1.34112875,16.4809442 C1.34112875,16.767437 1.57369172,17 1.86018459,17 C2.14667746,17 2.37924043,16.767437 2.37924043,16.4809442 L2.37924043,15.2123198 L5.10944818,15.2123198 C5.11360063,15.2123198 5.11990715,15.2102695 5.1240596,15.2102695 C5.12821205,15.2102695 5.13023637,15.2102695 5.13438881,15.2081414 C5.14056558,15.2081414 5.14474398,15.2061171 5.15102455,15.2061171 C5.15304887,15.2061171 5.15720132,15.2061171 5.15932945,15.2039889 C5.16550621,15.2019646 5.16968461,15.2019646 5.17596519,15.1998365 C5.1779895,15.1998365 5.18214195,15.1978122 5.18416627,15.1978122 C5.19044684,15.1957879 5.19459929,15.1957879 5.20080201,15.1936597 C5.20293014,15.1936597 5.20708258,15.1916354 5.2091069,15.1916354 C5.21325935,15.1895073 5.21953992,15.187483 5.22371832,15.187483 C5.22787077,15.1853548 5.22989509,15.1853548 5.23404753,15.1833046 C5.23819998,15.1811764 5.24235243,15.1791521 5.24650487,15.1791521 C5.25068327,15.177024 5.25483572,15.177024 5.25686004,15.1749997 C5.26101248,15.1728715 5.26516493,15.1708472 5.26729306,15.1708472 L5.27977635,15.1645667 C5.2839288,15.1625423 5.28595312,15.1604142 5.29010556,15.1604142 L5.30258886,15.1542115 C5.30461317,15.1520834 5.30876562,15.1520834 5.31089375,15.150059 C5.3150462,15.1479309 5.32122296,15.1438823 5.32540136,15.1417541 C5.32752949,15.1397298 5.32955381,15.1397298 5.33168194,15.1376017 C5.33583438,15.1355774 5.34201115,15.131399 5.34616359,15.1292709 C5.34818791,15.1272465 5.35031604,15.1251184 5.35236631,15.1251184 C5.35651876,15.120966 5.3606712,15.1189416 5.36695178,15.1147892 C5.3689761,15.1126611 5.37110423,15.1106368 5.37525667,15.1085086 C5.37943507,15.1043302 5.38358752,15.1023059 5.38773997,15.0981535 C5.3917886,15.0960253 5.39391673,15.0919767 5.39806918,15.0898486 C5.40222162,15.0878242 5.4042719,15.0836718 5.40842434,15.0815437 C5.41470492,15.0773653 5.41885736,15.0711885 5.42503413,15.0670361 L6.77670743,13.7153628 C6.98017732,13.5118929 6.98017732,13.1838236 6.77670743,12.9803797 C6.5732635,12.7748855 6.24519426,12.7748855 6.04172437,12.9783294 Z M18.0733868,9.85153705 L8.96092035,4.0090186 C8.95258951,4.0007137 8.94215648,3.99451098 8.93180132,3.98823041 C8.91316721,3.97587688 8.89237903,3.96339359 8.87361516,3.95296056 L7.5158689,3.08302298 C7.43274211,3.02909308 7.33521152,3 7.2355528,3 L5.82782146,3 C5.65344465,3 5.49155113,3.08717543 5.39594105,3.23256297 L2.59303953,7.44522014 C2.59101521,7.44724446 2.58888708,7.44937259 2.58888708,7.45355099 C2.24431186,7.99326525 2.40002861,8.71163853 2.93987264,9.05844569 L11.3672113,14.4608048 C11.7139406,14.6829088 12.1083971,14.7950248 12.5049817,14.7950248 C12.8600159,14.7950248 13.2129998,14.7057213 13.5347885,14.5250639 L18.0089979,12.0212424 C18.4014301,11.8011367 18.6423239,11.4025278 18.6568055,10.9540117 C18.6692888,10.5055215 18.4513113,10.0924049 18.0733868,9.85153705 Z M3.46095279,8.01618157 L6.10611325,4.04013599 L7.08398849,4.04013599 L7.90617294,4.56749672 L4.83746292,9.03970777 L3.50037508,8.18438161 C3.44431705,8.14695768 3.425657,8.0722396 3.46095279,8.01618157 Z M17.6186939,10.9228943 C17.6166695,10.9706474 17.6000338,11.0598731 17.5024254,11.1139068 L13.02819,13.6198565 C12.683511,13.8129972 12.2599614,13.8005139 11.9278435,13.5867148 L5.711527,9.60031403 L8.78026297,5.12610462 L17.5148827,10.7256271 C17.6083647,10.7858376 17.620822,10.8751411 17.6186939,10.9228943 Z" id="Fill-1" stroke="#324DB5" stroke-width="0.5" fill="#324DB5" mask="url(#mask-2)"></path>
            </g>
        </g>
    </g>
</svg>