<?xml version="1.0" encoding="UTF-8"?>
<svg width="12px" height="12px" viewBox="0 0 12 12" version="1.1" xmlns="http://www.w3.org/2000/svg" xmlns:xlink="http://www.w3.org/1999/xlink">
    <title>形状结合</title>
    <g id="页面-1" stroke="none" stroke-width="1" fill="none" fill-rule="evenodd">
        <g id="门禁记录" transform="translate(-1032.000000, -110.000000)" fill="#FFFFFF">
            <path d="M1042.10588,110 C1042.29489,110 1042.46647,110.110092 1042.54422,110.281942 C1042.62331,110.453793 1042.59382,110.65518 1042.47049,110.798836 L1038.9785,114.857463 L1038.9785,122 L1038.01334,122 L1038.01334,114.677557 C1038.01334,114.562094 1038.0549,114.449318 1038.12996,114.36205 L1041.05225,110.965317 L1033.47844,110.965317 L1036.17016,114.378161 C1036.23718,114.464086 1036.27472,114.568807 1036.27472,114.677557 L1036.27472,119.537716 L1035.30956,119.537716 L1035.30956,114.845379 L1032.10443,110.782725 C1031.98915,110.637727 1031.9677,110.439024 1032.04813,110.272544 C1032.12856,110.106064 1032.29746,110 1032.48245,110 L1042.10588,110 Z M1044,117.615126 L1044,118.581786 L1040.19667,118.581786 L1040.19667,117.615126 L1044,117.615126 Z M1044,115.160886 L1044,116.127545 L1040.19667,116.127545 L1040.19667,115.160886 L1044,115.160886 Z" id="形状结合"></path>
        </g>
    </g>
</svg>