<?xml version="1.0" encoding="UTF-8"?>
<svg width="24px" height="24px" viewBox="0 0 24 24" version="1.1" xmlns="http://www.w3.org/2000/svg" xmlns:xlink="http://www.w3.org/1999/xlink">
    <title>标签-补录</title>
    <g id="二期" stroke="none" stroke-width="1" fill="none" fill-rule="evenodd">
        <g id="切图" transform="translate(-491.000000, -224.000000)" fill-rule="nonzero">
            <g id="标签-补录" transform="translate(491.000000, 224.000000)">
                <path d="M12,0 C18.627417,0 24,5.372583 24,12 C24,18.627417 18.627417,24 12,24 C5.372583,24 0,18.627417 0,12 C0,5.372583 5.372583,0 12,0 Z" id="路径" fill="#F28B00"></path>
                <path d="M12,1 C5.92486775,1 1,5.92486775 1,12 C1,18.0751322 5.92486775,23 12,23 C18.0751322,23 23,18.0751322 23,12 C23,5.92486775 18.0751322,1 12,1 Z" id="路径" fill="#FFFFFF"></path>
                <path d="M12.658,11.218 L11.244,12.646 L12.364,13.766 L11.384,15.04 C11.104,14.62 10.5066667,13.906 9.592,12.898 L9.592,18.204 L7.912,18.204 L7.912,13.43 C7.24933333,14.046 6.666,14.522 6.162,14.858 C5.94733333,14.214 5.658,13.682 5.294,13.262 C7.002,12.2633333 8.40666667,10.84 9.508,8.992 L5.728,8.992 L5.728,7.494 L8.22,7.494 C7.90266667,7.02733333 7.48733333,6.528 6.974,5.996 L8.178,5.142 C8.85,5.73 9.35866667,6.29933333 9.704,6.85 L8.864,7.494 L10.432,7.494 L10.726,7.424 L11.692,8.11 C11.244,9.15533333 10.6093333,10.2286667 9.788,11.33 C9.99333333,11.498 10.166,11.652 10.306,11.792 C10.838,11.1106667 11.2066667,10.5786667 11.412,10.196 L12.658,11.218 Z M15.416,9.272 C17.18,10.7653333 18.2626667,11.736 18.664,12.184 L17.306,13.416 C16.8766667,12.884 16.046,12.0673333 14.814,10.966 L14.814,18.176 L12.994,18.176 L12.994,5.17 L14.814,5.17 L14.814,9.762 L15.416,9.272 Z" id="形状结合" fill="#F28B00"></path>
            </g>
        </g>
    </g>
</svg>