<?xml version="1.0" encoding="utf-8"?>
<!-- Generator: Adobe Illustrator 25.3.1, SVG Export Plug-In . SVG Version: 6.00 Build 0)  -->
<svg version="1.1" id="图层_1" xmlns="http://www.w3.org/2000/svg" xmlns:xlink="http://www.w3.org/1999/xlink" x="0px" y="0px"
	 viewBox="0 0 16 16" style="enable-background:new 0 0 16 16;" xml:space="preserve">
<style type="text/css">
	.st0{fill-rule:evenodd;clip-rule:evenodd;fill:#192131;}
</style>
<g id="_x31_.Icon_x2F_通用_x2F_清除">
	<path id="形状结合" class="st0" d="M10.3,0v3H16v4.4H0V3h5.5V0H10.3z M8.9,1.4h-2l0,3l-5.5,0V6h13.2V4.4l-5.7,0L8.9,1.4z
		 M2.7,7.4v1.4c0,1.8-0.2,4-0.7,5.7l0,0.1h2.1l0-2.6h1.4l0,2.6h1.8V10h1.4v4.6h1.8V12h1.4v2.6H14l0-0.1c-0.4-1.5-0.7-3.6-0.7-5.2
		l0-0.5V7.4h1.4v1.4c0,1.8,0.3,4.1,0.8,5.8L16,16l-4.1,0v0h-1.4v0H8.7v0H7.3v0H5.5l0,0H4.1l0,0L0,16l0.3-0.9c0.6-1.7,0.9-4,1-5.8
		l0-1.9H2.7z"/>
</g>
</svg>
