<?xml version="1.0" encoding="utf-8"?>
<!-- Generator: Adobe Illustrator 25.3.1, SVG Export Plug-In . SVG Version: 6.00 Build 0)  -->
<svg version="1.1" id="图层_1" xmlns="http://www.w3.org/2000/svg" xmlns:xlink="http://www.w3.org/1999/xlink" x="0px" y="0px"
	 viewBox="0 0 88 88" style="enable-background:new 0 0 88 88;" xml:space="preserve">
<style type="text/css">
	.st0{filter:url(#Adobe_OpacityMaskFilter);}
	.st1{fill-rule:evenodd;clip-rule:evenodd;fill:#FFFFFF;}
	.st2{opacity:0.2;mask:url(#mask-2_1_);fill-rule:evenodd;clip-rule:evenodd;fill:#F54E4E;enable-background:new    ;}
	.st3{filter:url(#Adobe_OpacityMaskFilter_1_);}
	.st4{mask:url(#mask-2_2_);fill-rule:evenodd;clip-rule:evenodd;fill:#F54E4E;}
	.st5{filter:url(#Adobe_OpacityMaskFilter_2_);}
	.st6{opacity:0.3197;mask:url(#mask-2_3_);fill-rule:evenodd;clip-rule:evenodd;fill:#F54E4E;enable-background:new    ;}
	.st7{fill:#F54E4E;}
	.st8{font-family:'SourceHanSansCN-Medium-GBpc-EUC-H';}
	.st9{font-size:18px;}
</style>
<g id="二期">
	<g id="磅单状态" transform="translate(-732.000000, -41.000000)">
		<g id="状态-已完成" transform="translate(732.000000, 41.000000)">
			<g id="圆环">
				<g id="蒙版">
				</g>
				<defs>
					<filter id="Adobe_OpacityMaskFilter" filterUnits="userSpaceOnUse" x="3.9" y="3.9" width="80.1" height="80">
						<feColorMatrix  type="matrix" values="1 0 0 0 0  0 1 0 0 0  0 0 1 0 0  0 0 0 1 0"/>
					</filter>
				</defs>
				<mask maskUnits="userSpaceOnUse" x="3.9" y="3.9" width="80.1" height="80" id="mask-2_1_">
					<g class="st0">
						<rect id="path-1_1_" y="0" class="st1" width="88" height="88"/>
					</g>
				</mask>
				<path id="形状结合" class="st2" d="M57.7,6.4C78.2,13.8,88.9,36.4,81.8,57l-0.2,0.6c-7.6,20.8-30.5,31.4-51.3,23.9
					C9.5,73.9-1.2,51,6.3,30.2C13.9,9.5,36.9-1.2,57.7,6.4z M57.3,7.3c-20.3-7.4-42.7,3-50,23.3c-7.4,20.2,3.1,42.6,23.4,50
					c20.3,7.4,42.7-3,50-23.3C88,37.1,77.6,14.7,57.3,7.3z M60.7,51.3c-1.7,3.9-4.8,7.2-8.9,9.2c-4.2,1.9-8.7,2.1-12.8,0.9l1.3-0.6
					c3.7,0.9,7.7,0.5,11.1-1.2c3.5-1.6,6.3-4.3,8-7.8L60.7,51.3z M49,26.4L47.7,27c-3.7-0.9-7.6-0.4-11.1,1.2
					c-3.5,1.6-6.3,4.3-8,7.8l-1.3,0.6c1.7-3.9,4.8-7.2,8.9-9.2C40.4,25.4,44.9,25.2,49,26.4z"/>
				<defs>
					<filter id="Adobe_OpacityMaskFilter_1_" filterUnits="userSpaceOnUse" x="0.3" y="0.3" width="87.4" height="87.3">
						<feColorMatrix  type="matrix" values="1 0 0 0 0  0 1 0 0 0  0 0 1 0 0  0 0 0 1 0"/>
					</filter>
				</defs>
				<mask maskUnits="userSpaceOnUse" x="0.3" y="0.3" width="87.4" height="87.3" id="mask-2_2_">
					<g class="st3">
						<rect id="path-1_2_" y="0" class="st1" width="88" height="88"/>
					</g>
				</mask>
				<path id="Fill-2备份-6" class="st4" d="M85,58.9c-8.2,22.6-33.3,34.3-56,26C6.4,76.7-5.3,51.6,2.9,29
					c8.2-22.6,33.3-34.3,56-26C81.6,11.2,93.3,36.2,85,58.9L85,58.9z M84.6,58.7c8.1-22.4-3.4-47.1-25.8-55.3
					C36.3-4.8,11.5,6.8,3.4,29.2c-8.1,22.4,3.4,47.1,25.8,55.3C51.6,92.6,76.4,81.1,84.6,58.7L84.6,58.7z"/>
				<defs>
					<filter id="Adobe_OpacityMaskFilter_2_" filterUnits="userSpaceOnUse" x="16.7" y="16.7" width="54.5" height="54.5">
						<feColorMatrix  type="matrix" values="1 0 0 0 0  0 1 0 0 0  0 0 1 0 0  0 0 0 1 0"/>
					</filter>
				</defs>
				<mask maskUnits="userSpaceOnUse" x="16.7" y="16.7" width="54.5" height="54.5" id="mask-2_3_">
					<g class="st5">
						<rect id="path-1_3_" y="0" class="st1" width="88" height="88"/>
					</g>
				</mask>
				<path id="形状结合_1_" class="st6" d="M71.2,46.1c-0.8,9.4-6.5,18.2-15.7,22.5c-9.2,4.3-19.6,3-27.4-2.4l1.9-0.9
					c7.2,4.6,16.4,5.5,24.7,1.7C63,63.1,68.2,55.4,69.3,47L71.2,46.1z M32.5,19.3c9.2-4.3,19.6-3,27.4,2.4l-1.9,0.9
					c-7.2-4.6-16.4-5.5-24.7-1.7C25,24.8,19.7,32.4,18.6,40.8l-1.9,0.9C17.5,32.3,23.2,23.6,32.5,19.3z"/>
			</g>
			
				<g id="已完成" transform="translate(43.949829, 44.290557) rotate(-25.000000) translate(-43.949829, -44.290557) translate(16.949829, 35.290557)">
				<text transform="matrix(1 0 0 1 4.061675e-05 16)" class="st7 st8 st9">已拒绝</text>
			</g>
		</g>
	</g>
</g>
</svg>
