<?xml version="1.0" encoding="utf-8"?>
<!-- Generator: Adobe Illustrator 25.3.1, SVG Export Plug-In . SVG Version: 6.00 Build 0)  -->
<svg version="1.1" id="图层_1" xmlns="http://www.w3.org/2000/svg" xmlns:xlink="http://www.w3.org/1999/xlink" x="0px" y="0px"
	 viewBox="0 0 88 88" style="enable-background:new 0 0 88 88;" xml:space="preserve">
<style type="text/css">
	.st0{filter:url(#Adobe_OpacityMaskFilter);}
	.st1{fill-rule:evenodd;clip-rule:evenodd;fill:#FFFFFF;}
	.st2{mask:url(#mask-2_1_);}
	.st3{fill-rule:evenodd;clip-rule:evenodd;fill:#F54E4E;}
	.st4{opacity:0.2;fill-rule:evenodd;clip-rule:evenodd;fill:#F54E4E;enable-background:new    ;}
	.st5{opacity:0.3197;fill-rule:evenodd;clip-rule:evenodd;fill:#F54E4E;enable-background:new    ;}
	.st6{fill:#F54E4E;}
</style>
<g id="二期">
	<g id="磅单状态" transform="translate(-396.000000, -41.000000)">
		<g id="状态-异常" transform="translate(396.000000, 41.000000)">
			<g id="圆环">
				<g id="蒙版">
				</g>
				<defs>
					<filter id="Adobe_OpacityMaskFilter" filterUnits="userSpaceOnUse" x="0.3" y="0.3" width="87.4" height="87.3">
						<feColorMatrix  type="matrix" values="1 0 0 0 0  0 1 0 0 0  0 0 1 0 0  0 0 0 1 0"/>
					</filter>
				</defs>
				<mask maskUnits="userSpaceOnUse" x="0.3" y="0.3" width="87.4" height="87.3" id="mask-2_1_">
					<g class="st0">
						<rect id="path-1_1_" y="0" class="st1" width="88" height="88"/>
					</g>
				</mask>
				<g id="形状" class="st2">
					
						<g transform="translate(43.976436, 43.935257) rotate(20.000000) translate(-43.976436, -43.935257) translate(0.284899, 0.312619)">
						<path id="Fill-2备份-6" class="st3" d="M87.4,43.6c0,24.1-19.6,43.6-43.7,43.6C19.6,87.2,0,67.7,0,43.6
							C0,19.5,19.6,0,43.7,0C67.8,0,87.4,19.5,87.4,43.6L87.4,43.6z M86.9,43.6c0-23.8-19.3-43.1-43.2-43.1
							C19.8,0.5,0.5,19.8,0.5,43.6c0,23.8,19.3,43.1,43.2,43.1C67.5,86.8,86.9,67.4,86.9,43.6L86.9,43.6z"/>
						<path id="形状结合" class="st4" d="M43.7,3.6c21.9,0,39.7,17.5,40,39.3l0,0.7c0,22.1-17.9,40-40.1,40
							c-22.1,0-40-17.9-40-40C3.6,21.5,21.6,3.6,43.7,3.6z M43.7,4.6c-21.6,0-39.1,17.5-39.1,39c0,21.5,17.5,39,39.1,39
							c21.6,0,39.1-17.5,39.1-39C82.7,22.1,65.3,4.6,43.7,4.6z M61.9,44.9c-0.3,4.3-2,8.4-5.3,11.7c-3.3,3.3-7.4,5-11.7,5.3l1-1
							c3.8-0.5,7.3-2.2,10.1-4.9c2.7-2.7,4.4-6.2,4.9-10L61.9,44.9z M42.5,25.4l-1,1c-3.8,0.5-7.3,2.2-10.1,4.9
							c-2.7,2.7-4.4,6.2-4.9,10l-1,1c0.3-4.3,2-8.4,5.3-11.7C34,27.5,38.2,25.7,42.5,25.4z"/>
						<path id="形状结合_1_" class="st5" d="M70.1,36.4c2.4,9.2,0.1,19.3-7.1,26.5C55.8,70,45.6,72.4,36.4,70l1.5-1.5
							c8.3,1.8,17.3-0.4,23.7-6.9c6.4-6.4,8.7-15.4,6.9-23.7L70.1,36.4z M24.4,24.4c7.2-7.2,17.4-9.5,26.5-7.1l-1.5,1.5
							c-8.3-1.8-17.3,0.4-23.7,6.9c-6.4,6.4-8.7,15.4-6.9,23.7l-1.5,1.5C14.9,41.7,17.2,31.6,24.4,24.4z"/>
					</g>
				</g>
			</g>
			
				<g id="异常" transform="translate(43.582004, 43.875009) rotate(-25.000000) translate(-43.582004, -43.875009) translate(27.143604, 35.770209)">
				<path id="形状_1_" class="st6" d="M12,2.2l0,1.7l-8.9,0l0-1.7L12,2.2z M12.1,8.4c2.4,0,3-0.5,3.3-2.5
					c-0.5-0.1-1.2-0.3-1.5-0.5C13.7,6.7,13.5,7,12.1,7L5.5,7c-2,0-2.3-0.2-2.3-0.9l0-0.8l10.5,0l0-4.4l-12.1,0l0,5.3
					c0,1.9,0.9,2.3,4,2.3L12.1,8.4z M15.8,10.7l-3.8,0l0-1.7h-1.6v1.7l-5.1,0v-0.3l0-1.5l-1.6,0l0,1.4c0,0.1,0,0.2,0,0.3l-3.6,0
					l0,1.5l3.3,0c-0.4,1-1.3,2-3.3,2.8c0.4,0.3,0.9,0.9,1.1,1.3c2.6-1.1,3.6-2.6,3.9-4l5.3,0l0,3.9H12l0-3.9l3.8,0V10.7z"/>
				<path id="形状_2_" class="st6" d="M22.5,6.2l6,0l0,1.4l-6,0L22.5,6.2z M31.9,10.2l-5.4,0V8.9l3.6,0l0-3.8l-9.3,0l0,3.8l3.9,0
					v1.3l-5.5,0l0,5.2h1.7l0-3.7l3.9,0l0,4.5l1.7,0l0-4.5l3.7,0l0,2.1c0,0.2-0.1,0.3-0.4,0.3c-0.2,0-1.2,0-2.1,0
					c0.2,0.4,0.5,1.1,0.5,1.5c1.3,0,2.2,0,2.8-0.2c0.6-0.2,0.8-0.7,0.8-1.5V10.2z M30,2.6c0.5-0.5,1.1-1.2,1.6-1.9l-1.7-0.6
					c-0.3,0.6-0.9,1.5-1.4,2l1.1,0.4l-3.2,0l0-2.6l-1.7,0l0,2.6l-3.3,0l1-0.5c-0.3-0.6-0.8-1.4-1.4-2l-1.5,0.6
					C20,1.3,20.5,2,20.8,2.6l-2.6,0l0,3.9l1.6,0l0-2.5l11.5,0v2.5l1.6,0V2.6L30,2.6z"/>
			</g>
		</g>
	</g>
</g>
</svg>
