<?xml version="1.0" encoding="utf-8"?>
<!-- Generator: Adobe Illustrator 25.3.1, SVG Export Plug-In . SVG Version: 6.00 Build 0)  -->
<svg version="1.1" id="图层_1" xmlns="http://www.w3.org/2000/svg" xmlns:xlink="http://www.w3.org/1999/xlink" x="0px" y="0px"
	 viewBox="0 0 88 88" style="enable-background:new 0 0 88 88;" xml:space="preserve">
<style type="text/css">
	.st0{filter:url(#Adobe_OpacityMaskFilter);}
	.st1{fill-rule:evenodd;clip-rule:evenodd;fill:#FFFFFF;}
	.st2{mask:url(#mask-2_1_);}
	.st3{opacity:0.2;fill-rule:evenodd;clip-rule:evenodd;fill:#F17B00;enable-background:new    ;}
	.st4{fill-rule:evenodd;clip-rule:evenodd;fill:#F17B00;}
	.st5{opacity:0.3197;fill-rule:evenodd;clip-rule:evenodd;fill:#F17B00;enable-background:new    ;}
	.st6{fill:#F28B00;}
</style>
<g id="二期">
	<g id="磅单状态" transform="translate(-60.000000, -41.000000)">
		<g id="状态-未完成" transform="translate(60.000000, 41.000000)">
			<g id="圆环">
				<g id="蒙版">
				</g>
				<defs>
					<filter id="Adobe_OpacityMaskFilter" filterUnits="userSpaceOnUse" x="0.3" y="0.3" width="87.4" height="87.3">
						<feColorMatrix  type="matrix" values="1 0 0 0 0  0 1 0 0 0  0 0 1 0 0  0 0 0 1 0"/>
					</filter>
				</defs>
				<mask maskUnits="userSpaceOnUse" x="0.3" y="0.3" width="87.4" height="87.3" id="mask-2_1_">
					<g class="st0">
						<rect id="path-1_1_" y="0" class="st1" width="88" height="88"/>
					</g>
				</mask>
				<g id="形状" class="st2">
					
						<g transform="translate(43.976436, 43.935257) rotate(20.000000) translate(-43.976436, -43.935257) translate(0.284899, 0.312619)">
						<path id="形状结合" class="st3" d="M43.7,3.6c21.9,0,39.7,17.5,40,39.3l0,0.7c0,22.1-17.9,40-40.1,40
							c-22.1,0-40-17.9-40-40C3.6,21.5,21.6,3.6,43.7,3.6z M43.7,4.6c-21.6,0-39.1,17.5-39.1,39c0,21.5,17.5,39,39.1,39
							c21.6,0,39.1-17.5,39.1-39C82.7,22.1,65.3,4.6,43.7,4.6z M61.9,44.9c-0.3,4.3-2,8.4-5.3,11.7c-3.3,3.3-7.4,5-11.7,5.3l1-1
							c3.8-0.5,7.3-2.2,10.1-4.9c2.7-2.7,4.4-6.2,4.9-10L61.9,44.9z M42.5,25.4l-1,1c-3.8,0.5-7.3,2.2-10.1,4.9
							c-2.7,2.7-4.4,6.2-4.9,10l-1,1c0.3-4.3,2-8.4,5.3-11.7C34,27.5,38.2,25.7,42.5,25.4z"/>
						<path id="Fill-2备份-6" class="st4" d="M87.4,43.6c0,24.1-19.6,43.6-43.7,43.6C19.6,87.2,0,67.7,0,43.6
							C0,19.5,19.6,0,43.7,0C67.8,0,87.4,19.5,87.4,43.6L87.4,43.6z M86.9,43.6c0-23.8-19.3-43.1-43.2-43.1
							C19.8,0.5,0.5,19.8,0.5,43.6c0,23.8,19.3,43.1,43.2,43.1C67.5,86.8,86.9,67.4,86.9,43.6L86.9,43.6z"/>
						<path id="形状结合_1_" class="st5" d="M70.1,36.4c2.4,9.2,0.1,19.3-7.1,26.5C55.8,70,45.6,72.4,36.4,70l1.5-1.5
							c8.3,1.8,17.3-0.4,23.7-6.9c6.4-6.4,8.7-15.4,6.9-23.7L70.1,36.4z M24.4,24.4c7.2-7.2,17.4-9.5,26.5-7.1l-1.5,1.5
							c-8.3-1.8-17.3,0.4-23.7,6.9c-6.4,6.4-8.7,15.4-6.9,23.7l-1.5,1.5C14.9,41.7,17.2,31.6,24.4,24.4z"/>
					</g>
				</g>
			</g>
			
				<g id="未完成" transform="translate(43.444509, 43.660889) rotate(-25.000000) translate(-43.444509, -43.660889) translate(17.128509, 35.218889)">
				<path id="路径" class="st6" d="M16.3,9.1V7.4l-7.1,0l0-2.7l5.8,0l0-1.7L9.3,3V0.2l-1.8,0l0,2.8L1.8,3l0,1.7l5.7,0l0,2.7l-7,0
					l0,1.7l6.1,0C5,11.2,2.4,13.3,0,14.4c0.4,0.4,0.9,1,1.2,1.4c2.2-1.2,4.6-3.1,6.3-5.3l0,6.2h1.8l0-6.3c1.7,2.2,4,4.3,6.3,5.4
					c0.3-0.4,0.8-1.1,1.2-1.4c-2.4-1.1-5-3.1-6.6-5.3L16.3,9.1z"/>
				<path id="形状_1_" class="st6" d="M20.5,3.7l11.6,0v2.6l1.7,0V2.1l-6.2,0c-0.3-0.7-0.7-1.5-1.1-2.1l-1.7,0.5
					c0.3,0.5,0.6,1.1,0.8,1.6l-6.8,0l0,4.2l1.7,0V3.7z M31.1,6.9V5.4l-9.5,0l0,1.5L31.1,6.9z M30.1,14.9c-0.7,0-0.8-0.1-0.8-0.6l0-4
					l5,0V8.7l-15.9,0v1.6l4.6,0c-0.2,2.9-0.9,4.3-4.9,5c0.3,0.3,0.7,1,0.9,1.4c4.6-0.9,5.5-2.9,5.7-6.5l2.8,0l0,4
					c0,1.7,0.4,2.1,2.3,2.1l2.5,0c1.5,0,2-0.6,2.2-3.1c-0.4-0.1-1.1-0.4-1.5-0.7c-0.1,2-0.2,2.3-0.8,2.3H30.1z"/>
				<path id="路径_1_" class="st6" d="M49.8,5.9c-0.5,1.7-1.2,3.2-2.1,4.5c-0.4-1.6-0.7-3.5-0.9-5.7l5.7,0V3.1l-1.8,0l0.9-0.9
					c-0.7-0.6-2.1-1.4-3.1-2l-1,1c1,0.5,2.1,1.3,2.8,1.9l-3.5,0c-0.1-0.9-0.1-1.9-0.1-2.9l-1.8,0c0,1,0,1.9,0.1,2.9l-7.4,0v5.1
					c0,2.3-0.1,5.4-1.6,7.6c0.4,0.2,1.1,0.8,1.4,1.2c1.6-2.3,1.9-5.9,1.9-8.5l2.9,0c-0.1,2.7-0.2,3.7-0.4,4
					c-0.1,0.2-0.3,0.2-0.6,0.2c-0.3,0-1,0-1.7-0.1c0.3,0.4,0.4,1.1,0.5,1.6c0.9,0,1.7,0,2.1,0c0.5-0.1,0.8-0.2,1.2-0.6
					c0.4-0.5,0.5-2.1,0.6-6V6.9l-4.5,0V4.7l5.8,0c0.2,2.8,0.6,5.4,1.3,7.4c-1.1,1.3-2.4,2.3-3.9,3.2c0.4,0.3,1,1,1.2,1.4
					c1.2-0.8,2.4-1.7,3.4-2.8c0.8,1.7,1.9,2.7,3.2,2.7c1.5,0,2.1-0.8,2.4-4c-0.5-0.2-1-0.5-1.4-0.9c-0.1,2.3-0.3,3.2-0.8,3.2
					c-0.8,0-1.5-0.9-2.1-2.5c1.3-1.7,2.4-3.8,3.1-6.1L49.8,5.9z"/>
			</g>
		</g>
	</g>
</g>
</svg>
