<?xml version="1.0" encoding="utf-8"?>
<!-- Generator: Adobe Illustrator 25.3.1, SVG Export Plug-In . SVG Version: 6.00 Build 0)  -->
<svg version="1.1" id="图层_1" xmlns="http://www.w3.org/2000/svg" xmlns:xlink="http://www.w3.org/1999/xlink" x="0px" y="0px"
	 viewBox="0 0 16 16" style="enable-background:new 0 0 16 16;" xml:space="preserve">
<style type="text/css">
	.st0{fill-rule:evenodd;clip-rule:evenodd;fill:#192131;}
</style>
<g id="_x31_.Icon_x2F_通用_x2F_状态错误fill">
	<path id="形状" class="st0" d="M8,0C3.6,0,0,3.6,0,8s3.6,8,8,8s8-3.6,8-8S12.4,0,8,0z M11,11l-1.2,0L8,8.9L6.2,11L5,11
		C5,11,4.9,11,4.9,10.9c0,0,0-0.1,0-0.1L7.3,8L4.9,5.3c0,0,0-0.1,0-0.1C4.9,5.1,5,5,5,5l1.2,0L8,7.2L9.8,5L11,5
		c0.1,0,0.1,0.1,0.1,0.1c0,0,0,0.1,0,0.1L8.7,8l2.3,2.8c0,0,0,0.1,0,0.1C11.1,11,11,11,11,11z"/>
</g>
</svg>
