<?xml version="1.0" encoding="UTF-8"?>
<svg width="88px" height="88px" viewBox="0 0 88 88" version="1.1" xmlns="http://www.w3.org/2000/svg" xmlns:xlink="http://www.w3.org/1999/xlink">
    <title>状态-补录</title>
    <defs>
        <rect id="path-1" x="0" y="0" width="88" height="88"></rect>
    </defs>
    <g id="二期" stroke="none" stroke-width="1" fill="none" fill-rule="evenodd">
        <g id="切图" transform="translate(-692.000000, -25.000000)">
            <g id="状态-补录" transform="translate(692.000000, 25.000000)">
                <g id="圆环" transform="translate(44.000000, 44.000000) scale(-1, 1) translate(-44.000000, -44.000000) ">
                    <mask id="mask-2" fill="white">
                        <use xlink:href="#path-1"></use>
                    </mask>
                    <g id="蒙版"></g>
                    <g id="形状" mask="url(#mask-2)" fill="#F17B00">
                        <g transform="translate(43.976436, 43.935257) rotate(20.000000) translate(-43.976436, -43.935257) translate(0.284899, 0.312619)">
                            <path d="M43.6906964,3.6352199 C65.5893494,3.6352199 83.3830615,21.1820052 83.7367459,42.9620646 L83.7421116,43.6224452 C83.7421116,65.7070016 65.8105479,83.6100576 43.6906964,83.6100576 C21.5720081,83.6100576 3.64096137,65.7059693 3.64096137,43.6233485 C3.64096137,21.5398244 21.5720081,3.6352199 43.6906964,3.6352199 Z M43.6906964,4.62620681 C22.1202451,4.62620681 4.63236311,22.0861575 4.63236311,43.6224452 C4.63236311,65.1601523 22.1202451,82.6190707 43.6906964,82.6190707 C65.2626986,82.6190707 82.7495467,65.1601523 82.7495467,43.6224452 C82.7495467,22.0852543 65.2626986,4.62620681 43.6906964,4.62620681 Z M61.8963434,44.8516277 C61.6259309,49.1046479 59.8813251,53.2829079 56.6253812,56.5364565 C53.3682487,59.7870384 49.1836908,61.5281778 44.9224665,61.7987383 L45.9293813,60.7934816 C49.7338761,60.3247476 53.2724158,58.5997765 55.982186,55.8932821 C58.692699,53.1873811 60.4209613,49.6545204 60.8906172,45.855846 Z M42.4606065,25.4465393 L41.4520147,26.452354 C37.6486623,26.9210717 34.1109399,28.6465757 31.4014544,31.3529753 C28.6907803,34.057595 26.9631452,37.590332 26.4942815,41.3876868 L25.4867296,42.3936498 C25.756668,38.1384053 27.5022791,33.9614782 30.7584752,30.7098235 C34.0152656,27.4587621 38.1999783,25.7170902 42.4606065,25.4465393 Z" id="形状结合" opacity="0.200000003"></path>
                            <path d="M87.383073,43.6221878 C87.383073,67.7148545 67.8217747,87.2452775 43.6910203,87.2452775 C19.5623306,87.2452775 0,67.7148545 0,43.6230897 C0,19.530423 19.5612983,0 43.6910203,0 C67.822807,0 87.383073,19.5295211 87.383073,43.6230897 L87.383073,43.6221878 Z M86.887027,43.6221878 C86.887027,19.8042092 67.5491042,0.495263058 43.6910203,0.495263058 C19.8355173,0.495263058 0.496046011,19.8042092 0.496046011,43.6230897 C0.496046011,67.4415838 19.8355173,86.7500145 43.6910203,86.7500145 C67.5480719,86.7500145 86.887027,67.4415838 86.887027,43.6230897 L86.887027,43.6221878 Z" id="Fill-2备份-6"></path>
                            <path d="M70.0666686,36.352199 C72.5116051,45.5059111 70.148391,55.6741618 62.9553233,62.8558821 C55.7627047,70.0365564 45.577789,72.3984335 36.4096137,69.9554112 L37.9240226,68.4435409 C46.2034293,70.2834289 55.2183377,67.9964206 61.6597389,61.5635371 C68.1020382,55.1312514 70.3940072,46.1293689 68.5516611,37.8640693 Z M24.4274599,24.3893425 C31.6203193,17.2104472 41.8055758,14.8463238 50.9734592,17.2897992 L49.4613946,18.8016726 C41.1805133,16.9623786 32.1641058,19.250587 25.7226386,25.6834834 C19.279974,32.1157819 16.9879283,41.1160385 18.8303361,49.3824007 L17.3172238,50.8930786 C14.8708583,41.739946 17.2341515,31.5712266 24.4274599,24.3893425 Z" id="形状结合" opacity="0.319653466"></path>
                        </g>
                    </g>
                </g>
                <path d="M49.1818698,38.5095394 L59.035248,43.1042451 L59.3266932,43.160705 L60.4958595,43.8052003 C59.7177338,45.3887129 58.7058978,47.2604608 57.7755417,48.8722913 L59.8636749,49.8460037 L59.2398903,51.183714 L52.8612961,48.2093267 L52.6711179,48.6171652 C52.6964014,49.542552 52.826074,50.4570338 53.107977,51.3431979 C54.3823681,51.1231633 55.8937674,50.7355962 56.9299633,50.344907 L57.7862259,51.9159762 C56.4509778,52.266519 54.8884393,52.5507963 53.6129489,52.7305967 C54.3071754,54.2658288 55.3852319,55.7019925 56.8275069,56.910778 C56.3643078,57.0522792 55.6184578,57.4591941 55.2162036,57.76814 C53.2245888,55.905977 52.0027448,53.6281928 51.5148343,51.0968233 L50.0466585,54.2453366 C49.6815163,55.0283865 49.3271034,55.3199195 48.664844,55.2494325 C47.9949774,55.195259 47.1390662,54.8160018 45.9068442,54.2215465 C45.9915341,53.7843788 46.0381004,53.1308257 45.9933812,52.6730352 C46.8590982,53.1164472 47.7726564,53.5424464 48.0249666,53.6402398 C48.2859833,53.7619539 48.4055866,53.7184218 48.5120864,53.4900322 L49.3412635,51.7118564 C47.0370086,51.6701264 44.651186,51.5903608 42.8134281,51.5278323 L42.6204363,49.7695314 C44.4375714,49.9614689 47.2844824,50.1172179 50.0182979,50.2599513 L51.3115098,47.4866495 L45.096051,44.5883334 L45.7198355,43.2506231 L56.1768148,48.1267926 C56.3996201,47.7341684 56.6224254,47.3415441 56.8365243,46.9249992 L47.8477636,42.7334713 L48.4791553,41.3794475 L57.5494837,45.609011 C57.7711897,45.1761526 57.9700743,44.7922347 58.1689589,44.4083169 L48.5276567,39.9125038 L49.1818698,38.5095394 Z M46.9667874,45.8578882 C47.7271916,46.867877 48.6443113,48.3084378 49.0404091,49.2478518 L47.4768592,49.7898478 C47.1460156,48.8808624 46.275638,47.3826546 45.5293487,46.2998045 Z M40.5973862,33.493628 L42.2287403,34.2543409 L39.7716377,39.5236144 L40.5305912,39.301557 C41.4129731,40.9443881 42.5880751,43.2798194 43.0441063,44.6443968 L41.3044053,45.2234171 C40.9495532,44.0251851 40.0921034,42.1159287 39.31521,40.5024268 L35.2682175,49.1812302 L33.6368635,48.4205173 L40.5973862,33.493628 Z M34.7669446,30.8344308 C35.1543359,31.7499241 35.4678546,32.9090212 35.5441894,33.6397448 L34.1991356,33.9261328 L36.1730739,34.8465954 L36.4808326,34.9106624 L37.0966136,35.9326555 C35.9322836,36.9388621 34.5721912,37.8537832 33.158761,38.584946 C33.2708451,38.8556805 33.4101477,39.2384112 33.5744702,39.6526697 C34.3540466,39.3012033 35.2749484,38.8170299 35.8848815,38.4460399 L36.5856159,39.9247243 C35.7244718,40.2381551 34.8078793,40.5853123 34.0261043,40.8563103 C34.3645551,41.7489822 34.6779859,42.6101263 34.7846614,42.9776427 L33.330997,43.7099048 C33.1545824,42.85307 32.7158761,41.238381 32.310984,39.9770934 L29.2985611,46.4372553 L27.7814018,45.7297923 L30.5808252,39.7264095 C29.4489466,40.1519244 28.3376909,40.4480302 27.2959986,40.6375484 C27.3393549,40.1612458 27.2662301,39.2532718 27.1258282,38.8303069 C29.5746186,38.5620796 32.5701107,37.3769962 34.7020846,35.8289692 L30.0853527,33.6761518 L30.7243515,32.3058144 L33.9544325,33.8120259 C33.9020183,33.0725958 33.622226,31.9689472 33.2924816,31.100196 Z" id="形状结合" fill="#F28B00" fill-rule="nonzero"></path>
            </g>
        </g>
    </g>
</svg>