<?xml version="1.0" encoding="utf-8"?>
<!-- Generator: Adobe Illustrator 25.3.1, SVG Export Plug-In . SVG Version: 6.00 Build 0)  -->
<svg version="1.1" id="图层_1" xmlns="http://www.w3.org/2000/svg" xmlns:xlink="http://www.w3.org/1999/xlink" x="0px" y="0px"
	 viewBox="0 0 25 25" style="enable-background:new 0 0 25 25;" xml:space="preserve">
<style type="text/css">
	.st0{opacity:0.7469;fill-rule:evenodd;clip-rule:evenodd;fill:url(#形状结合_1_);enable-background:new    ;}
	.st1{opacity:0.3;fill-rule:evenodd;clip-rule:evenodd;fill:url(#形状_1_);enable-background:new    ;}
</style>
<g id="控件">
	<g id="全局_x2F_header" transform="translate(-887.000000, -17.000000)">
		<g id="user" transform="translate(887.000000, 17.000000)">
			
				<linearGradient id="形状结合_1_" gradientUnits="userSpaceOnUse" x1="-266.2726" y1="411.8953" x2="-265.8291" y2="411.4838" gradientTransform="matrix(15.5365 0 0 -18.989 4147.208 7836.3169)">
				<stop  offset="0" style="stop-color:#328DE8"/>
				<stop  offset="1" style="stop-color:#1F4CCC"/>
			</linearGradient>
			<path id="形状结合" class="st0" d="M8.6,8.6c0,1.9,1.5,3.5,3.5,3.5s3.5-1.5,3.5-3.5S14,5.2,12.1,5.2S8.6,6.7,8.6,8.6z
				 M19.9,19.7c0-0.4-0.2-0.8-0.5-1c-1.1-0.8-3.6-2.1-7.2-2.1c-3.4,0-5.1,0.9-6.5,1.7c-0.1,0.1-0.2,0.1-0.4,0.2
				c-0.5,0.3-0.9,0.8-0.9,1.4v1.7c2.1,1.6,4.8,2.6,7.7,2.6c3,0,5.7-1,7.9-2.8V19.7L19.9,19.7z"/>
			
				<linearGradient id="形状_1_" gradientUnits="userSpaceOnUse" x1="-272.3336" y1="412.4568" x2="-273.1593" y2="413.1023" gradientTransform="matrix(24.1678 0 0 -19.8521 6602.8325 8205.6445)">
				<stop  offset="0" style="stop-color:#69C7FF"/>
				<stop  offset="1" style="stop-color:#3872FF"/>
			</linearGradient>
			<path id="形状" class="st1" d="M4.8,17c0.1-0.1,0.2-0.1,0.4-0.2C6.6,16,8.5,15,12.2,15c4,0,6.7,1.5,7.9,2.4
				c0.9,0.6,1,1.6,1.1,2.1c0,0.1,0.2,0.2,0.3,0.1c1.8-2.2,2.8-4.9,2.7-8C24,5.2,18.7,0.1,12.3,0C5.5-0.1,0,5.3,0,12
				c0,3,1.1,5.7,2.9,7.8c0.1,0.1,0.4,0.1,0.4-0.1C3.6,18.9,4.1,17.4,4.8,17z M12.1,3.5c2.9,0,5.2,2.3,5.2,5.2s-2.3,5.2-5.2,5.2
				s-5.2-2.3-5.2-5.2S9.2,3.5,12.1,3.5z"/>
		</g>
	</g>
</g>
</svg>
