<?xml version="1.0" encoding="UTF-8"?>
<svg width="16px" height="16px" viewBox="0 0 16 16" version="1.1" xmlns="http://www.w3.org/2000/svg" xmlns:xlink="http://www.w3.org/1999/xlink">
    <title>电话</title>
    <g id="页面-1" stroke="none" stroke-width="1" fill="none" fill-rule="evenodd">
        <g id="画板" transform="translate(-171.000000, -125.000000)" fill="#434550">
            <g id="1.Icon/通用/电话" transform="translate(171.000000, 125.000000)">
                <path d="M15.3694322,4.87678938 C14.9664035,3.92480788 14.390012,3.07028733 13.6561149,2.33728118 C12.9222179,1.60427502 12.0669847,1.02877432 11.1144687,0.626992869 C10.128456,0.210957533 9.0806171,2.84217094e-14 8,2.84217094e-14 C6.9202623,2.84217094e-14 5.87242341,0.211670227 4.88587623,0.628952779 C3.93318204,1.03198144 3.07777062,1.60872936 2.3431609,2.3431609 C1.60855119,3.07777062 1.03180327,3.93318204 0.628952779,4.88587623 C0.211670227,5.87260158 0,6.9202623 0,8 C0,9.07972623 0.211670227,10.1275651 0.628774605,11.1141123 C1.03180327,12.0668065 1.60855119,12.9222179 2.34298273,13.6568276 C3.07759245,14.3914374 3.93300386,14.9681853 4.88569806,15.3710358 C5.87242341,15.7884965 6.9202623,16.0001667 8,16.0001667 C9.38689751,16.0001667 10.7265847,15.6546881 11.8738445,15.0011474 C12.229479,14.798564 12.4940668,14.5336199 12.6387437,14.2348228 C12.7844897,13.9337094 12.8071178,13.6023065 12.7023517,13.3015495 C12.5624854,12.8999462 12.2259155,12.6116613 11.7993679,12.491216 C11.8715282,12.3438664 11.9271184,12.1856483 11.9640003,12.0183433 C12.084802,11.4704595 11.9917954,10.891039 11.7020852,10.3866295 C11.1223083,9.37745431 10.23928,8.92489338 9.3977661,9.20551679 C9.24382411,9.25683078 9.07919171,9.25968156 8.92150809,9.21406912 C8.36631917,9.0530002 7.92141971,8.6946931 7.66859139,8.20525025 C7.4519323,7.78582961 7.40614169,7.31883663 7.54333535,6.92400395 C7.58930414,6.79162097 7.67696555,6.67099745 7.7966982,6.57531823 C8.51919212,5.99785762 8.59830119,4.99117683 8.00302322,3.94814862 C7.69977177,3.4166568 7.19785676,3.02271498 6.62627588,2.86734761 C6.10387091,2.72534326 5.56756839,2.79002027 5.11607651,3.04926285 L5.02128816,3.10378397 C4.21790344,3.56525357 3.66093279,4.33941783 3.45264786,5.28338152 C3.24774823,6.21202228 3.4065009,7.19589685 3.89932906,8.05362452 L6.08284642,11.8546018 C6.57567458,12.7125076 7.34574084,13.3450238 8.25121903,13.6358031 C8.60578448,13.7496561 8.96444792,13.8061371 9.31758798,13.8061371 C9.88115105,13.8061371 10.4304602,13.662351 10.9243574,13.3785205 C10.9355824,13.3721062 10.9462728,13.3653356 10.956785,13.3580305 C10.977275,13.3473401 10.9974086,13.3361152 11.0171859,13.3248902 C11.0709943,13.3373624 11.1280098,13.3402132 11.1859163,13.3313045 C11.5663169,13.2726854 11.8027532,13.4268055 11.8611942,13.594645 C11.93086,13.794734 11.7667622,14.0370501 11.433043,14.2271613 C10.4197698,14.8040874 9.23259918,15.1092988 8,15.1092988 C4.07999708,15.1092988 0.890867959,11.9201696 0.890867959,8.00017244 C0.890867959,4.08017525 4.07999708,0.891046132 8,0.891046132 C11.9153589,0.891046132 15.1044881,4.07643361 15.1091206,7.99162011 C15.110546,9.17807806 14.8140651,10.3524202 14.2517493,11.3877869 C14.2517493,11.3877869 15.034644,11.8129091 15.034644,11.8129091 C15.667873,10.6471193 16.0015921,9.32524944 16,7.99055107 C15.9987413,6.90975006 15.7865366,5.86226752 15.3694322,4.87678938 Z M10.4293912,12.6344676 C9.21727625,13.2905027 7.62529521,12.7506367 6.85540712,11.4107713 L4.67171158,7.6097941 C3.8909549,6.25086412 4.24694573,4.57603236 5.46511858,3.87616649 L5.55990693,3.82164537 C5.80453927,3.68106641 6.10030743,3.6473916 6.3926903,3.72685702 C6.7374562,3.82057633 7.04248939,4.06217972 7.22939348,4.38948461 C7.36712167,4.63090982 7.7751392,5.45193373 7.24061842,5.87919401 C6.98957183,6.07999564 6.80320225,6.33995091 6.70199965,6.63126474 C6.48498422,7.25576318 6.54877036,7.97825709 6.87714429,8.61380229 C7.24329102,9.32239867 7.88115248,9.83945843 8.67331227,10.0693024 C9.00542785,10.1656943 9.35340087,10.1591019 9.67963672,10.050416 C10.3043133,9.84213103 10.7944689,10.5945581 10.9298808,10.8302818 C11.1087671,11.1417292 11.167208,11.495582 11.094335,11.8262722 C11.0248473,12.1416394 10.8425758,12.3980312 10.5811951,12.5480534 C10.5580325,12.5614164 10.5339791,12.5740667 10.5090348,12.5858262 C10.480527,12.5993674 10.4539791,12.6157593 10.4293912,12.6344676 Z" id="形状"></path>
            </g>
        </g>
    </g>
</svg>