<?xml version="1.0" encoding="UTF-8"?>
<svg width="27px" height="24px" viewBox="0 0 27 24" version="1.1" xmlns="http://www.w3.org/2000/svg" xmlns:xlink="http://www.w3.org/1999/xlink">
    <title>编组 3</title>
    <defs>
        <linearGradient x1="50%" y1="0%" x2="50%" y2="100%" id="linearGradient-1">
            <stop stop-color="#FFFFFF" offset="0%"></stop>
            <stop stop-color="#A6B8FF" offset="99.9149776%"></stop>
        </linearGradient>
        <path d="M19.517807,22.3257401 L7.27169833,22.3257401 C6.80936378,22.3257401 6.43445121,22.7005355 6.43445121,23.1628701 C6.43445121,23.6252046 6.80936378,24 7.27169833,24 L19.517807,24 C19.9801416,24 20.354937,23.6252046 20.354937,23.1628701 C20.354937,22.7005355 19.9801416,22.3257401 19.517807,22.3257401 Z M24.559278,0 L2.23195585,0 C0.790342762,0 0,0.82374124 0,2.20848902 L0,18.4496124 C0,19.8359422 0.790342762,20.6546737 2.23195585,20.6546737 L24.5575495,20.6546737 C25.9991919,20.6546737 26.7895054,19.8359422 26.7895054,18.4478838 L26.7895054,2.20676051 C26.7895054,0.825469758 25.9991919,0 24.559278,0 Z M20.2611213,11.2355757 C20.1879603,11.5622042 19.9418634,11.8226065 19.6199186,11.9141032 L19.4124173,11.9638817 C18.269726,12.3011485 17.5905087,13.4733584 17.8664872,14.6323885 L17.9328586,14.8398898 C18.0146972,15.1651022 17.9137242,15.5090497 17.66937,15.7383723 C17.414777,15.9338192 17.1455881,16.1092604 16.8641996,16.263425 C16.5892014,16.4288088 16.3028387,16.574441 16.0072537,16.6991233 C15.6868702,16.7974095 15.3383842,16.7130293 15.0984234,16.4792772 L14.9489426,16.3194485 C14.0836458,15.4959788 12.724485,15.4959788 11.8591882,16.3194485 L11.7098526,16.4792772 C11.4671687,16.708636 11.1191184,16.7881873 10.8010223,16.6867785 C10.5050016,16.5639479 10.2192199,16.4182794 9.94607335,16.250935 C9.66410394,16.0973513 9.39433409,15.9224548 9.13890597,15.7280244 C8.89440662,15.4986656 8.79354246,15.1547544 8.87523589,14.8295419 L8.93750444,14.6220406 C9.20513211,13.461885 8.52039595,12.294613 7.37712365,11.9618848 L7.16962234,11.9121062 C6.84836748,11.8199197 6.60216164,11.5610787 6.52642275,11.2355757 C6.48644744,10.917044 6.47054445,10.5957891 6.47864118,10.2748247 C6.47068968,9.95389661 6.48670159,9.63278698 6.52642275,9.31407368 C6.60314196,8.99002308 6.84923887,8.73288848 7.16962234,8.64182754 L7.38747149,8.59204901 C8.52889206,8.25220435 9.20571304,7.07970396 8.92929879,5.92140007 L8.86488806,5.71389877 C8.78333986,5.39010232 8.88431294,5.04746193 9.1284129,4.81951911 C9.382425,4.62280134 9.65175916,4.44667031 9.93358333,4.29250573 C10.2085816,4.12712193 10.4949443,3.98145347 10.7904929,3.85680745 C11.1103318,3.75837595 11.4582369,3.84275618 11.6973626,4.07661723 L11.8509826,4.23858807 C12.2662393,4.63699784 12.8192131,4.85996644 13.3947705,4.86109199 C13.9672054,4.86348833 14.5181822,4.64407794 14.9323497,4.24897221 L15.0879303,4.08286224 C15.3280364,3.84914642 15.6765224,3.76476619 15.9969059,3.86290723 C16.2920552,3.98740801 16.5776917,4.13293124 16.8518548,4.29875074 C17.1345141,4.45218915 17.4049738,4.62694047 17.6609829,4.8216613 C17.9035216,5.05229092 18.0035143,5.39536701 17.9225107,5.72014377 L17.8518913,5.92764508 C17.5705028,7.08482341 18.2458715,8.25932075 19.3874736,8.59829402 L19.6115678,8.65003319 C19.9340571,8.74011381 20.182151,8.9985192 20.2590154,9.32445782 C20.2994264,9.64371574 20.3167454,9.96551523 20.3108998,10.2873147 C20.3187061,10.6041763 20.301968,10.921292 20.2611213,11.2355757 Z" id="path-2"></path>
        <filter x="-3.7%" y="-4.2%" width="107.5%" height="108.3%" filterUnits="objectBoundingBox" id="filter-3">
            <feGaussianBlur stdDeviation="0.5" in="SourceAlpha" result="shadowBlurInner1"></feGaussianBlur>
            <feOffset dx="0" dy="1" in="shadowBlurInner1" result="shadowOffsetInner1"></feOffset>
            <feComposite in="shadowOffsetInner1" in2="SourceAlpha" operator="arithmetic" k2="-1" k3="1" result="shadowInnerInner1"></feComposite>
            <feColorMatrix values="0 0 0 0 1   0 0 0 0 1   0 0 0 0 1  0 0 0 1 0" type="matrix" in="shadowInnerInner1"></feColorMatrix>
        </filter>
        <linearGradient x1="50%" y1="0%" x2="50%" y2="100%" id="linearGradient-4">
            <stop stop-color="#FFFFFF" offset="0%"></stop>
            <stop stop-color="#A6B8FF" offset="99.9149776%"></stop>
        </linearGradient>
    </defs>
    <g id="页面-1" stroke="none" stroke-width="1" fill="none" fill-rule="evenodd">
        <g id="手动开闸" transform="translate(-31.000000, -368.000000)">
            <g id="编组-3" transform="translate(30.998096, 368.000000)">
                <g id="Fill-1">
                    <use fill="url(#linearGradient-1)" fill-rule="evenodd" xlink:href="#path-2"></use>
                    <use fill="black" fill-opacity="1" filter="url(#filter-3)" xlink:href="#path-2"></use>
                </g>
                <path d="M11.7776157,12.454642 C12.5759623,13.0389465 13.6253918,13.1530221 14.5305589,12.7538488 C15.4358719,12.3546755 16.0593683,11.5027363 16.1661888,10.5192585 C16.2729728,9.53559833 15.8468939,8.5697659 15.0485108,7.98560718 C14.2501642,7.40112033 13.2007347,7.28708123 12.2954217,7.68625454 C11.3902546,8.08557368 10.7667582,8.93733054 10.6599377,9.92099069 C10.5531537,10.9044686 10.9792326,11.870301 11.7776157,12.454642 Z" id="Fill-3" fill="url(#linearGradient-4)"></path>
            </g>
        </g>
    </g>
</svg>