<?xml version="1.0" encoding="UTF-8"?>
<svg width="16px" height="17px" viewBox="0 0 16 17" version="1.1" xmlns="http://www.w3.org/2000/svg" xmlns:xlink="http://www.w3.org/1999/xlink">
    <title>编辑-白</title>
    <g id="页面-1" stroke="none" stroke-width="1" fill="none" fill-rule="evenodd">
        <g id="画板" transform="translate(-593.000000, -231.000000)" fill="#FFFFFF">
            <g id="1.Icon/通用/编辑" transform="translate(593.000000, 231.081356)">
                <path d="M7.36283187,1.27433628 L7.36283187,2.40707965 L1.13274337,2.40707965 L1.13274337,14.8672566 L13.5929203,14.8672566 L13.5929203,8.63716813 L14.7256637,8.63716813 L14.7256637,16 L8.8817842e-15,16 L8.8817842e-15,1.27433628 L7.36283187,1.27433628 Z M12.2053097,7.10542736e-15 L16,3.79469026 L7.39115044,12.4035398 L4.21946904,11.780531 L3.59646018,8.60884956 L12.2053097,7.10542736e-15 Z M9.994,3.796 L4.8141593,8.97699114 L5.18230088,10.8176991 L7.02300886,11.1858407 L12.203,6.005 L9.994,3.796 Z M12.2053097,1.5858407 L10.795,2.995 L13.004,5.204 L14.4141593,3.79469026 L12.2053097,1.5858407 Z" id="形状结合"></path>
            </g>
        </g>
    </g>
</svg>