<?xml version="1.0" encoding="UTF-8"?>
<svg width="16px" height="16px" viewBox="0 0 16 16" version="1.1" xmlns="http://www.w3.org/2000/svg" xmlns:xlink="http://www.w3.org/1999/xlink">
    <title>形状</title>
    <g id="页面-1" stroke="none" stroke-width="1" fill="none" fill-rule="evenodd">
        <g id="登录" transform="translate(-188.000000, -527.000000)" fill="#434550">
            <path d="M203.369432,531.876789 C202.966404,530.924808 202.390012,530.070287 201.656115,529.337281 C200.922218,528.604275 200.066985,528.028774 199.114469,527.626993 C198.128456,527.210958 197.080617,527 196,527 C194.920262,527 193.872423,527.21167 192.885876,527.628953 C191.933182,528.031981 191.077771,528.608729 190.343161,529.343161 C189.608551,530.077771 189.031803,530.933182 188.628953,531.885876 C188.21167,532.872602 188,533.920262 188,535 C188,536.079726 188.21167,537.127565 188.628775,538.114112 C189.031803,539.066806 189.608551,539.922218 190.342983,540.656828 C191.077592,541.391437 191.933004,541.968185 192.885698,542.371036 C193.872423,542.788496 194.920262,543.000167 196,543.000167 C197.386898,543.000167 198.726585,542.654688 199.873845,542.001147 C200.229479,541.798564 200.494067,541.53362 200.638744,541.234823 C200.78449,540.933709 200.807118,540.602307 200.702352,540.301549 C200.562485,539.899946 200.225916,539.611661 199.799368,539.491216 C199.871528,539.343866 199.927118,539.185648 199.964,539.018343 C200.084802,538.470459 199.991795,537.891039 199.702085,537.38663 C199.122308,536.377454 198.23928,535.924893 197.397766,536.205517 C197.243824,536.256831 197.079192,536.259682 196.921508,536.214069 C196.366319,536.053 195.92142,535.694693 195.668591,535.20525 C195.451932,534.78583 195.406142,534.318837 195.543335,533.924004 C195.589304,533.791621 195.676966,533.670997 195.796698,533.575318 C196.519192,532.997858 196.598301,531.991177 196.003023,530.948149 C195.699772,530.416657 195.197857,530.022715 194.626276,529.867348 C194.103871,529.725343 193.567568,529.79002 193.116077,530.049263 L193.021288,530.103784 C192.217903,530.565254 191.660933,531.339418 191.452648,532.283382 C191.247748,533.212022 191.406501,534.195897 191.899329,535.053625 L194.082846,538.854602 C194.575675,539.712508 195.345741,540.345024 196.251219,540.635803 C196.605784,540.749656 196.964448,540.806137 197.317588,540.806137 C197.881151,540.806137 198.43046,540.662351 198.924357,540.37852 C198.935582,540.372106 198.946273,540.365336 198.956785,540.358031 C198.977275,540.34734 198.997409,540.336115 199.017186,540.32489 C199.070994,540.337362 199.12801,540.340213 199.185916,540.331304 C199.566317,540.272685 199.802753,540.426806 199.861194,540.594645 C199.93086,540.794734 199.766762,541.03705 199.433043,541.227161 C198.41977,541.804087 197.232599,542.109299 196,542.109299 C192.079997,542.109299 188.890868,538.92017 188.890868,535.000172 C188.890868,531.080175 192.079997,527.891046 196,527.891046 C199.915359,527.891046 203.104488,531.076434 203.109121,534.99162 C203.110546,536.178078 202.814065,537.35242 202.251749,538.387787 C202.251749,538.387787 203.034644,538.812909 203.034644,538.812909 C203.667873,537.647119 204.001592,536.325249 204,534.990551 C203.998741,533.90975 203.786537,532.862268 203.369432,531.876789 Z M198.429391,539.634468 C197.217276,540.290503 195.625295,539.750637 194.855407,538.410771 L192.671712,534.609794 C191.890955,533.250864 192.246946,531.576032 193.465119,530.876166 L193.559907,530.821645 C193.804539,530.681066 194.100307,530.647392 194.39269,530.726857 C194.737456,530.820576 195.042489,531.06218 195.229393,531.389485 C195.367122,531.63091 195.775139,532.451934 195.240618,532.879194 C194.989572,533.079996 194.803202,533.339951 194.702,533.631265 C194.484984,534.255763 194.54877,534.978257 194.877144,535.613802 C195.243291,536.322399 195.881152,536.839458 196.673312,537.069302 C197.005428,537.165694 197.353401,537.159102 197.679637,537.050416 C198.304313,536.842131 198.794469,537.594558 198.929881,537.830282 C199.108767,538.141729 199.167208,538.495582 199.094335,538.826272 C199.024847,539.141639 198.842576,539.398031 198.581195,539.548053 C198.558033,539.561416 198.533979,539.574067 198.509035,539.585826 C198.480527,539.599367 198.453979,539.615759 198.429391,539.634468 Z" id="形状"></path>
        </g>
    </g>
</svg>