<?xml version="1.0" encoding="utf-8"?>
<!-- Generator: Adobe Illustrator 25.3.1, SVG Export Plug-In . SVG Version: 6.00 Build 0)  -->
<svg version="1.1" id="图层_1" xmlns="http://www.w3.org/2000/svg" xmlns:xlink="http://www.w3.org/1999/xlink" x="0px" y="0px"
	 viewBox="0 0 16 16" style="enable-background:new 0 0 16 16;" xml:space="preserve">
<style type="text/css">
	.st0{fill-rule:evenodd;clip-rule:evenodd;fill:#F28B00;}
</style>
<g id="页面-1">
	<g id="画板" transform="translate(-394.000000, -133.000000)">
		<g id="警告fill-橙" transform="translate(394.000000, 133.000000)">
			<path id="形状" class="st0" d="M8,0C3.6,0,0,3.6,0,8s3.6,8,8,8s8-3.6,8-8S12.4,0,8,0z M8.6,11.9c0,0.1-0.1,0.1-0.1,0.1H7.6
				c-0.1,0-0.1-0.1-0.1-0.1V7c0-0.1,0.1-0.1,0.1-0.1h0.9c0.1,0,0.1,0.1,0.1,0.1V11.9z M8,5.7c-0.5,0-0.9-0.4-0.9-0.9S7.5,4,8,4
				s0.9,0.4,0.9,0.9S8.5,5.7,8,5.7z"/>
		</g>
	</g>
</g>
</svg>
