<?xml version="1.0" encoding="utf-8"?>
<!-- Generator: Adobe Illustrator 25.3.1, SVG Export Plug-In . SVG Version: 6.00 Build 0)  -->
<svg version="1.1" id="图层_1" xmlns="http://www.w3.org/2000/svg" xmlns:xlink="http://www.w3.org/1999/xlink" x="0px" y="0px"
	 viewBox="0 0 16 16" style="enable-background:new 0 0 16 16;" xml:space="preserve">
<style type="text/css">
	.st0{fill-rule:evenodd;clip-rule:evenodd;fill:#192131;}
</style>
<g id="_x31_.Icon_x2F_通用_x2F_断连">
	<path id="形状结合" class="st0" d="M1,0L1,0L1,0l15,15l0,0l0,0l-1,1l-1.4-1.4c-0.6,0.8-1.6,1.4-2.8,1.4c-1.9,0-3.5-1.6-3.5-3.6
		l0-4.1L3.1,4.1v8.7l0.9,0c0.3,0,0.6,0.2,0.7,0.5c0.1,0.3,0.1,0.7-0.2,0.9l-1.6,1.6C2.8,15.9,2.6,16,2.4,16c-0.2,0-0.4-0.1-0.6-0.2
		l-1.6-1.6c-0.2-0.2-0.3-0.6-0.2-0.9c0.1-0.3,0.4-0.5,0.7-0.5l0.9,0l0-9.2c0-0.3,0-0.6,0.1-0.8L0,1L1,0z M8.7,9.7l0,2.7
		c0,1.2,1,2.1,2.1,2.1c0.7,0,1.4-0.4,1.8-0.9L8.7,9.7z M13.6,0c0.2,0,0.4,0.1,0.6,0.2l1.6,1.6c0.2,0.2,0.3,0.6,0.2,0.9
		s-0.4,0.5-0.7,0.5l-0.9,0v8.1l-1.4-1.4V3.2l-0.9,0c-0.3,0-0.6-0.2-0.7-0.5c-0.1-0.3-0.1-0.7,0.2-0.9l1.6-1.6
		C13.2,0.1,13.4,0,13.6,0z M5.2,0c1.9,0,3.5,1.6,3.5,3.6l0,2.1L7.3,4.3l0-0.7c0-1.2-1-2.1-2.1-2.1c-0.2,0-0.4,0-0.6,0.1L3.5,0.5
		C4,0.2,4.6,0,5.2,0z"/>
</g>
</svg>
