<?xml version="1.0" encoding="UTF-8"?>
<svg width="16px" height="12px" viewBox="0 0 16 12" version="1.1" xmlns="http://www.w3.org/2000/svg" xmlns:xlink="http://www.w3.org/1999/xlink">
    <title>设备-IC读写</title>
    <g id="页面-1" stroke="none" stroke-width="1" fill="none" fill-rule="evenodd">
        <g id="画板" transform="translate(-120.000000, -237.000000)" fill="#FFFFFF" fill-rule="nonzero">
            <path d="M130.454024,241.275473 L129.55477,242.177022 C129.687823,242.427069 129.758937,242.709233 129.758937,243.000574 C129.758937,243.4697 129.575416,243.912445 129.24393,244.24393 C128.911298,244.576563 128.4697,244.758937 128.000574,244.758937 C127.709233,244.758937 127.427069,244.68897 127.177022,244.55477 L126.274326,245.456318 C126.762952,245.799274 127.355955,246 127.999426,246 C129.656853,246 131,244.656853 131,242.999426 C131,242.358249 130.798127,241.764099 130.454024,241.275473 Z M126.241063,242.999426 C126.241063,242.5303 126.424584,242.087555 126.75607,241.75607 C127.088702,241.423437 127.5303,241.241063 127.999426,241.241063 C128.290767,241.241063 128.572931,241.31103 128.822978,241.44523 L129.724527,240.543682 C129.237048,240.200726 128.642898,240 128.000574,240 C126.343147,240 125,241.343147 125,242.999426 C125,243.640604 125.201873,244.235901 125.543682,244.724527 L126.44523,243.822978 C126.31103,243.571784 126.241063,243.291914 126.241063,242.999426 Z M133.938765,237 C135.268293,238.601878 136,240.733333 136,243 C136,245.266667 135.268293,247.398122 133.938765,249 L133,247.867606 C134.077322,246.566197 134.672029,244.838498 134.672029,243 C134.672029,241.161502 134.078879,239.431925 133,238.132394 L133.938765,237 Z M132.384813,240 C133.103815,240.801964 133.5,241.86743 133.5,243 C133.5,244.134206 133.103815,245.199673 132.384813,246 L131.5,245.013093 C131.982759,244.476268 132.246882,243.761047 132.246882,243 C132.248349,242.238953 131.982759,241.523732 131.5,240.986907 L132.384813,240 Z M122.061235,237 C120.731707,238.601878 120,240.733333 120,243 C120,245.266667 120.731707,247.398122 122.061235,249 L123,247.867606 C121.922678,246.566197 121.327971,244.838498 121.327971,243 C121.327971,241.161502 121.921121,239.431925 123,238.132394 L122.061235,237 Z M123.615187,240 C122.896185,240.801964 122.5,241.86743 122.5,243 C122.5,244.134206 122.896185,245.199673 123.615187,246 L124.5,245.013093 C124.017241,244.476268 123.753118,243.761047 123.753118,243 C123.751651,242.238953 124.017241,241.523732 124.5,240.986907 L123.615187,240 Z" id="设备-IC读写"></path>
        </g>
    </g>
</svg>