<?xml version="1.0" encoding="utf-8"?>
<!-- Generator: Adobe Illustrator 25.3.1, SVG Export Plug-In . SVG Version: 6.00 Build 0)  -->
<svg version="1.1" id="图层_1" xmlns="http://www.w3.org/2000/svg" xmlns:xlink="http://www.w3.org/1999/xlink" x="0px" y="0px"
	 viewBox="0 0 16 16" style="enable-background:new 0 0 16 16;" xml:space="preserve">
<style type="text/css">
	.st0{fill-rule:evenodd;clip-rule:evenodd;}
</style>
<g id="控件">
	<g id="_x31_.Icon_x2F_通用_x2F_连接">
		<path id="形状结合" class="st0" d="M13.6,0c0.2,0,0.4,0.1,0.6,0.2l1.6,1.6c0.2,0.2,0.3,0.6,0.2,0.9s-0.4,0.5-0.7,0.5l-0.9,0
			l0,9.2c0,2-1.6,3.6-3.5,3.6s-3.5-1.6-3.5-3.6V3.6c0-1.2-1-2.1-2.1-2.1s-2.1,1-2.1,2.1l0,9.2l0.9,0c0.3,0,0.6,0.2,0.7,0.5
			c0.1,0.3,0.1,0.7-0.2,0.9l-1.6,1.6C2.8,15.9,2.6,16,2.4,16c-0.2,0-0.4-0.1-0.6-0.2l-1.6-1.6c-0.2-0.2-0.3-0.6-0.2-0.9
			c0.1-0.3,0.4-0.5,0.7-0.5l0.9,0l0-9.2c0-2,1.6-3.6,3.5-3.6s3.5,1.6,3.5,3.6v8.8c0,1.2,1,2.1,2.1,2.1s2.1-1,2.1-2.1l0-9.2l-0.9,0
			c-0.3,0-0.6-0.2-0.7-0.5c-0.1-0.3-0.1-0.7,0.2-0.9l1.6-1.6C13.2,0.1,13.4,0,13.6,0z"/>
	</g>
</g>
</svg>
