<?xml version="1.0" encoding="UTF-8"?>
<svg width="24px" height="24px" viewBox="0 0 24 24" version="1.1" xmlns="http://www.w3.org/2000/svg" xmlns:xlink="http://www.w3.org/1999/xlink">
    <title>设备-打印机</title>
    <g id="页面-1" stroke="none" stroke-width="1" fill="none" fill-rule="evenodd">
        <g id="地磅点管理" transform="translate(-940.000000, -278.000000)" fill="#FFFFFF" fill-rule="nonzero">
            <g id="编组-4" transform="translate(180.000000, 76.000000)">
                <g id="编组-3" transform="translate(724.000000, 170.000000)">
                    <g id="编组-2" transform="translate(24.000000, 20.000000)">
                        <g id="设备-打印机" transform="translate(12.000000, 12.000000)">
                            <path d="M24,6.1875 L24,17.4375 L19.3846154,17.4375 L19.3846154,24 L4.61538462,24 L4.61538462,17.4375 L0,17.4375 L0,6.1875 L24,6.1875 Z M17.5384615,13.6875 L6.46153846,13.6875 L6.46153846,22.125 L17.5384615,22.125 L17.5384615,13.6875 Z M15.9375,18.375 L15.9375,20.25 L8.4375,20.25 L8.4375,18.375 L15.9375,18.375 Z M15.9375,15.5625 L15.9375,17.4375 L8.4375,17.4375 L8.4375,15.5625 L15.9375,15.5625 Z M22.1538462,8.0625 L1.84615385,8.0625 L1.84615385,15.5625 L4.61538462,15.5625 L4.61538462,11.8125 L19.3846154,11.8125 L19.3846154,15.5625 L22.1538462,15.5625 L22.1538462,8.0625 Z M20.625,9 C21.142767,9 21.5625,9.41973305 21.5625,9.9375 C21.5625,10.455267 21.142767,10.875 20.625,10.875 C20.107233,10.875 19.6875,10.455267 19.6875,9.9375 C19.6875,9.41973305 20.107233,9 20.625,9 Z M19.3846154,4.17443857e-13 L19.3846154,5.25 L17.5384615,5.25 L17.5384615,1.875 L6.46153846,1.875 L6.46153846,5.25 L4.61538462,5.25 L4.61538462,4.17443857e-13 L19.3846154,4.17443857e-13 Z" id="形状结合"></path>
                        </g>
                    </g>
                </g>
            </g>
        </g>
    </g>
</svg>