<?xml version="1.0" encoding="UTF-8"?>
<svg width="16px" height="15px" viewBox="0 0 16 15" version="1.1" xmlns="http://www.w3.org/2000/svg" xmlns:xlink="http://www.w3.org/1999/xlink">
    <title>设备-地磅</title>
    <g id="页面-1" stroke="none" stroke-width="1" fill="none" fill-rule="evenodd">
        <g id="画板" transform="translate(-145.000000, -235.000000)" fill="#FFFFFF">
            <path d="M145,248.5 L161,248.5 L161,250 L145,250 L145,248.5 Z M147,246.141746 L159,246.141746 L159,247.2 L147,247.2 L147,246.141746 Z M153.857507,237.797854 L155.265776,238.148509 L153.865762,242.599889 C154.00697,242.783527 154.090909,243.013376 154.090909,243.262804 C154.090909,243.864475 153.602492,244.352225 153,244.352225 C152.397508,244.352225 151.909091,243.864475 151.909091,243.262804 C151.909091,242.790172 152.210476,242.387835 152.631792,242.236999 L153.857507,237.797854 Z M152.907137,235 C155.604758,235 158.302379,235.634921 161,236.904762 L158.317647,243 C157.164554,242.508202 155.978273,242.175128 154.758802,242.000778 L155.0825,240.725299 C155.85125,240.842362 156.608106,241.017374 157.35252,241.250229 L157.618909,241.336727 L159.272,237.581091 L158.928189,237.44719 C157.038033,236.734424 155.15753,236.357812 153.282147,236.31352 L152.907137,236.309091 C150.938656,236.309091 149.004677,236.67514 147.098425,237.411046 L146.719273,237.562182 L148.350545,241.268364 L148.46967,241.224292 C149.235749,240.952752 150.053216,240.763532 150.920673,240.655652 L151.260223,241.933928 C149.921259,242.080227 148.728635,242.435585 147.682353,243 L145,236.904762 C147.573804,235.634921 150.209516,235 152.907137,235 Z" id="设备-地磅"></path>
        </g>
    </g>
</svg>