<?xml version="1.0" encoding="UTF-8"?>
<svg width="16px" height="16px" viewBox="0 0 16 16" version="1.1" xmlns="http://www.w3.org/2000/svg" xmlns:xlink="http://www.w3.org/1999/xlink">
    <title>账号-蓝</title>
    <g id="页面-1" stroke="none" stroke-width="1" fill="none" fill-rule="evenodd">
        <g id="画板" transform="translate(-41.000000, -125.000000)" fill="#4A6CEE">
            <g id="1.Icon/通用/锁" transform="translate(41.000000, 125.000000)">
                <path d="M8,10.1214575 C10.2370821,10.1214575 12.3931104,11.0688259 13.9007092,12.7206478 L14.2168186,13.0607287 L13.9007092,13.4008097 C12.3931104,15.0526316 10.2370821,16 8,16 C5.76291793,16 3.60688956,15.0526316 2.09929078,13.4008097 L1.78318136,13.0607287 L2.09929078,12.7206478 C3.61499493,11.0688259 5.76291793,10.1214575 8,10.1214575 Z M8,11.1336032 C6.2006079,11.1336032 4.47416413,11.8299595 3.17730496,13.0607287 C4.47416413,14.291498 6.2006079,14.9878543 8,14.9878543 C9.7993921,14.9878543 11.5258359,14.291498 12.822695,13.0607287 C11.5258359,11.8299595 9.7993921,11.1336032 8,11.1336032 Z M7.99189463,8.8817842e-16 C12.4093212,8.8817842e-16 16,3.58704453 16,8 C16,9.42510121 15.627153,10.8178138 14.9057751,12.0404858 C14.6788247,11.7651822 14.4356636,11.5060729 14.1762918,11.2631579 C14.7031408,10.2672065 14.9868288,9.1417004 14.9868288,8 C14.9868288,4.15384615 11.8500507,1.02024291 8,1.02024291 C4.14994934,1.02024291 1.01317123,4.14574899 1.01317123,8 C1.01317123,9.14979757 1.2887538,10.2672065 1.82370821,11.2712551 C1.56433637,11.51417 1.32117528,11.7732794 1.10233029,12.0404858 C0.380952381,10.8259109 -8.5442764e-13,9.42510121 -8.5442764e-13,8 C-8.5442764e-13,3.5951417 3.58257345,0.00809716599 7.99189463,8.8817842e-16 Z M8.00810537,4.27530364 C9.41843972,4.27530364 10.5694022,5.42510121 10.5694022,6.8340081 C10.5694022,8.24291498 9.42654509,9.39271255 8.00810537,9.39271255 C6.59777102,9.39271255 5.44680851,8.24291498 5.44680851,6.8340081 C5.44680851,5.42510121 6.59777102,4.27530364 8.00810537,4.27530364 Z M8.00810537,5.28744939 C7.15704154,5.28744939 6.45997974,5.98380567 6.45997974,6.8340081 C6.45997974,7.68421053 7.15704154,8.3805668 8.00810537,8.3805668 C8.8591692,8.3805668 9.556231,7.68421053 9.556231,6.8340081 C9.556231,5.98380567 8.86727457,5.28744939 8.00810537,5.28744939 Z" id="形状结合"></path>
            </g>
        </g>
    </g>
</svg>