<?xml version="1.0" encoding="UTF-8"?>
<svg width="16px" height="16px" viewBox="0 0 16 16" version="1.1" xmlns="http://www.w3.org/2000/svg" xmlns:xlink="http://www.w3.org/1999/xlink">
    <title>形状结合</title>
    <g id="页面-1" stroke="none" stroke-width="1" fill="none" fill-rule="evenodd">
        <g id="登录" transform="translate(-93.000000, -189.000000)" fill="#D8D8D8">
            <path d="M101,199.121457 C103.237082,199.121457 105.39311,200.068826 106.900709,201.720648 L107.216819,202.060729 L106.900709,202.40081 C105.39311,204.052632 103.237082,205 101,205 C98.7629179,205 96.6068896,204.052632 95.0992908,202.40081 L94.7831814,202.060729 L95.0992908,201.720648 C96.6149949,200.068826 98.7629179,199.121457 101,199.121457 Z M101,200.133603 C99.2006079,200.133603 97.4741641,200.82996 96.177305,202.060729 C97.4741641,203.291498 99.2006079,203.987854 101,203.987854 C102.799392,203.987854 104.525836,203.291498 105.822695,202.060729 C104.525836,200.82996 102.799392,200.133603 101,200.133603 Z M100.991895,189 C105.409321,189 109,192.587045 109,197 C109,198.425101 108.627153,199.817814 107.905775,201.040486 C107.678825,200.765182 107.435664,200.506073 107.176292,200.263158 C107.703141,199.267206 107.986829,198.1417 107.986829,197 C107.986829,193.153846 104.850051,190.020243 101,190.020243 C97.1499493,190.020243 94.0131712,193.145749 94.0131712,197 C94.0131712,198.149798 94.2887538,199.267206 94.8237082,200.271255 C94.5643364,200.51417 94.3211753,200.773279 94.1023303,201.040486 C93.3809524,199.825911 93,198.425101 93,197 C93,192.595142 96.5825735,189.008097 100.991895,189 Z M101.008105,193.275304 C102.41844,193.275304 103.569402,194.425101 103.569402,195.834008 C103.569402,197.242915 102.426545,198.392713 101.008105,198.392713 C99.597771,198.392713 98.4468085,197.242915 98.4468085,195.834008 C98.4468085,194.425101 99.597771,193.275304 101.008105,193.275304 Z M101.008105,194.287449 C100.157042,194.287449 99.4599797,194.983806 99.4599797,195.834008 C99.4599797,196.684211 100.157042,197.380567 101.008105,197.380567 C101.859169,197.380567 102.556231,196.684211 102.556231,195.834008 C102.556231,194.983806 101.867275,194.287449 101.008105,194.287449 Z" id="形状结合"></path>
        </g>
    </g>
</svg>