<?xml version="1.0" encoding="UTF-8"?>
<svg width="30px" height="22px" viewBox="0 0 30 22" version="1.1" xmlns="http://www.w3.org/2000/svg" xmlns:xlink="http://www.w3.org/1999/xlink">
    <title>huoche2beifen</title>
    <defs>
        <linearGradient x1="50%" y1="0%" x2="50%" y2="100%" id="linearGradient-1">
            <stop stop-color="#FFFFFF" offset="0%"></stop>
            <stop stop-color="#A6B8FF" offset="99.9149776%"></stop>
        </linearGradient>
        <path d="M40.8249423,231.333172 C40.3875225,229.200482 38.5105493,227.669298 36.333387,227.669298 C34.15601,227.669298 32.2790904,229.200482 31.841617,231.333172 L30.8333065,231.333172 C29.8207528,231.333172 29,230.512419 29,229.499866 L29,214.833306 C29,213.820753 29.8207528,213 30.8333065,213 L45.4998657,213 C46.5124194,213 47.3331722,213.820753 47.3331722,214.833306 L47.3331722,229.499866 C47.3331722,230.512419 46.5124194,231.333172 45.4998657,231.333172 L40.8249423,231.333172 Z M37.2500671,221.521306 L35.7411194,220.011553 C35.3831915,219.65341 34.8026328,219.653195 34.44449,220.011123 C34.0863472,220.369051 34.0861324,220.94961 34.4440603,221.307752 L36.3891924,223.252885 C36.6145624,223.477771 36.9403714,223.56967 37.2500671,223.495818 C37.559924,223.5701 37.8861627,223.478201 38.1117475,223.252885 L42.6490105,218.715353 C43.0069384,218.35721 43.0067236,217.776705 42.6485808,217.418777 C42.290438,217.060796 41.7099331,217.06101 41.3520051,217.419153 L37.2500671,221.521306 Z M56.4081816,231.333172 C56.0932759,229.794254 55.0125634,228.52362 53.5438987,227.965996 C52.0754489,227.408318 50.4236307,227.641208 49.1664786,228.583239 L49.1664786,218.678669 C49.1662638,218.046924 49.4912671,217.459436 50.0266551,217.123959 C50.5623117,216.788697 51.2326746,216.752604 51.801041,217.02873 L57.3011216,219.700836 C57.9326517,220.007793 58.3336019,220.648508 58.3331725,221.350775 L58.3331725,229.499866 C58.3331725,230.512419 57.5124194,231.333172 56.4998657,231.333172 L56.4081816,231.333172 Z M36.333387,235 C34.8146103,235 33.5832393,233.768629 33.5832393,232.249799 C33.5832393,230.731022 34.8146103,229.499866 36.333387,229.499866 C37.8520027,229.499866 39.0833199,230.731022 39.0833199,232.249799 C39.0833199,233.768629 37.8520027,235 36.333387,235 Z M51.9166264,235 C50.3978496,235 49.1664787,233.768629 49.1664787,232.249799 C49.1664787,230.731022 50.3978496,229.499866 51.9166264,229.499866 C53.4354031,229.499866 54.6665592,230.731022 54.6665592,232.249799 C54.6665592,233.768629 53.4354031,235 51.9166264,235 Z" id="path-2"></path>
        <filter x="-3.4%" y="-4.5%" width="106.8%" height="109.1%" filterUnits="objectBoundingBox" id="filter-3">
            <feGaussianBlur stdDeviation="0.5" in="SourceAlpha" result="shadowBlurInner1"></feGaussianBlur>
            <feOffset dx="0" dy="1" in="shadowBlurInner1" result="shadowOffsetInner1"></feOffset>
            <feComposite in="shadowOffsetInner1" in2="SourceAlpha" operator="arithmetic" k2="-1" k3="1" result="shadowInnerInner1"></feComposite>
            <feColorMatrix values="0 0 0 0 1   0 0 0 0 1   0 0 0 0 1  0 0 0 1 0" type="matrix" in="shadowInnerInner1"></feColorMatrix>
        </filter>
    </defs>
    <g id="页面-1" stroke="none" stroke-width="1" fill="none" fill-rule="evenodd">
        <g id="huoche2beifen" transform="translate(-29.000000, -213.000000)">
            <use fill="url(#linearGradient-1)" fill-rule="evenodd" xlink:href="#path-2"></use>
            <use fill="black" fill-opacity="1" filter="url(#filter-3)" xlink:href="#path-2"></use>
        </g>
    </g>
</svg>