<?xml version="1.0" encoding="utf-8"?>
<!-- Generator: Adobe Illustrator 25.3.1, SVG Export Plug-In . SVG Version: 6.00 Build 0)  -->
<svg version="1.1" id="图层_1" xmlns="http://www.w3.org/2000/svg" xmlns:xlink="http://www.w3.org/1999/xlink" x="0px" y="0px"
	 viewBox="0 0 14 14" style="enable-background:new 0 0 14 14;" xml:space="preserve">
<style type="text/css">
	.st0{fill-rule:evenodd;clip-rule:evenodd;fill:#2B53EC;}
</style>
<g id="页面-1">
	<g id="磅单管理_x2F_磅单详情" transform="translate(-192.000000, -85.000000)">
		<g id="main" transform="translate(160.000000, 0.000000)">
			<g id="编组-3" transform="translate(20.000000, 76.000000)">
				<g id="_x31_.Icon_x2F_通用_x2F_返回" transform="translate(12.000000, 9.000000)">
					<path id="路径" class="st0" d="M9.2,3.9H1.9l2.5-2.3L3.6,0.9L0.2,4C0.1,4.1,0,4.3,0,4.4c0,0.1,0.1,0.3,0.2,0.4L3.6,8l0.8-0.7
						L1.9,4.9h7.3c2.1,0,3.7,1.6,3.7,3.6s-1.6,3.6-3.7,3.6H3.6v1.1h5.6c2.7,0,4.8-2.1,4.8-4.6S11.9,3.9,9.2,3.9z"/>
				</g>
			</g>
		</g>
	</g>
</g>
</svg>
