<?xml version="1.0" encoding="UTF-8"?>
<svg width="16px" height="14px" viewBox="0 0 16 14" version="1.1" xmlns="http://www.w3.org/2000/svg" xmlns:xlink="http://www.w3.org/1999/xlink">
    <title>返回-白</title>
    <g id="页面-1" stroke="none" stroke-width="1" fill="none" fill-rule="evenodd">
        <g id="画板" transform="translate(-510.000000, -233.000000)" fill="#FFFFFF">
            <g id="1.Icon/通用/返回" transform="translate(510.000000, 232.000000)">
                <path d="M10.53125,4.43965517 L2.125,4.43965517 L4.95262908,1.85529479 L4.07762908,1.01046721 L0.1875,4.59051724 C0.0625,4.7112069 0,4.86206897 0,5.01293103 C0,5.1637931 0.0625,5.31465517 0.1875,5.43534483 L4.07762908,9.10693393 L4.95262908,8.26210634 L2.15625,5.64655172 L10.53125,5.64655172 C12.875,5.64655172 14.75,7.45689655 14.75,9.71982759 C14.75,11.9827586 12.875,13.7931034 10.53125,13.7931034 L4.125,13.7931034 L4.125,15 L10.53125,15 C13.5625,15 16,12.6465517 16,9.71982759 C16,6.79310345 13.5625,4.43965517 10.53125,4.43965517 Z" id="路径"></path>
            </g>
        </g>
    </g>
</svg>