<?xml version="1.0" encoding="UTF-8"?>
<svg width="29px" height="32px" viewBox="0 0 29 32" version="1.1" xmlns="http://www.w3.org/2000/svg" xmlns:xlink="http://www.w3.org/1999/xlink">
    <title>jinru</title>
    <g id="页面-1" stroke="none" stroke-width="1" fill="none" fill-rule="evenodd">
        <g id="手动开闸" transform="translate(-832.000000, -114.000000)" fill="#FFFFFF">
            <path d="M841.318458,136.605497 L847.88266,130.748865 C848.294763,130.381184 848.330773,129.749044 847.963092,129.336941 C847.937911,129.308717 847.911149,129.281945 847.882934,129.256753 L841.421397,123.487448 C841.009455,123.119637 840.377339,123.155413 840.009529,123.567356 C839.845911,123.750605 839.755477,123.987673 839.755477,124.233337 L839.755477,125.466673 C839.755477,126.018958 839.307762,126.466673 838.755477,126.466673 L833,126.466673 C832.447715,126.466673 832,126.914388 832,127.466673 L832,132.810705 C832,133.36299 832.447715,133.810705 833,133.810705 L838.755477,133.810705 C839.307762,133.810705 839.755477,134.25842 839.755477,134.810705 L839.755477,135.905352 C839.755477,136.423565 840.175571,136.843659 840.693784,136.843659 C840.924187,136.843659 841.146536,136.758887 841.318458,136.605497 Z M857.310724,146 L840.110703,146 C838.367893,145.996339 836.846377,144.699957 836.835708,142.935674 L836.835708,138.717827 L838.696419,138.717827 L838.696419,142.935674 C838.696419,143.532102 839.264231,144.132145 840.114364,144.135628 L857.314206,144.135628 C858.16416,144.132145 858.728489,143.524914 858.73215,142.935674 L858.73215,117.064326 C858.73215,116.467898 858.16416,115.867855 857.314206,115.864372 L840.110703,115.864372 C839.260749,115.871515 838.692937,116.475041 838.692937,117.064326 L838.692937,120.685655 L836.832047,120.685655 L836.832047,117.064326 C836.846377,115.300043 838.364232,114.003482 840.107221,114 L857.307063,114 C859.050052,114.003482 860.567907,115.300043 860.582014,117.064326 L860.582014,142.939156 C860.571389,144.699957 859.053534,145.996339 857.310724,146 Z" id="jinru"></path>
        </g>
    </g>
</svg>