<?xml version="1.0" encoding="UTF-8"?>
<svg width="12px" height="12px" viewBox="0 0 12 12" version="1.1" xmlns="http://www.w3.org/2000/svg" xmlns:xlink="http://www.w3.org/1999/xlink">
    <title>切片</title>
    <g id="二期" stroke="none" stroke-width="1" fill="none" fill-rule="evenodd">
        <g id="磅单管理" transform="translate(-928.000000, -86.000000)" fill="#C2C5C8">
            <g id="Stacked-Group" transform="translate(180.000000, 76.000000)">
                <g id="4.数据录入/4.input/icon前置" transform="translate(740.000000, 0.000000)">
                    <g id="Icon/通用/搜索" transform="translate(8.000000, 10.000000)">
                        <path d="M12.0002606,11.0131295 L11.0131703,12.0002198 L9.00550625,9.9925558 C6.57059418,11.8836976 3.0628743,11.4417169 1.17307181,9.00546548 C-0.716730691,6.56921407 -0.276089287,3.06283353 2.15882279,1.17303103 C4.59373487,-0.716771462 8.10145474,-0.276130058 9.99125724,2.16012135 C11.5542619,4.17448206 11.5542619,6.99244411 9.99125724,9.00680482 L12.0002606,11.0131295 Z M8.7925519,2.37843305 C7.02061093,0.607831422 4.14907545,0.607831422 2.37847382,2.37843305 C0.607872193,4.15037402 0.607872193,7.02190949 2.37847382,8.79251112 C4.15041479,10.5631128 7.02195026,10.5631128 8.7925519,8.79251112 C10.5631535,7.02057016 10.5618142,4.14903468 8.79121256,2.37843305 L8.7925519,2.37843305 Z" id="形状"></path>
                    </g>
                </g>
            </g>
        </g>
    </g>
</svg>