<?xml version="1.0" encoding="UTF-8"?>
<svg width="12px" height="12px" viewBox="0 0 12 12" version="1.1" xmlns="http://www.w3.org/2000/svg" xmlns:xlink="http://www.w3.org/1999/xlink">
    <title>形状结合</title>
    <g id="页面-1" stroke="none" stroke-width="1" fill="none" fill-rule="evenodd">
        <g id="门禁记录" transform="translate(-1108.000000, -110.000000)" fill="#515A6E">
            <path d="M1115.72738,110 L1115.72738,112.234303 L1120,112.234303 L1120,115.535769 L1108,115.535769 L1108,112.234303 L1112.13323,112.234303 L1112.13323,110 L1115.72738,110 Z M1114.67725,111.05 L1113.1825,111.05 L1113.18323,113.284303 L1109.05,113.284241 L1109.05,114.485741 L1118.95,114.485741 L1118.95,113.284241 L1114.67738,113.284303 L1114.67725,111.05 Z M1110.03603,115.535769 L1110.03603,116.621762 C1110.03603,117.939567 1109.84876,119.635604 1109.48092,120.898359 L1109.4646,120.95 L1111.074,120.95 L1111.075,119 L1112.125,119 L1112.124,120.95 L1113.475,120.95 L1113.475,117.5 L1114.525,117.5 L1114.524,120.95 L1115.875,120.95 L1115.875,119 L1116.925,119 L1116.925,120.95 L1118.52658,120.95 L1118.51143,120.900614 C1118.17447,119.763165 1117.9863,118.200065 1117.95203,117.013227 L1117.94632,116.617285 L1117.94632,115.535769 L1118.99724,115.535769 L1118.99724,116.617285 C1118.99724,117.959041 1119.21036,119.677772 1119.62795,120.951391 L1120,122 L1116.925,121.999 L1116.925,122 L1115.875,122 L1115.875,121.999 L1114.524,121.999 L1114.525,122 L1113.475,122 L1113.475,121.999 L1112.124,121.999 L1112.125,122 L1111.075,122 L1111.074,121.999 L1108,122 L1108.24782,121.299942 C1108.69511,120.036391 1108.94189,118.325251 1108.97992,116.987027 L1108.9851,115.535769 L1110.03603,115.535769 Z" id="形状结合"></path>
        </g>
    </g>
</svg>