<?xml version="1.0" encoding="UTF-8"?>
<svg width="14px" height="16px" viewBox="0 0 14 16" version="1.1" xmlns="http://www.w3.org/2000/svg" xmlns:xlink="http://www.w3.org/1999/xlink">
    <title>锁-蓝</title>
    <g id="页面-1" stroke="none" stroke-width="1" fill="none" fill-rule="evenodd">
        <g id="画板" transform="translate(-84.000000, -125.000000)" fill="#4A6CEE">
            <g id="1.Icon/通用/锁" transform="translate(83.000000, 125.000000)">
                <path d="M13.0302341,6.30081301 L13.0302341,4.67479675 C13.0302341,2.0929778 10.7781216,0 8,0 C5.22187845,0 2.96976595,2.0929778 2.96976595,4.67479675 L2.96976595,6.30081301 C2.14429178,6.41304929 1.45196121,6.93777231 1.16762992,7.66666667 C1.16762992,7.66666667 1.16762992,8.0160509 1.16762992,8.71481936 L2.39238256,8.71481936 C2.39238256,8.30873382 2.39238256,8.10569106 2.39238256,8.10569106 C2.51264865,7.74881632 2.86488285,7.50330738 3.26720587,7.49593496 L12.7590388,7.49593496 C13.312153,7.54740172 13.722093,7.99666294 13.6863515,8.51219512 L13.6863515,13.7642276 C13.722093,14.2797598 13.312153,14.729021 12.7590388,14.7804878 L3.24096118,14.7804878 C2.68784699,14.729021 2.27790704,14.2797598 2.31364846,13.7642276 L2.31364846,11.7479675 L9.20725617,11.7479675 C9.38268757,11.7465981 9.55000903,11.6791177 9.67091253,11.5609756 C9.69949373,11.538858 9.72584734,11.5143665 9.74964663,11.4878049 C9.78404641,11.4506198 9.81342515,11.4096655 9.83712896,11.3658537 C9.84437005,11.314583 9.84437005,11.2626528 9.83712896,11.2113821 C9.83884239,11.1870179 9.83884239,11.1625756 9.83712896,11.1382114 C9.84747416,11.0762515 9.84747416,11.0131794 9.83712896,10.9512195 L9.83712896,10.8455285 C9.80982379,10.7923454 9.77447281,10.7430658 9.73215016,10.699187 C7.94913157,9.19285702 7.05762227,8.43969204 7.05762227,8.43969204 C7.05762227,8.43969204 6.25854499,9.35885472 6.25854499,9.35885472 C6.25854499,9.35885472 6.71947081,9.74601155 7.64132244,10.5203252 L1.65753098,10.5203252 C1.2951673,10.5203252 1.00141349,10.7933223 1.00141349,11.1300813 L1.00141349,13.7642276 C0.957127725,14.9557947 1.95890983,15.9558881 3.24096118,16 L12.7590388,16 C14.0410902,15.9558881 15.0428723,14.9557947 14.9985865,13.7642276 L14.9985865,8.51219512 C15.0312658,7.42088044 14.1898331,6.47555729 13.0302341,6.30081301 Z M8,1.20325203 C10.0533942,1.20325203 11.7179991,2.75023562 11.7179991,4.65853659 L11.7179991,6.28455285 L4.28200092,6.28455285 L4.28200092,4.65853659 C4.28200092,2.75023562 5.94660581,1.20325203 8,1.20325203 Z" id="形状"></path>
            </g>
        </g>
    </g>
</svg>