<?xml version="1.0" encoding="utf-8"?>
<!-- Generator: Adobe Illustrator 25.3.1, SVG Export Plug-In . SVG Version: 6.00 Build 0)  -->
<svg version="1.1" id="图层_1" xmlns="http://www.w3.org/2000/svg" xmlns:xlink="http://www.w3.org/1999/xlink" x="0px" y="0px"
	 viewBox="0 0 16 16" style="enable-background:new 0 0 16 16;" xml:space="preserve">
<style type="text/css">
	.st0{fill-rule:evenodd;clip-rule:evenodd;fill:#192131;}
</style>
<g id="_x31_.Icon_x2F_通用_x2F_锁">
	<path id="形状" class="st0" d="M13,6.3V4.7C13,2.1,10.8,0,8,0S3,2.1,3,4.7v1.6C2.1,6.4,1.5,6.9,1.2,7.7c0,0,0,0.3,0,1h1.2
		c0-0.4,0-0.6,0-0.6c0.1-0.4,0.5-0.6,0.9-0.6h9.5c0.6,0.1,1,0.5,0.9,1v5.3c0,0.5-0.4,1-0.9,1H3.2c-0.6-0.1-1-0.5-0.9-1v-2h6.9
		c0.2,0,0.3-0.1,0.5-0.2c0,0,0.1,0,0.1-0.1c0,0,0.1-0.1,0.1-0.1c0-0.1,0-0.1,0-0.2c0,0,0,0,0-0.1c0-0.1,0-0.1,0-0.2v-0.1
		c0-0.1-0.1-0.1-0.1-0.1C7.9,9.2,7.1,8.4,7.1,8.4L6.3,9.4c0,0,0.5,0.4,1.4,1.2h-6c-0.4,0-0.7,0.3-0.7,0.6v2.6C1,15,2,16,3.2,16h9.5
		c1.3,0,2.3-1,2.2-2.2V8.5C15,7.4,14.2,6.5,13,6.3z M8,1.2c2.1,0,3.7,1.5,3.7,3.5v1.6H4.3V4.7C4.3,2.8,5.9,1.2,8,1.2z"/>
</g>
</svg>
