<?xml version="1.0" encoding="UTF-8"?>
<svg width="17px" height="17px" viewBox="0 0 17 17" version="1.1" xmlns="http://www.w3.org/2000/svg" xmlns:xlink="http://www.w3.org/1999/xlink">
    <title>错误line-白</title>
    <g id="页面-1" stroke="none" stroke-width="1" fill="none" fill-rule="evenodd">
        <g id="画板" transform="translate(-297.000000, -235.000000)" fill="#FFFFFF">
            <g id="1.Icon/通用/状态错误line" transform="translate(297.492089, 235.769231)">
                <path d="M11.0686195,0.612127269 C14.0576383,1.85358017 16.0041191,4.77376385 15.9999869,8.01033982 C15.9887147,12.4222177 12.4119924,15.9943667 8.00010437,15.9999869 C4.76352621,15.9999869 1.84583605,14.049768 0.608209055,11.0591627 C-0.629417935,8.06855739 0.056894583,4.62686643 2.34696471,2.33972445 C4.63703485,0.0525824662 8.07960069,-0.629325636 11.0686195,0.612127269 Z M7.99999673,1.14285668 C4.21290285,1.14285668 1.14285668,4.21290285 1.14285668,7.99999673 C1.14285668,11.7870906 4.21290285,14.8571368 7.99999673,14.8571368 C11.7870906,14.8571368 14.8571368,11.7870906 14.8571368,7.99999673 C14.8516236,4.21518884 11.7848046,1.14836988 7.99999673,1.14285668 Z M10.9535714,5.03214286 C11.0321429,5.03214286 11.0964286,5.09642857 11.0964286,5.175 C11.0964286,5.20892857 11.0857143,5.24285714 11.0642857,5.26785714 L11.0642857,5.26785714 L8.74107143,8.03571429 L11.0607143,10.8017857 C11.0821429,10.8285714 11.0946429,10.8607143 11.0946429,10.8946429 C11.0946429,10.975 11.0303571,11.0375 10.9517857,11.0375 L10.9517857,11.0375 L9.77321429,11.0321429 L8,8.91785714 L6.22678571,11.0339286 L5.04642857,11.0392857 C4.96785714,11.0392857 4.90357143,10.975 4.90357143,10.8964286 C4.90357143,10.8625 4.91607143,10.8303571 4.9375,10.8035714 L4.9375,10.8035714 L7.26071429,8.0375 L4.9375,5.26964286 C4.91607143,5.24285714 4.90357143,5.21071429 4.90357143,5.17678571 C4.90357143,5.09642857 4.96785714,5.03392857 5.04642857,5.03392857 L5.04642857,5.03392857 L6.22678571,5.03928571 L8,7.15357143 L9.775,5.0375 Z" id="形状结合"></path>
            </g>
        </g>
    </g>
</svg>