<?xml version="1.0" encoding="UTF-8"?>
<svg width="16px" height="16px" viewBox="0 0 16 16" version="1.1" xmlns="http://www.w3.org/2000/svg" xmlns:xlink="http://www.w3.org/1999/xlink">
    <title>错误fill-红</title>
    <g id="页面-1" stroke="none" stroke-width="1" fill="none" fill-rule="evenodd">
        <g id="画板" transform="translate(-331.000000, -133.000000)" fill="#F54E4E">
            <g id="错误fill-红" transform="translate(331.000000, 133.000000)">
                <path d="M8,0 C3.58214286,0 0,3.58214286 0,8 C0,12.4178571 3.58214286,16 8,16 C12.4178571,16 16,12.4178571 16,8 C16,3.58214286 12.4178571,0 8,0 Z M10.9535714,11.0392857 L9.775,11.0339286 L8,8.91785714 L6.22678571,11.0321429 L5.04642857,11.0375 C4.96785714,11.0375 4.90357143,10.975 4.90357143,10.8946429 C4.90357143,10.8607143 4.91607143,10.8285714 4.9375,10.8017857 L7.26071429,8.03392857 L4.9375,5.26785714 C4.91607143,5.24107143 4.90357143,5.20892857 4.90357143,5.175 C4.90357143,5.09642857 4.96785714,5.03214286 5.04642857,5.03214286 L6.22678571,5.0375 L8,7.15357143 L9.77321429,5.03928571 L10.9517857,5.03392857 C11.0303571,5.03392857 11.0946429,5.09642857 11.0946429,5.17678571 C11.0946429,5.21071429 11.0821429,5.24285714 11.0607143,5.26964286 L8.74107143,8.03571429 L11.0625,10.8035714 C11.0839286,10.8303571 11.0964286,10.8625 11.0964286,10.8964286 C11.0964286,10.975 11.0321429,11.0392857 10.9535714,11.0392857 Z" id="形状"></path>
            </g>
        </g>
    </g>
</svg>