<?xml version="1.0" encoding="UTF-8"?>
<svg width="14px" height="16px" viewBox="0 0 14 16" version="1.1" xmlns="http://www.w3.org/2000/svg" xmlns:xlink="http://www.w3.org/1999/xlink">
    <title>形状结合</title>
    <g id="页面-1" stroke="none" stroke-width="1" fill="none" fill-rule="evenodd">
        <g id="登录" transform="translate(-94.000000, -309.000000)" fill="#D8D8D8">
            <path d="M101.003067,309 L101.314836,309.233848 L101.59594,309.445615 C103.242699,310.692134 104.706484,311.220048 107.030958,311.220048 L107.030958,311.220048 L108,311.220048 L108,317.293062 C108,320.461548 104.257739,325 101.004089,325 C99.7692757,325 98.4997079,324.413875 97.3241822,323.390164 L97.3241822,323.390164 L98.0029206,322.530451 C99.0077395,323.40462 100.052424,323.88737 101.004089,323.88737 C103.640333,323.88737 106.892361,319.839697 106.892361,317.18407 L106.892361,317.18407 L106.892361,312.324973 C104.377758,312.316944 102.798043,311.716768 101.005111,310.366875 C99.2132009,311.717772 97.6482185,312.317947 95.1244159,312.325976 L95.1244159,312.325976 L95.1244159,317.18407 C95.1244159,317.969919 95.379965,319.033775 96.0096379,320.101646 C96.0972195,320.253095 96.1858118,320.403979 96.2754089,320.554287 L96.2754089,320.554287 L96.3224299,320.628556 C96.4237016,320.779147 96.5332383,320.92422 96.6505549,321.063132 L96.6505549,321.063132 L95.8552862,321.801405 C95.6764019,321.584619 95.5639603,321.434074 95.4617407,321.277506 L95.4617407,321.277506 L95.4014311,321.183164 C95.3462325,321.09384 95.1121495,320.692385 95.1244159,320.712458 C94.4129673,319.504077 94,318.278635 94,317.293062 L94,317.293062 L94,311.220048 L94.9690421,311.220048 C97.3037383,311.220048 98.7695678,310.692134 100.413259,309.445615 L100.413259,309.445615 L101.003067,309 Z M104.438625,313.724493 L105.329001,314.473843 L100.533879,320.408355 L96.7221086,316.899636 L97.4909596,316.019784 L100.422459,318.715577 L104.438625,313.724493 Z" id="形状结合"></path>
        </g>
    </g>
</svg>