<?xml version="1.0" encoding="UTF-8"?>
<svg width="14px" height="16px" viewBox="0 0 14 16" version="1.1" xmlns="http://www.w3.org/2000/svg" xmlns:xlink="http://www.w3.org/1999/xlink">
    <title>验证码-蓝</title>
    <g id="页面-1" stroke="none" stroke-width="1" fill="none" fill-rule="evenodd">
        <g id="画板" transform="translate(-130.000000, -125.000000)" fill="#4A6CEE">
            <g id="1.Icon/通用/锁" transform="translate(129.000000, 125.000000)">
                <path d="M8.00306659,0 L8.31483645,0.233847698 L8.59594042,0.445615356 C10.2426986,1.69213399 11.7064836,2.22004767 14.0309579,2.22004767 L14.0309579,2.22004767 L15,2.22004767 L15,8.29306235 C15,11.4615481 11.2577395,16 8.00408879,16 C6.7692757,16 5.49970794,15.4138753 4.32418224,14.3901643 L4.32418224,14.3901643 L5.00292056,13.5304509 C6.00773949,14.4046197 7.05242407,14.8873697 8.00408879,14.8873697 C10.6403329,14.8873697 13.8923611,10.8396969 13.8923611,8.18407023 L13.8923611,8.18407023 L13.8923611,3.32497274 C11.3777583,3.31694363 9.79804322,2.71676799 8.00511098,1.36687463 C6.21320093,2.71777163 4.64821846,3.31794727 2.12441589,3.32597637 L2.12441589,3.32597637 L2.12441589,8.18407023 C2.12441589,8.96991893 2.37996495,10.0337754 3.00963785,11.1016464 C3.09721953,11.2530955 3.18581178,11.403979 3.27540888,11.5542873 L3.27540888,11.5542873 L3.32242991,11.6285565 C3.42370163,11.7791472 3.53323833,11.9242198 3.65055491,12.0631318 L3.65055491,12.0631318 L2.85528621,12.8014051 C2.67640187,12.5846192 2.56396028,12.4340735 2.46174065,12.277506 L2.46174065,12.277506 L2.40143107,12.183164 C2.34623248,12.0938402 2.11214953,11.6923849 2.12441589,11.7124577 C1.41296729,10.5040773 1,9.27863505 1,8.29306235 L1,8.29306235 L1,2.22004767 L1.96904206,2.22004767 C4.30373832,2.22004767 5.76956776,1.69213399 7.41325935,0.445615356 L7.41325935,0.445615356 L8.00306659,0 Z M11.4386252,4.72449258 L12.3290012,5.47384268 L7.5338785,11.4083553 L3.72210864,7.89963618 L4.49095964,7.01978382 L7.42245911,9.71557704 L11.4386252,4.72449258 Z" id="形状结合"></path>
            </g>
        </g>
    </g>
</svg>